<svg xmlns="http://www.w3.org/2000/svg" viewBox="0 0 228 114"><path d="m53.942 11.524-1.878-6.762-1.878 6.762h3.756ZM49.347 1.121h5.434l5.408 17.337h-4.494l-.939-3.442h-5.409l-.937 3.442h-4.496l5.433-17.337ZM66.392 9.666h2.963c.297 0 .588-.045.876-.137.289-.09.548-.222.779-.395.23-.174.415-.396.556-.67.139-.271.209-.622.209-1.052V6.77c0-.413-.07-.76-.21-1.04a2.02 2.02 0 0 0-.555-.694 2.22 2.22 0 0 0-.779-.397 3.154 3.154 0 0 0-.876-.123h-2.963v5.151Zm3.605-8.545c.939 0 1.782.129 2.53.385a5.67 5.67 0 0 1 1.94 1.101c.544.48.959 1.06 1.248 1.747.287.685.432 1.473.432 2.365v.743c0 .874-.145 1.655-.432 2.34-.29.686-.7 1.268-1.236 1.747-.536.48-1.185.85-1.951 1.115-.765.263-1.626.395-2.58.395l-3.556.025v5.374h-4.273V1.121h7.878ZM82.86 1.12V7.81h1.088l4.025-6.688h5.236l-5.73 8.421 6.1 8.918h-5.236l-4.395-7.01H82.86v7.01h-4.247V1.12h4.247ZM109.111 1.12v3.395h-5.284V18.46h-4.224V4.515h-5.31V1.12h14.818ZM125.954 18.458h-4.248V7.883h-.024l-6.347 10.575h-4.347V1.121h4.124v10.601h.049l6.348-10.601h4.445v17.337ZM133.102 1.12v6.391c0 .413.049.757.148 1.027.099.274.255.502.469.682.213.183.461.306.74.372.281.067.577.099.89.099.248 0 .51-.012.791-.037.28-.024.571-.053.875-.087.306-.032.606-.078.903-.136.297-.059.575-.104.84-.137V1.121h4.222V18.46h-4.222v-5.798c-.33.018-.676.055-1.039.112-.362.058-.727.11-1.098.15-.371.04-.737.074-1.098.099a15.33 15.33 0 0 1-1.039.036 9.63 9.63 0 0 1-2.346-.272c-.724-.182-1.333-.491-1.827-.928-.494-.438-.881-1.007-1.162-1.71-.278-.701-.419-1.564-.419-2.587V1.121h4.372ZM158.695 1.12v3.395h-8.201V8.08h7.237v3.096h-7.237v3.889h8.201v3.394h-12.472V1.12h12.472ZM172.446 7.735c.066-.744.009-1.343-.173-1.798-.181-.451-.444-.791-.789-1.014a3.415 3.415 0 0 0-1.149-.47 5.82 5.82 0 0 0-1.223-.136c-.559 0-1.066.09-1.518.272a2.96 2.96 0 0 0-1.161.83c-.322.372-.568.843-.74 1.41-.174.57-.261 1.227-.261 1.97v1.982c0 .743.087 1.399.261 1.968.172.57.418 1.045.74 1.424.32.381.707.657 1.161.832.452.172.959.258 1.518.258a5.82 5.82 0 0 0 1.223-.135c.42-.091.803-.248 1.149-.472.345-.221.608-.56.789-1.014.182-.454.239-1.054.173-1.796h4.373c.114 1.255-.027 2.327-.421 3.22-.395.89-.96 1.614-1.692 2.167a7.146 7.146 0 0 1-2.544 1.202c-.962.247-1.979.37-3.05.37-1.268 0-2.399-.19-3.395-.569-.997-.38-1.833-.925-2.508-1.635a7.557 7.557 0 0 1-1.579-2.551c-.38-.99-.569-2.106-.569-3.344V8.874c0-1.238.185-2.354.556-3.345a7.388 7.388 0 0 1 1.568-2.55c.675-.709 1.515-1.255 2.519-1.635 1.004-.379 2.14-.57 3.408-.57 1.053 0 2.062.124 3.025.373a7.198 7.198 0 0 1 2.556 1.2 5.35 5.35 0 0 1 1.705 2.168c.394.89.535 1.964.421 3.22h-4.373ZM183.958 1.12V7.81h1.087l4.025-6.688h5.236l-5.73 8.421 6.101 8.918h-5.236l-4.396-7.01h-1.087v7.01h-4.248V1.12h4.248ZM205.649 11.524l-1.876-6.762-1.878 6.762h3.754Zm-4.593-10.403h5.434l5.408 17.337h-4.496l-.937-3.442h-5.409l-.939 3.442h-4.494l5.433-17.337ZM223.036 4.515h-3.111a2.573 2.573 0 0 0-1.569.532 1.765 1.765 0 0 0-.519.681 2.45 2.45 0 0 0-.184.991v.718c0 .464.07.841.211 1.14.139.297.32.52.541.67.224.147.463.258.718.332.255.074.523.112.802.112h3.111V4.515Zm4.273-3.393v17.336h-4.273v-5.373h-2.444l-2.371 5.373h-4.865l3.012-6.142a6.134 6.134 0 0 1-1.296-.78 4.562 4.562 0 0 1-1.58-2.365 5.533 5.533 0 0 1-.21-1.561V6.57c0-.843.132-1.594.394-2.255a4.85 4.85 0 0 1 1.138-1.709c.494-.478 1.114-.846 1.864-1.103.749-.254 1.601-.382 2.556-.382h8.075ZM56.288 33.95c.065-.743.007-1.343-.174-1.797-.181-.453-.444-.793-.79-1.015a3.416 3.416 0 0 0-1.149-.471 5.81 5.81 0 0 0-1.221-.135c-.56 0-1.067.09-1.52.271a2.974 2.974 0 0 0-1.16.83c-.32.372-.567.843-.741 1.411-.174.57-.26 1.227-.26 1.969v1.982c0 .744.086 1.4.26 1.969.174.57.42 1.045.74 1.424.322.38.707.657 1.16.831.454.173.962.259 1.52.259a5.81 5.81 0 0 0 1.222-.136c.42-.091.803-.248 1.15-.47.345-.223.608-.561.789-1.016.18-.455.239-1.053.174-1.796h4.37c.115 1.255-.024 2.328-.42 3.22-.395.89-.958 1.614-1.692 2.168a7.134 7.134 0 0 1-2.542 1.202c-.964.247-1.981.37-3.05.37-1.27 0-2.401-.19-3.396-.57-.997-.38-1.832-.924-2.507-1.634a7.579 7.579 0 0 1-1.58-2.552c-.379-.99-.569-2.105-.569-3.343v-1.832c0-1.238.186-2.354.555-3.345.371-.99.893-1.84 1.57-2.55.675-.71 1.514-1.256 2.518-1.635 1.005-.38 2.14-.57 3.409-.57 1.053 0 2.062.124 3.025.372a7.204 7.204 0 0 1 2.556 1.2 5.364 5.364 0 0 1 1.704 2.168c.395.891.534 1.965.42 3.22h-4.371ZM78.517 44.673H74.27V34.098h-.025l-6.346 10.575h-4.346V27.335h4.123v10.602h.05l6.347-10.602h4.445v17.338ZM85.93 35.88h2.963c.297 0 .588-.045.876-.136.289-.09.548-.222.778-.395.23-.175.416-.397.557-.67.139-.272.21-.622.21-1.052v-.644c0-.413-.071-.76-.21-1.04a2.02 2.02 0 0 0-.556-.693 2.219 2.219 0 0 0-.779-.397 3.155 3.155 0 0 0-.876-.124H85.93v5.151Zm3.606-8.545c.938 0 1.782.13 2.531.385a5.67 5.67 0 0 1 1.939 1.102c.543.48.96 1.06 1.248 1.746.286.686.431 1.473.431 2.366v.742c0 .875-.145 1.655-.431 2.341a4.821 4.821 0 0 1-1.235 1.747c-.536.48-1.187.85-1.952 1.114-.765.263-1.627.395-2.581.395l-3.556.025v5.375h-4.273V27.335h7.88ZM110.212 27.335v3.394h-8.2v3.566h7.237v3.097h-7.237v3.888h8.2v3.394H97.74V27.335h12.472ZM117.379 27.335v6.688h6.125v-6.688h4.248v17.34h-4.248v-7.01h-6.125v7.01h-4.273v-17.34h4.273ZM139.557 37.739l-1.876-6.763-1.878 6.763h3.754Zm-4.592-10.404h5.433l5.409 17.338h-4.496l-.938-3.442h-5.408l-.939 3.442h-4.495l5.434-17.338ZM51.261 58.223v9.324h-1.328v-8.18l-3.52.015v8.165h-1.315v-9.324h6.163ZM54.514 62.871h1.794c.177 0 .35-.025.517-.073a1.218 1.218 0 0 0 .77-.66c.08-.168.121-.364.121-.585v-.866a1.3 1.3 0 0 0-.12-.585 1.224 1.224 0 0 0-.319-.407 1.33 1.33 0 0 0-.452-.247 1.731 1.731 0 0 0-.517-.079h-1.794v3.502Zm1.807-4.648c.416 0 .797.053 1.142.16.346.107.639.265.876.479.24.214.426.47.558.772.134.302.2.658.2 1.066v.853c0 .4-.066.754-.2 1.065a2.045 2.045 0 0 1-.558.773 2.433 2.433 0 0 1-.869.465c-.34.108-.729.161-1.162.161l-1.794.014v3.516H53.2v-9.324h3.121ZM66.008 60.607a2.132 2.132 0 0 0-.424-.766 1.655 1.655 0 0 0-.679-.459 2.581 2.581 0 0 0-.902-.147c-.338 0-.64.048-.91.147a1.59 1.59 0 0 0-.678.46 2.16 2.16 0 0 0-.417.765 3.398 3.398 0 0 0-.147 1.052v2.451c0 .417.048.778.147 1.079.096.302.236.553.417.752.18.2.407.349.678.446.27.098.568.147.895.147.347 0 .65-.05.91-.147.262-.097.487-.247.678-.446.19-.199.333-.45.432-.752.097-.301.146-.662.146-1.079v-2.45c0-.4-.049-.75-.146-1.053Zm1.514 3.503c0 .56-.084 1.06-.252 1.499a3.214 3.214 0 0 1-1.84 1.865c-.429.173-.91.259-1.442.259-.53 0-1.011-.086-1.44-.259a3.164 3.164 0 0 1-1.82-1.866c-.163-.438-.245-.938-.245-1.498v-2.45c0-.552.082-1.049.245-1.493.164-.443.399-.823.704-1.138.306-.317.678-.56 1.116-.734a3.928 3.928 0 0 1 1.455-.258c.521 0 1 .085 1.433.258.434.175.807.417 1.115.734.31.315.55.695.719 1.138.168.444.252.941.252 1.492v2.451ZM74.475 58.223v1.145h-3.932v2.824h3.519v1.158h-3.52v3.05h3.933v1.147h-5.246v-9.324h5.246ZM77.569 58.223v3.97h.784l2.218-3.97h1.621l-2.736 4.529 2.948 4.795H80.73l-2.378-4.197h-.784v4.197h-1.314v-9.324h1.314ZM89.935 58.223v1.145h-2.657v8.179H85.95v-8.18h-2.67v-1.144h6.654ZM96.351 66.4h1.94c.212 0 .398-.024.558-.072.16-.048.298-.125.417-.227.12-.102.21-.22.274-.359.06-.138.091-.305.091-.5v-.76a1.2 1.2 0 0 0-.106-.526.89.89 0 0 0-.29-.351 1.27 1.27 0 0 0-.427-.195c-.16-.04-.332-.06-.517-.06h-1.94v3.05Zm0-4.208 1.9.014c.185 0 .352-.025.498-.073.146-.05.27-.12.372-.214a.916.916 0 0 0 .232-.34c.052-.133.08-.283.08-.453v-.8c0-.16-.028-.299-.08-.418a.724.724 0 0 0-.232-.293 1.262 1.262 0 0 0-.36-.18 1.514 1.514 0 0 0-.47-.066h-1.94v2.823Zm1.992-3.97c.4 0 .75.05 1.056.147.306.098.563.231.77.4a1.698 1.698 0 0 1 .645 1.359v.852c0 .213-.029.407-.087.586a1.749 1.749 0 0 1-.238.48c-.101.142-.23.266-.385.373a4.117 4.117 0 0 1-.538.305c.248.063.455.154.623.273.17.121.313.259.432.413a1.846 1.846 0 0 1 .379 1.152v.974c0 .292-.058.564-.172.812a1.74 1.74 0 0 1-.511.638 2.449 2.449 0 0 1-.83.414 4.029 4.029 0 0 1-1.144.147h-3.332v-9.324h3.332ZM108.251 60.607a2.128 2.128 0 0 0-.424-.766 1.665 1.665 0 0 0-.678-.459 2.581 2.581 0 0 0-.903-.147c-.338 0-.641.048-.91.147a1.59 1.59 0 0 0-.678.46c-.181.209-.322.463-.417.765a3.382 3.382 0 0 0-.147 1.052v2.451c0 .417.048.778.147 1.079.095.302.236.553.417.752.181.2.407.349.678.446.269.098.568.147.895.147.347 0 .649-.05.91-.147.263-.097.487-.247.678-.446.19-.199.334-.45.432-.752.097-.301.146-.662.146-1.079v-2.45c0-.4-.049-.75-.146-1.053Zm1.514 3.503c0 .56-.084 1.06-.252 1.499a3.211 3.211 0 0 1-1.84 1.865c-.429.173-.91.259-1.442.259-.53 0-1.011-.086-1.44-.259-.43-.174-.8-.418-1.11-.734a3.194 3.194 0 0 1-.71-1.131 4.285 4.285 0 0 1-.244-1.499v-2.45c0-.552.081-1.049.244-1.493a3.21 3.21 0 0 1 .705-1.138c.305-.317.678-.56 1.115-.734a3.93 3.93 0 0 1 1.455-.258c.521 0 1 .085 1.433.258.434.175.807.417 1.117.734.309.315.548.695.717 1.138.168.444.252.941.252 1.492v2.451ZM115.072 66.428c.204-.071.373-.166.511-.288a1.25 1.25 0 0 0 .319-.418c.075-.16.113-.329.113-.507v-.506c0-.248-.038-.463-.113-.645a1.132 1.132 0 0 0-.286-.427 1.057 1.057 0 0 0-.385-.22 1.44 1.44 0 0 0-.439-.067h-1.208v-1.16l1.182.015c.142 0 .284-.029.426-.087.14-.056.259-.133.358-.232.097-.098.179-.215.245-.353.068-.138.101-.29.101-.46v-.626c0-.168-.036-.328-.107-.48a1.13 1.13 0 0 0-.293-.386 1.375 1.375 0 0 0-.465-.253 1.991 1.991 0 0 0-.637-.093c-.221 0-.445.022-.67.067a1.25 1.25 0 0 0-.598.292c-.173.151-.306.367-.399.647-.092.28-.117.658-.072 1.138h-1.382c-.035-.64.019-1.174.159-1.604.142-.432.355-.776.639-1.04a2.328 2.328 0 0 1 1.029-.546 5.267 5.267 0 0 1 1.294-.152c.469 0 .883.06 1.243.18.358.119.656.28.895.485.239.205.42.446.545.727.123.279.187.574.187.885v.626c0 .222-.029.427-.087.613a1.549 1.549 0 0 1-.259.498 2.01 2.01 0 0 1-.419.394 2.544 2.544 0 0 1-.564.294c.248.07.46.171.638.299.176.13.324.276.445.446.118.169.21.356.272.56.062.203.093.417.093.639v.68c0 .346-.067.66-.199.944a2.176 2.176 0 0 1-.579.747 2.814 2.814 0 0 1-.929.5 4.16 4.16 0 0 1-1.282.179c-.479 0-.92-.054-1.328-.16a2.316 2.316 0 0 1-1.037-.567c-.282-.27-.497-.629-.643-1.078-.147-.449-.197-1.014-.152-1.698h1.38c-.053.515-.033.925.06 1.232.093.306.227.537.405.693.177.155.382.257.61.306.232.05.466.073.705.073.247 0 .473-.036.678-.106ZM120.49 62.871h1.793c.178 0 .349-.025.517-.073.169-.05.32-.129.452-.24.133-.111.239-.25.319-.42.079-.168.12-.364.12-.585v-.866a1.31 1.31 0 0 0-.12-.585 1.232 1.232 0 0 0-.319-.407 1.323 1.323 0 0 0-.452-.247 1.723 1.723 0 0 0-.517-.079h-1.793v3.502Zm1.806-4.648c.416 0 .797.053 1.143.16.345.107.637.265.875.479.24.214.426.47.559.772.134.302.199.658.199 1.066v.853c0 .4-.065.754-.199 1.065a2.065 2.065 0 0 1-.559.773 2.439 2.439 0 0 1-.869.465 3.861 3.861 0 0 1-1.162.161l-1.793.014v3.516h-1.315v-9.324h3.121ZM132.138 60.607a2.1 2.1 0 0 0-.425-.766 1.652 1.652 0 0 0-.678-.459 2.571 2.571 0 0 0-.902-.147c-.337 0-.639.048-.91.147-.27.098-.496.25-.678.46-.181.209-.321.463-.418.765a3.444 3.444 0 0 0-.146 1.052v2.451c0 .417.049.778.146 1.079.097.302.237.553.418.752.182.2.408.349.678.446.271.098.569.147.895.147.346 0 .649-.05.911-.147.261-.097.487-.247.679-.446.189-.199.333-.45.43-.752.097-.301.146-.662.146-1.079v-2.45c0-.4-.049-.75-.146-1.053Zm1.514 3.503c0 .56-.084 1.06-.252 1.499-.168.44-.41.816-.725 1.131-.314.316-.685.56-1.115.734-.429.173-.91.259-1.442.259-.53 0-1.011-.086-1.44-.259a3.157 3.157 0 0 1-1.82-1.866c-.164-.438-.245-.938-.245-1.498v-2.45c0-.552.081-1.049.245-1.493.164-.443.399-.823.704-1.138.306-.317.678-.56 1.116-.734a3.934 3.934 0 0 1 1.455-.258c.521 0 .999.085 1.434.258a3.22 3.22 0 0 1 1.116.734c.31.315.549.695.717 1.138.168.444.252.941.252 1.492v2.451ZM136.387 58.223l1.607 3.97h.904v-3.97h1.327v3.97h.903l1.582-3.97h1.581l-2.02 4.529 2.218 4.795h-1.594l-1.767-4.197h-.903v4.197h-1.327V63.35h-.904l-1.765 4.197h-1.595l2.218-4.795-2.033-4.53h1.568ZM148.022 61.399a58.366 58.366 0 0 1-.106 1.858 26 26 0 0 1-.18 1.672c-.075.528-.152 1.02-.232 1.471h3.227v-7.03h-2.669c0 .7-.013 1.377-.04 2.029Zm4.025-3.176V66.4h.849v2.998h-1.235v-1.851h-5.1v1.851h-1.236V66.4h.851c.105-.54.195-1.121.265-1.743.072-.622.129-1.27.172-1.946.045-.674.077-1.387.094-2.137.018-.75.027-1.535.027-2.351h5.313ZM159.525 58.223v1.145h-3.933v2.824h3.52v1.158h-3.52v3.05h3.933v1.147h-5.247v-9.324h5.247ZM162.646 58.223v3.97h3.532v-3.97h1.329v9.324h-1.329V63.35h-3.532v4.197h-1.316v-9.324h1.316ZM175.807 67.547h-1.328v-6.795h-.026l-3.44 6.795h-1.514v-9.324h1.314v6.806h.015l3.465-6.806h1.514v9.324ZM182.169 59.37h-1.9c-.176 0-.347.025-.511.079a1.193 1.193 0 0 0-.73.653c-.076.16-.113.35-.113.572v1c0 .248.039.457.118.632.082.173.186.308.313.405.128.098.273.167.432.206.16.041.319.06.478.06h1.913v-3.608Zm1.314-1.147v9.324h-1.314V64.15l-1.555-.013-1.381 3.41h-1.553l1.553-3.57c-.265-.08-.5-.182-.704-.305a2.074 2.074 0 0 1-.532-.468 1.976 1.976 0 0 1-.337-.62 2.381 2.381 0 0 1-.113-.752v-1.318c0-.347.058-.663.172-.946.115-.285.284-.524.504-.72.222-.195.49-.348.805-.458a3.217 3.217 0 0 1 1.082-.167h3.373ZM50.49 76.977c.063-.55.03-.985-.092-1.305-.125-.32-.289-.562-.492-.726a1.497 1.497 0 0 0-.69-.313 4.37 4.37 0 0 0-.73-.066c-.32 0-.615.053-.885.16a1.72 1.72 0 0 0-.676.472c-.183.21-.323.469-.425.78a3.387 3.387 0 0 0-.154 1.065v2.345c0 .398.051.754.154 1.065.102.311.242.569.425.772.18.205.407.362.676.474.27.11.57.165.897.165.222 0 .462-.022.725-.065.26-.045.49-.15.69-.314.2-.164.36-.407.485-.725.123-.321.155-.756.092-1.306h1.396c.043.719-.02 1.31-.193 1.77-.174.464-.414.83-.724 1.1-.31.271-.68.463-1.11.573-.43.11-.883.168-1.36.168-.593 0-1.106-.09-1.535-.268a2.994 2.994 0 0 1-1.082-.745 3.092 3.092 0 0 1-.657-1.153 4.852 4.852 0 0 1-.22-1.51v-2.346c0-.55.074-1.052.22-1.505a3.15 3.15 0 0 1 .65-1.158c.288-.32.651-.569 1.089-.746.439-.179.946-.267 1.521-.267.478 0 .932.054 1.36.16.43.107.802.297 1.118.572.313.276.556.644.73 1.106.172.462.236 1.052.193 1.771H50.49ZM59.032 73.555V74.7h-2.658v8.178h-1.327V74.7h-2.67v-1.145h6.655ZM65.592 73.555V74.7H61.66v2.823h3.52v1.16h-3.52v3.05h3.932v1.145h-5.246v-9.323h5.246ZM73.64 73.555v9.323h-1.328V74.7h-2.617c-.017.746-.037 1.443-.059 2.091-.023.648-.05 1.248-.08 1.799-.03.55-.07 1.046-.118 1.49-.05.445-.092.836-.128 1.173a2.741 2.741 0 0 1-.224.8 2.128 2.128 0 0 1-.373.552 1.416 1.416 0 0 1-.465.327 1.283 1.283 0 0 1-.504.106 6.93 6.93 0 0 1-.313-.006 1.89 1.89 0 0 1-.265-.033 1.086 1.086 0 0 1-.232-.075.787.787 0 0 1-.187-.111v-1.16c.088.063.178.112.267.147a.786.786 0 0 0 .504.02.544.544 0 0 0 .211-.115.657.657 0 0 0 .167-.24 1.92 1.92 0 0 0 .126-.412c.054-.408.1-.872.14-1.39.04-.52.07-1.093.093-1.72l.073-2.038c.027-.733.04-1.516.04-2.35h5.273ZM81.821 73.555v9.323h-1.327V74.7h-2.617c-.019.746-.039 1.443-.06 2.091-.022.648-.048 1.248-.079 1.799-.032.55-.072 1.046-.12 1.49-.048.445-.091.836-.126 1.173a2.74 2.74 0 0 1-.226.8c-.106.222-.23.405-.371.552a1.421 1.421 0 0 1-.467.327 1.283 1.283 0 0 1-.504.106c-.114 0-.219-.002-.311-.006a1.892 1.892 0 0 1-.266-.033 1.099 1.099 0 0 1-.233-.075.777.777 0 0 1-.185-.111v-1.16c.088.063.177.112.265.147a.795.795 0 0 0 .293.053.812.812 0 0 0 .211-.033.55.55 0 0 0 .213-.115.675.675 0 0 0 .167-.24c.047-.106.09-.243.124-.412.054-.408.102-.872.14-1.39.041-.52.072-1.093.094-1.72.021-.626.046-1.305.072-2.038.028-.733.04-1.516.04-2.35h5.273ZM88.98 73.555V74.7h-3.933v2.823h3.521v1.16h-3.52v3.05h3.932v1.145h-5.247v-9.323h5.247ZM92.075 78.204h1.792c.178 0 .35-.025.519-.075a1.214 1.214 0 0 0 .77-.658c.079-.168.12-.365.12-.587v-.866c0-.23-.041-.426-.12-.585a1.27 1.27 0 0 0-.77-.653 1.687 1.687 0 0 0-.519-.08h-1.792v3.504Zm1.807-4.649c.415 0 .795.052 1.141.159.345.107.638.267.877.48.239.214.426.47.558.772.133.302.2.657.2 1.067v.851c0 .4-.067.756-.2 1.067-.132.31-.319.568-.558.771-.24.205-.529.36-.87.467-.34.106-.728.16-1.163.16l-1.792.013v3.516H90.76v-9.323h3.12ZM103.49 75.938a2.122 2.122 0 0 0-.424-.764 1.668 1.668 0 0 0-.678-.46 2.612 2.612 0 0 0-.903-.147c-.337 0-.64.049-.91.146a1.602 1.602 0 0 0-.678.46 2.134 2.134 0 0 0-.417.765 3.408 3.408 0 0 0-.146 1.054v2.45c0 .418.047.777.146 1.08.096.301.236.551.417.752.183.199.407.347.678.446.27.097.57.147.896.147.346 0 .649-.05.911-.147.261-.099.485-.247.677-.446.189-.2.333-.45.431-.753.097-.302.147-.661.147-1.08v-2.45c0-.399-.05-.75-.147-1.053Zm1.514 3.504c0 .559-.084 1.059-.252 1.5-.169.438-.41.816-.724 1.131-.314.314-.687.56-1.116.732-.429.173-.91.259-1.441.259a3.827 3.827 0 0 1-1.441-.259 3.25 3.25 0 0 1-1.108-.732 3.176 3.176 0 0 1-.711-1.132 4.282 4.282 0 0 1-.245-1.5v-2.45c0-.55.081-1.048.245-1.492.163-.443.398-.823.704-1.139.305-.315.678-.56 1.115-.732.439-.173.923-.26 1.455-.26.522 0 1 .087 1.433.26.435.173.807.417 1.117.732.31.316.548.696.717 1.14.168.443.252.941.252 1.492v2.45ZM108.053 81.733h1.938c.213 0 .399-.025.558-.074.159-.048.298-.124.419-.227.119-.1.208-.22.272-.359.061-.138.093-.303.093-.498v-.76c0-.205-.035-.38-.106-.526a.915.915 0 0 0-.293-.353 1.23 1.23 0 0 0-.426-.193c-.157-.041-.33-.06-.517-.06h-1.938v3.05Zm0-4.21 1.899.015c.186 0 .351-.025.497-.074.146-.05.271-.12.372-.214a.926.926 0 0 0 .234-.338c.052-.134.079-.285.079-.454v-.799c0-.16-.027-.3-.079-.42a.724.724 0 0 0-.234-.292 1.212 1.212 0 0 0-.357-.181 1.571 1.571 0 0 0-.473-.066h-1.938v2.823Zm1.992-3.97c.398 0 .75.05 1.056.148.304.097.562.232.769.4.209.17.368.368.479.6.111.23.166.483.166.76v.85c0 .214-.029.409-.087.586a1.635 1.635 0 0 1-.239.48 1.53 1.53 0 0 1-.384.373c-.156.106-.334.21-.539.307a1.83 1.83 0 0 1 1.056.686 1.84 1.84 0 0 1 .379 1.152v.972c0 .293-.058.564-.173.812-.116.25-.287.462-.511.64a2.45 2.45 0 0 1-.83.412 3.975 3.975 0 0 1-1.142.147h-3.334v-9.324h3.334ZM119.952 75.938a2.108 2.108 0 0 0-.424-.764 1.662 1.662 0 0 0-.678-.46 2.612 2.612 0 0 0-.903-.147c-.336 0-.64.049-.91.146a1.617 1.617 0 0 0-.678.46c-.18.209-.32.465-.417.765a3.453 3.453 0 0 0-.147 1.054v2.45c0 .418.05.777.147 1.08.097.301.237.551.417.752.183.199.409.347.678.446.27.097.57.147.896.147.346 0 .649-.05.911-.147.261-.099.487-.247.677-.446.191-.2.334-.45.431-.753.097-.302.147-.661.147-1.08v-2.45c0-.399-.05-.75-.147-1.053Zm1.514 3.504c0 .559-.084 1.059-.252 1.5-.169.438-.41.816-.724 1.131-.315.314-.685.56-1.116.732-.429.173-.91.259-1.441.259a3.827 3.827 0 0 1-1.441-.259 3.254 3.254 0 0 1-1.108-.732 3.167 3.167 0 0 1-.711-1.132 4.276 4.276 0 0 1-.245-1.5v-2.45c0-.55.081-1.048.245-1.492a3.2 3.2 0 0 1 .704-1.139c.305-.315.678-.56 1.115-.732.439-.173.925-.26 1.455-.26.522 0 1 .087 1.434.26.434.173.806.417 1.116.732.31.316.548.696.717 1.14.168.443.252.941.252 1.492v2.45ZM128.32 71.764a2.088 2.088 0 0 1-.504.645 1.9 1.9 0 0 1-.697.38 2.87 2.87 0 0 1-1.588 0 1.905 1.905 0 0 1-1.203-1.02 2.08 2.08 0 0 1-.184-.905h1.048c0 .186.03.35.093.493.062.142.149.26.259.353a1.21 1.21 0 0 0 1.189.214c.134-.05.251-.121.358-.214.106-.093.193-.21.26-.353.066-.143.1-.307.1-.493h1.062c0 .346-.066.645-.193.9Zm1.175 11.114h-1.329v-6.793h-.026l-3.439 6.793h-1.514v-9.323h1.315v6.806h.013l3.466-6.806h1.514v9.323ZM136.47 73.555v3.968h.784l2.217-3.968h1.621l-2.735 4.53 2.948 4.793h-1.673l-2.378-4.195h-.784v4.195h-1.314v-9.323h1.314ZM147.635 75.938a2.095 2.095 0 0 0-.425-.764 1.662 1.662 0 0 0-.676-.46 2.626 2.626 0 0 0-.904-.147c-.336 0-.639.049-.91.146-.27.098-.496.252-.678.46a2.19 2.19 0 0 0-.418.765 3.454 3.454 0 0 0-.146 1.054v2.45c0 .418.049.777.146 1.08.098.301.238.551.418.752.182.199.408.347.678.446.271.097.569.147.897.147.344 0 .647-.05.91-.147.26-.099.486-.247.678-.446.189-.2.333-.45.43-.753.097-.302.146-.661.146-1.08v-2.45c0-.399-.049-.75-.146-1.053Zm1.514 3.504c0 .559-.084 1.059-.252 1.5a3.198 3.198 0 0 1-1.84 1.863 3.822 3.822 0 0 1-1.44.259 3.832 3.832 0 0 1-1.442-.259 3.244 3.244 0 0 1-1.108-.732 3.197 3.197 0 0 1-.712-1.132 4.276 4.276 0 0 1-.245-1.5v-2.45c0-.55.081-1.048.245-1.492.165-.443.399-.823.704-1.139.306-.315.678-.56 1.116-.732.439-.173.924-.26 1.455-.26.521 0 .999.087 1.434.26.433.173.806.417 1.116.732.31.316.549.696.717 1.14.168.443.252.941.252 1.492v2.45ZM152.249 78.204h1.792c.178 0 .351-.025.519-.075a1.22 1.22 0 0 0 .77-.658c.08-.168.119-.365.119-.587v-.866c0-.23-.039-.426-.119-.585a1.26 1.26 0 0 0-.77-.653 1.69 1.69 0 0 0-.519-.08h-1.792v3.504Zm1.806-4.649c.416 0 .797.052 1.142.159.346.107.638.267.877.48.239.214.426.47.558.772.133.302.2.657.2 1.067v.851c0 .4-.067.756-.2 1.067-.132.31-.319.568-.558.771-.239.205-.529.36-.87.467-.34.106-.728.16-1.163.16l-1.792.013v3.516h-1.314v-9.323h3.12ZM163.742 75.938a2.154 2.154 0 0 0-.425-.764 1.668 1.668 0 0 0-.678-.46 2.622 2.622 0 0 0-.904-.147c-.336 0-.639.049-.908.146a1.592 1.592 0 0 0-.678.46 2.16 2.16 0 0 0-.419.765 3.456 3.456 0 0 0-.145 1.054v2.45c0 .418.048.777.145 1.08.097.301.238.551.419.752.181.199.407.347.678.446.269.097.568.147.895.147.345 0 .649-.05.91-.147a1.81 1.81 0 0 0 .678-.446c.19-.2.333-.45.432-.753.095-.302.145-.661.145-1.08v-2.45c0-.399-.05-.75-.145-1.053Zm1.514 3.504c0 .559-.084 1.059-.252 1.5-.17.438-.412.816-.725 1.131-.314.314-.686.56-1.117.732a3.81 3.81 0 0 1-1.44.259c-.53 0-1.011-.086-1.44-.259-.43-.173-.8-.418-1.11-.732a3.178 3.178 0 0 1-.71-1.132 4.275 4.275 0 0 1-.246-1.5v-2.45c0-.55.082-1.048.246-1.492.164-.443.399-.823.704-1.139.306-.315.677-.56 1.116-.732.437-.173.923-.26 1.453-.26.523 0 1.001.087 1.435.26.434.173.805.417 1.115.732.31.316.549.696.719 1.14.168.443.252.941.252 1.492v2.45ZM168.536 81.733h1.94c.211 0 .398-.025.557-.074a1.12 1.12 0 0 0 .692-.586c.06-.138.092-.303.092-.498v-.76c0-.205-.036-.38-.107-.526a.91.91 0 0 0-.291-.353 1.246 1.246 0 0 0-.426-.193c-.16-.041-.332-.06-.517-.06h-1.94v3.05Zm0-4.21 1.9.015c.184 0 .351-.025.497-.074a.933.933 0 0 0 .605-.552c.053-.134.079-.285.079-.454v-.799c0-.16-.026-.3-.079-.42a.728.728 0 0 0-.232-.292 1.23 1.23 0 0 0-.36-.181 1.55 1.55 0 0 0-.47-.066h-1.94v2.823Zm1.992-3.97c.4 0 .752.05 1.057.148.305.097.561.232.77.4.208.17.366.368.478.6.11.23.165.483.165.76v.85c0 .214-.027.409-.085.586a1.74 1.74 0 0 1-.239.48 1.539 1.539 0 0 1-.386.373c-.155.106-.335.21-.537.307a1.832 1.832 0 0 1 1.054.686 1.818 1.818 0 0 1 .38 1.152v.972c0 .293-.058.564-.172.812-.116.25-.287.462-.512.64a2.45 2.45 0 0 1-.83.412 3.982 3.982 0 0 1-1.143.147h-3.333v-9.324h3.333ZM182.958 82.878h-1.327v-9.323h1.327v9.323Zm-4.887-1.145c.177 0 .352-.028.525-.08.172-.054.324-.135.452-.247.129-.11.232-.249.311-.413.08-.164.12-.357.12-.58v-.865c0-.221-.04-.416-.12-.585a1.167 1.167 0 0 0-.763-.661 1.956 1.956 0 0 0-.525-.072h-1.753v3.503h1.753Zm-3.067-8.178h1.314v3.515l1.768.015c.431 0 .82.053 1.16.16.342.105.629.262.864.472.234.209.418.463.552.766.132.302.198.658.198 1.065v.852c0 .4-.066.756-.198 1.067a2.257 2.257 0 0 1-.552.786 2.21 2.21 0 0 1-.877.472 4.086 4.086 0 0 1-1.147.153h-3.082v-9.323ZM46.427 97.066h1.94c.211 0 .397-.027.558-.075.157-.047.297-.124.417-.226.12-.102.21-.221.272-.36.061-.137.093-.303.093-.499v-.759c0-.204-.035-.38-.106-.527a.916.916 0 0 0-.293-.352 1.22 1.22 0 0 0-.424-.193c-.16-.04-.332-.06-.517-.06h-1.94v3.05Zm0-4.21 1.9.013c.185 0 .351-.025.496-.073.146-.049.271-.12.372-.213a.908.908 0 0 0 .234-.339c.052-.133.08-.284.08-.453v-.8c0-.159-.028-.299-.08-.42a.715.715 0 0 0-.234-.293 1.251 1.251 0 0 0-.357-.18 1.557 1.557 0 0 0-.471-.065h-1.94v2.823Zm1.992-3.97c.4 0 .75.05 1.056.147.306.097.562.231.77.4.208.168.367.369.479.6.11.23.165.484.165.758v.853c0 .212-.029.409-.087.586a1.704 1.704 0 0 1-.237.48c-.103.142-.23.267-.386.373a4.022 4.022 0 0 1-.539.305c.25.064.457.154.625.273.168.12.313.259.431.414.12.156.214.329.28.519.065.192.099.402.099.634v.972c0 .293-.057.563-.173.812a1.733 1.733 0 0 1-.51.64 2.466 2.466 0 0 1-.832.412 3.968 3.968 0 0 1-1.141.147h-3.334v-9.325h3.334ZM57.57 93.536h1.792c.178 0 .35-.026.519-.074a1.197 1.197 0 0 0 .77-.66c.079-.168.12-.363.12-.585v-.866a1.3 1.3 0 0 0-.12-.586 1.254 1.254 0 0 0-.32-.407 1.325 1.325 0 0 0-.45-.247 1.734 1.734 0 0 0-.519-.078H57.57v3.503Zm1.805-4.648c.418 0 .797.052 1.144.158.344.108.637.268.876.48.24.213.425.47.558.773.133.302.198.656.198 1.065v.853c0 .4-.065.754-.198 1.065a2.076 2.076 0 0 1-.558.773 2.443 2.443 0 0 1-.87.466c-.34.106-.728.16-1.163.16l-1.792.013v3.517h-1.314v-9.323h3.12ZM67.146 94.908l-1.168-4.423-1.182 4.423h2.35Zm-1.966-6.02h1.593l2.643 9.323H68.01l-.57-2.158h-2.95l-.557 2.158h-1.421l2.669-9.323ZM72.71 88.886 74.73 96.4l2.046-7.513h1.966v9.325h-1.33v-7.5h.014l-1.992 7.5h-1.382l-2.032-7.5h.028v7.5h-1.316v-9.325h1.98ZM82.02 88.886v3.97h.785l2.216-3.97h1.622l-2.737 4.53 2.948 4.795h-1.673l-2.376-4.197h-.784v4.197h-1.316v-9.325h1.316ZM91.98 94.908l-1.168-4.423-1.182 4.423h2.35Zm-1.966-6.02h1.595l2.641 9.323h-1.407l-.57-2.158h-2.95l-.557 2.158h-1.421l2.669-9.323ZM96.68 88.886l1.727 3.17 1.726-3.17h1.421l-2.416 4.583 2.496 4.742h-1.421l-1.806-3.385-1.806 3.385h-1.409l2.498-4.742-2.444-4.583h1.434ZM113.528 98.21H112.2v-6.792h-.027l-3.439 6.793h-1.514v-9.325h1.314v6.806h.013l3.467-6.806h1.514v9.325ZM116.809 88.886v3.97h3.532v-3.97h1.329v9.325h-1.329v-4.197h-3.532v4.197h-1.316v-9.325h1.316ZM129.971 98.21h-1.329v-6.792h-.026l-3.44 6.793h-1.514v-9.325h1.314v6.806h.015l3.465-6.806h1.515v9.325ZM133.238 88.886v8.18h3.519v-8.18h1.329v8.18h.916v2.996h-1.236v-1.851h-5.842v-9.325h1.314ZM146.705 98.21h-1.329v-6.792h-.026l-3.439 6.793h-1.515v-9.325h1.315v6.806h.013l3.467-6.806h1.514v9.325ZM152.628 94.908l-1.168-4.423-1.182 4.423h2.35Zm-1.966-6.02h1.595l2.642 9.323h-1.407l-.571-2.158h-2.949l-.557 2.158h-1.422l2.669-9.323ZM161.327 88.886v1.147h-2.656v8.178h-1.328v-8.178h-2.669v-1.147h6.653ZM168.964 98.21h-1.329v-6.792h-.026l-3.44 6.793h-1.514v-9.325h1.314v6.806h.015l3.466-6.806h1.514v9.325ZM172.245 97.066h1.94c.211 0 .398-.027.557-.075.16-.047.299-.124.418-.226.12-.102.21-.221.272-.36.062-.137.093-.303.093-.499v-.759c0-.204-.035-.38-.106-.527a.913.913 0 0 0-.293-.352 1.22 1.22 0 0 0-.424-.193c-.16-.04-.332-.06-.517-.06h-1.94v3.05Zm0-4.21 1.899.013c.185 0 .352-.025.498-.073a.933.933 0 0 0 .605-.552c.052-.133.079-.284.079-.453v-.8c0-.159-.027-.299-.079-.42a.732.732 0 0 0-.232-.293 1.262 1.262 0 0 0-.36-.18 1.55 1.55 0 0 0-.47-.065h-1.94v2.823Zm1.992-3.97c.4 0 .75.05 1.056.147.306.097.562.231.769.4.21.168.368.369.48.6.11.23.165.484.165.758v.853a1.76 1.76 0 0 1-.324 1.065 1.556 1.556 0 0 1-.386.374 4.14 4.14 0 0 1-.537.305c.247.064.455.154.624.273.168.12.312.259.43.414a1.82 1.82 0 0 1 .38 1.153v.972c0 .293-.058.563-.172.812a1.75 1.75 0 0 1-.512.64 2.475 2.475 0 0 1-.83.412 3.982 3.982 0 0 1-1.143.147h-3.333v-9.325h3.333ZM50.49 107.642c.063-.55.03-.986-.092-1.306-.125-.32-.289-.561-.492-.725a1.482 1.482 0 0 0-.69-.314 4.435 4.435 0 0 0-.73-.067c-.32 0-.615.054-.885.16a1.73 1.73 0 0 0-.676.474 2.204 2.204 0 0 0-.425.779 3.39 3.39 0 0 0-.154 1.065v2.345c0 .4.051.754.154 1.065.102.311.242.57.425.773.18.203.407.362.676.472.27.112.57.167.897.167.222 0 .462-.023.725-.066.26-.045.49-.15.69-.314.2-.164.36-.406.485-.725.123-.32.155-.755.092-1.307h1.396c.043.721-.02 1.311-.193 1.773-.174.462-.414.828-.724 1.099s-.68.462-1.11.572a5.41 5.41 0 0 1-1.36.167c-.593 0-1.106-.088-1.535-.266a3.003 3.003 0 0 1-1.082-.747 3.074 3.074 0 0 1-.657-1.152 4.85 4.85 0 0 1-.22-1.511v-2.345c0-.55.074-1.052.22-1.504.145-.454.362-.84.65-1.16a2.918 2.918 0 0 1 1.089-.745c.439-.177.946-.266 1.521-.266.478 0 .932.052 1.36.16.43.106.802.296 1.118.572.313.275.556.644.73 1.105.172.462.236 1.053.193 1.772H50.49ZM58.938 104.219v1.145h-3.933v2.825h3.521v1.158h-3.52v3.05h3.932v1.145H53.69v-9.323h5.247ZM62.032 108.867h1.792c.178 0 .35-.023.519-.072a1.23 1.23 0 0 0 .77-.66c.079-.169.12-.365.12-.586v-.866c0-.231-.041-.425-.12-.587a1.236 1.236 0 0 0-.32-.405 1.337 1.337 0 0 0-.45-.247 1.682 1.682 0 0 0-.519-.08h-1.792v3.503Zm1.807-4.648c.415 0 .795.052 1.141.158.345.108.638.268.877.481.239.214.424.471.558.772.133.302.2.658.2 1.066v.853c0 .4-.067.755-.2 1.065a2.057 2.057 0 0 1-.558.772c-.24.205-.53.36-.87.466-.341.107-.728.16-1.163.16l-1.792.015v3.516h-1.314v-9.324h3.12ZM73.616 104.219v1.145h-4.131v8.178h-1.314v-9.323h5.445ZM79.842 104.219v1.145h-3.93v2.825h3.519v1.158h-3.52v3.05h3.931v1.145h-5.246v-9.323h5.246ZM85.735 105.364h-1.898c-.177 0-.348.026-.512.08a1.212 1.212 0 0 0-.731.652c-.074.16-.112.352-.112.574v.999c0 .248.04.459.119.632.08.173.184.309.313.406.127.098.272.168.431.207.16.04.318.059.479.059h1.91v-3.609Zm1.315-1.145v9.324h-1.315v-3.397l-1.553-.013-1.383 3.41h-1.553l1.553-3.57a3.04 3.04 0 0 1-.702-.307 2.047 2.047 0 0 1-.532-.466 1.92 1.92 0 0 1-.338-.619 2.374 2.374 0 0 1-.113-.753v-1.318c0-.347.057-.662.173-.945.114-.285.282-.525.504-.72.222-.196.49-.348.803-.46a3.252 3.252 0 0 1 1.083-.166h3.373ZM94.26 112.397h1.938c.213 0 .399-.024.558-.073.16-.049.299-.125.419-.227.119-.101.208-.222.272-.36a1.23 1.23 0 0 0 .093-.498v-.76c0-.204-.035-.38-.107-.526a.9.9 0 0 0-.292-.353 1.267 1.267 0 0 0-.425-.194 2.155 2.155 0 0 0-.518-.059H94.26v3.05Zm0-4.21 1.9.015c.185 0 .35-.025.496-.074.146-.05.271-.119.372-.212a.95.95 0 0 0 .234-.34c.052-.134.078-.285.078-.454v-.799c0-.16-.026-.299-.078-.42a.737.737 0 0 0-.234-.292 1.24 1.24 0 0 0-.357-.18 1.523 1.523 0 0 0-.473-.066H94.26v2.822Zm1.992-3.969c.398 0 .75.05 1.056.146a2.4 2.4 0 0 1 .77.4c.208.17.367.369.478.601.11.23.166.483.166.759v.851c0 .214-.029.409-.087.587a1.753 1.753 0 0 1-.239.48c-.101.142-.23.266-.384.372a4.072 4.072 0 0 1-.539.307c.248.062.457.152.625.273.168.12.311.257.431.412.12.156.214.329.279.521.066.19.1.401.1.632v.972c0 .293-.058.565-.173.813a1.741 1.741 0 0 1-.511.638 2.437 2.437 0 0 1-.83.414 3.999 3.999 0 0 1-1.142.146h-3.334v-9.324h3.334ZM107.036 113.542h-1.329v-6.793h-.026l-3.439 6.793h-1.514v-9.323h1.314v6.806h.013l3.467-6.806h1.514v9.323ZM110.29 104.219v3.97h.784l2.217-3.97h1.621l-2.737 4.529 2.95 4.794h-1.675l-2.376-4.195h-.784v4.195h-1.315v-9.323h1.315ZM122.655 104.219v1.145h-2.656v8.178h-1.329v-8.178H116v-1.145h6.655ZM128.879 106.603a2.093 2.093 0 0 0-.424-.765 1.667 1.667 0 0 0-.679-.461 2.613 2.613 0 0 0-.902-.147c-.336 0-.641.05-.91.147-.27.099-.496.251-.678.461-.181.207-.32.463-.417.765a3.418 3.418 0 0 0-.147 1.052v2.45c0 .419.049.778.147 1.08.097.302.236.552.417.753.182.199.408.348.678.446.269.097.569.146.895.146.347 0 .649-.049.912-.146.26-.098.487-.247.676-.446.192-.201.335-.451.432-.753.097-.302.146-.661.146-1.08v-2.45a3.45 3.45 0 0 0-.146-1.052Zm1.514 3.502c0 .56-.084 1.06-.252 1.5-.169.439-.41.816-.724 1.132a3.3 3.3 0 0 1-1.116.732c-.429.173-.91.26-1.442.26-.53 0-1.011-.087-1.44-.26a3.228 3.228 0 0 1-1.108-.732 3.216 3.216 0 0 1-.712-1.132 4.298 4.298 0 0 1-.245-1.5v-2.45c0-.55.082-1.049.245-1.492a3.23 3.23 0 0 1 .705-1.138c.305-.316.678-.56 1.115-.733a3.933 3.933 0 0 1 1.455-.261c.521 0 1 .088 1.434.261.433.173.806.417 1.116.733.31.314.548.695.717 1.138.168.443.252.942.252 1.492v2.45ZM133.647 108.867h1.792c.179 0 .351-.023.519-.072.168-.05.319-.13.452-.242.132-.11.238-.249.317-.418.08-.169.121-.365.121-.586v-.866a1.31 1.31 0 0 0-.121-.587 1.24 1.24 0 0 0-.317-.405 1.354 1.354 0 0 0-.452-.247 1.68 1.68 0 0 0-.519-.08h-1.792v3.503Zm1.807-4.648c.416 0 .795.052 1.142.158.344.108.637.268.876.481.239.214.426.471.558.772.133.302.2.658.2 1.066v.853c0 .4-.067.755-.2 1.065a2.044 2.044 0 0 1-.558.772c-.239.205-.529.36-.869.466-.341.107-.729.16-1.164.16l-1.792.015v3.516h-1.314v-9.324h3.121ZM145.218 106.603a2.14 2.14 0 0 0-.425-.765 1.67 1.67 0 0 0-.678-.461 2.617 2.617 0 0 0-.904-.147c-.336 0-.639.05-.908.147a1.6 1.6 0 0 0-.678.461 2.128 2.128 0 0 0-.418.765 3.42 3.42 0 0 0-.146 1.052v2.45c0 .419.048.778.146 1.08.096.302.237.552.418.753.181.199.407.348.678.446.269.097.568.146.895.146.346 0 .649-.049.91-.146.262-.098.487-.247.678-.446.19-.201.333-.451.432-.753.097-.302.146-.661.146-1.08v-2.45a3.45 3.45 0 0 0-.146-1.052Zm1.514 3.502c0 .56-.084 1.06-.252 1.5-.17.439-.41.816-.725 1.132a3.295 3.295 0 0 1-1.115.732c-.429.173-.91.26-1.442.26-.53 0-1.011-.087-1.44-.26a3.218 3.218 0 0 1-1.108-.732 3.188 3.188 0 0 1-.712-1.132c-.164-.44-.245-.94-.245-1.5v-2.45c0-.55.081-1.049.245-1.492.164-.443.399-.824.704-1.138a3.13 3.13 0 0 1 1.116-.733 3.926 3.926 0 0 1 1.453-.261c.523 0 1.001.088 1.435.261.434.173.807.417 1.117.733.308.314.547.695.717 1.138.168.443.252.942.252 1.492v2.45ZM149.78 112.397h1.94c.213 0 .398-.024.558-.073.159-.049.298-.125.418-.227a1.04 1.04 0 0 0 .273-.36c.061-.138.092-.304.092-.498v-.76c0-.204-.034-.38-.107-.526a.895.895 0 0 0-.291-.353 1.275 1.275 0 0 0-.426-.194 2.17 2.17 0 0 0-.517-.059h-1.94v3.05Zm0-4.21 1.901.015c.184 0 .35-.025.497-.074.146-.05.269-.119.372-.212a.932.932 0 0 0 .232-.34c.053-.134.081-.285.081-.454v-.799c0-.16-.028-.299-.081-.42a.724.724 0 0 0-.232-.292 1.266 1.266 0 0 0-.358-.18 1.53 1.53 0 0 0-.472-.066h-1.94v2.822Zm1.992-3.969c.4 0 .752.05 1.058.146.304.099.562.233.769.4.209.17.366.369.478.601.11.23.167.483.167.759v.851c0 .214-.029.409-.087.587a1.564 1.564 0 0 1-.623.852 4.124 4.124 0 0 1-.539.307 1.815 1.815 0 0 1 1.055.685c.12.156.213.329.279.521.067.19.1.401.1.632v.972c0 .293-.058.565-.172.813a1.74 1.74 0 0 1-.512.638 2.438 2.438 0 0 1-.83.414 3.997 3.997 0 0 1-1.143.146h-3.333v-9.324h3.333ZM162.557 113.542h-1.328v-6.793h-.026l-3.44 6.793h-1.514v-9.323h1.314v6.806h.013l3.467-6.806h1.514v9.323ZM165.571 104.219v3.57c0 .238.036.436.107.592.07.155.17.281.299.379.127.099.281.167.457.206.179.041.364.061.558.061.134 0 .274-.009.426-.026.149-.019.303-.036.458-.054a15.873 15.873 0 0 0 .923-.133v-4.595h1.316v9.323h-1.316v-3.608a9.385 9.385 0 0 1-.511.086c-.173.021-.341.043-.505.066-.163.022-.33.043-.498.06a4.886 4.886 0 0 1-.491.026 4.37 4.37 0 0 1-1.017-.113 2.054 2.054 0 0 1-.818-.387 1.908 1.908 0 0 1-.55-.732c-.136-.305-.206-.695-.206-1.165v-3.556h1.368ZM176.05 110.239l-1.168-4.422-1.182 4.422h2.35Zm-1.966-6.02h1.594l2.642 9.324h-1.406l-.571-2.158h-2.949l-.558 2.158h-1.421l2.669-9.324ZM186.608 112.397c.178 0 .351-.022.519-.067a1.256 1.256 0 0 0 .784-.632 1.24 1.24 0 0 0 .119-.565v-.974c0-.266-.045-.479-.134-.639a1.147 1.147 0 0 0-.332-.385 1.063 1.063 0 0 0-.45-.194 2.725 2.725 0 0 0-.506-.048h-1.807v3.504h1.807Zm-3.121-8.179h5.445v1.147h-4.131v2.37l2.007.013c.38 0 .73.051 1.049.153.319.103.593.25.823.44.23.191.409.425.532.699.124.275.185.596.185.959v1.279c0 .365-.061.686-.185.966a2.03 2.03 0 0 1-.532.719 2.15 2.15 0 0 1-.817.439c-.314.095-.665.14-1.055.14h-3.321v-9.324ZM194.909 110.239l-1.167-4.422-1.183 4.422h2.35Zm-1.966-6.02h1.594l2.644 9.324h-1.408l-.571-2.158h-2.948l-.558 2.158h-1.422l2.669-9.324ZM198.808 104.219v3.57c0 .238.035.436.106.592a.974.974 0 0 0 .298.379c.129.099.281.167.458.206.178.041.364.061.558.061.133 0 .275-.009.426-.026.151-.019.303-.036.458-.054a15.015 15.015 0 0 0 .923-.133v-4.595h1.315v9.323h-1.315v-3.608a9.26 9.26 0 0 1-.512.086c-.172.021-.34.043-.504.066-.164.022-.33.043-.498.06a4.886 4.886 0 0 1-.491.026c-.364 0-.702-.038-1.016-.113a2.05 2.05 0 0 1-.817-.387 1.882 1.882 0 0 1-.552-.732c-.136-.305-.205-.695-.205-1.165v-3.556h1.368ZM211.625 113.542h-1.329v-6.793h-.026l-3.44 6.793h-1.514v-9.323h1.315v6.806h.013l3.467-6.806h1.514v9.323ZM214.905 104.219v3.97h3.533v-3.97h1.328v9.323h-1.328v-4.195h-3.533v4.195h-1.315v-9.323h1.315ZM225.73 110.239l-1.17-4.422-1.182 4.422h2.352Zm-1.966-6.02h1.593l2.643 9.324h-1.407l-.572-2.158h-2.949l-.557 2.158h-1.42l2.669-9.324Z"/><path fill="#2862DB" d="M27.133 1.12c-10.09 0-14.997 5.881-14.997 16.956v19.008c0 11.213-4.092 18.05-12.136 19.963v.57c8.044 1.913 12.136 8.75 12.136 19.963v19.006c0 11.077 4.907 16.956 14.997 16.956h2.455V1.121h-2.455Z"/></svg>