<svg xmlns="http://www.w3.org/2000/svg" viewBox="0 0 302 163"><path fill="#1F17FF" d="M39.6 1C25 1 18 9.5 18 25.4v27.3C18 68.8 12.1 78.6.5 81.4v.8C12.1 84.9 18 94.8 18 110.9v27.3c0 15.9 7.1 24.3 21.6 24.3h3.5V1h-3.5Z"/><path d="M70 1.1h7.8l7.8 24.8h-6.4L77.9 21H70l-1.3 4.9h-6.4L70 1.1ZM76.6 16l-2.7-9.7-2.7 9.7h5.4ZM99.8 1.1c1.4 0 2.6.2 3.7.5 1.1.4 2 .9 2.7 1.6.7.7 1.3 1.5 1.6 2.4.4.9.6 2 .6 3.2v1.5c0 .8-.1 1.5-.3 2.2-.2.7-.5 1.3-.9 1.9-.4.6-.8 1.1-1.4 1.5-.6.4-1.2.8-1.9 1.1l4.3 8.8h-7l-3.4-7.7h-3.5v7.7h-6.1V1.1h11.6Zm-5.4 12.2h4.5c.4 0 .8-.1 1.2-.2.4-.1.7-.3 1-.5.3-.2.6-.5.8-1 .2-.4.3-1 .3-1.6V9c0-.5-.1-1-.3-1.4-.2-.4-.4-.7-.7-1-.3-.2-.7-.4-1.1-.6-.4-.1-.8-.2-1.2-.2h-4.5v7.5ZM127.9 10.5c.1-1.1 0-1.9-.2-2.6-.3-.6-.6-1.1-1.1-1.5-.5-.4-1-.5-1.6-.7-.6-.1-1.2-.2-1.8-.2-.8 0-1.5.1-2.2.4-.6.3-1.2.7-1.7 1.2s-.8 1.2-1.1 2c-.3.8-.4 1.8-.4 2.8v2.8c0 1.1.1 2 .4 2.8.3.8.6 1.5 1.1 2 .5.5 1 .9 1.7 1.2.6.2 1.4.4 2.2.4.6 0 1.2-.1 1.8-.2.6-.1 1.2-.4 1.6-.7.4-.3.9-.8 1.1-1.5.3-.6.3-1.5.2-2.6h6.3c.2 1.8 0 3.3-.6 4.6-.6 1.3-1.4 2.3-2.4 3.1-1.1.8-2.3 1.4-3.6 1.7-1.4.4-2.8.5-4.4.5-1.8 0-3.4-.3-4.9-.8-1.5-.5-2.6-1.3-3.6-2.3-1-1-1.7-2.2-2.3-3.6-.5-1.4-.8-3-.8-4.8v-2.6c0-1.8.3-3.4.8-4.8s1.3-2.6 2.2-3.6c1-1 2.2-1.8 3.6-2.3 1.4-.5 3.1-.8 4.9-.8 1.5 0 3 .2 4.3.5 1.4.4 2.6.9 3.7 1.7 1.1.8 1.9 1.8 2.4 3.1.6 1.3.8 2.8.6 4.6h-6.2v.2ZM157.3 1.1V6h-7.6v19.9h-6.1v-20H136V1h21.3v.1ZM166.1 1.1v24.8H160V1.1h6.1ZM186.5 10.5c.1-1.1 0-1.9-.2-2.6-.3-.6-.6-1.1-1.1-1.5-.5-.3-1-.5-1.6-.7-.6-.1-1.2-.2-1.8-.2-.8 0-1.5.1-2.2.4-.6.3-1.2.7-1.7 1.2s-.8 1.2-1.1 2c-.3.8-.4 1.8-.4 2.8v2.8c0 1.1.1 2 .4 2.8.3.8.6 1.5 1.1 2 .5.5 1 .9 1.7 1.2.7.2 1.4.4 2.2.4.6 0 1.2-.1 1.8-.2.6-.1 1.2-.4 1.6-.7.5-.3.9-.8 1.1-1.5.3-.6.3-1.5.2-2.6h6.3c.2 1.8 0 3.3-.6 4.6-.6 1.3-1.4 2.3-2.4 3.1-1.1.8-2.3 1.4-3.7 1.7-1.4.4-2.8.5-4.4.5-1.8 0-3.4-.3-4.9-.8-1.4-.5-2.6-1.3-3.6-2.3-1-1-1.7-2.2-2.3-3.6-.5-1.4-.8-3-.8-4.8v-2.6c0-1.8.3-3.4.8-4.8s1.3-2.6 2.2-3.6c1-1 2.2-1.8 3.6-2.3 1.4-.5 3.1-.8 4.9-.8 1.5 0 3 .2 4.3.5 1.4.4 2.6.9 3.7 1.7 1.1.8 1.9 1.8 2.4 3.1.6 1.3.8 2.8.6 4.6h-6.1v.2ZM78.4 46.8c.1-.8.1-1.4-.1-1.9-.1-.5-.4-.9-.7-1.2-.3-.3-.7-.5-1.2-.6-.5-.1-1.1-.1-1.7-.1-.7 0-1.3 0-1.8.1-.6.1-1.1.2-1.5.5-.4.2-.7.5-1 .8-.3.3-.4.7-.4 1.1v.6c0 .6.2 1.1.6 1.4.4.3 1 .6 1.7.7.7.2 1.5.3 2.4.4.9.1 1.8.2 2.7.4.9.1 1.8.3 2.7.6.9.3 1.7.6 2.4 1.2.7.5 1.3 1.2 1.7 2 .4.8.7 1.8.7 3.1v.5c0 1.1-.3 2.1-.8 3-.5.9-1.2 1.7-2.2 2.4-.9.7-2.1 1.2-3.4 1.5-1.4.4-2.9.5-4.6.5-1.7 0-3.3-.2-4.6-.5-1.4-.4-2.5-.9-3.4-1.7-.9-.8-1.6-1.8-2-3.1-.4-1.2-.5-2.7-.3-4.5h6.1c-.1 1.1-.1 1.9.1 2.6.2.6.5 1.1.9 1.5.4.3.9.6 1.5.7.6.1 1.2.2 1.8.2.7 0 1.3-.1 1.9-.2.6-.1 1.1-.3 1.5-.5.4-.2.8-.5 1-.9.2-.3.4-.7.4-1.2v-.5c0-.7-.2-1.2-.6-1.5-.4-.3-1-.6-1.7-.8-.7-.2-1.5-.3-2.4-.4l-2.7-.3c-.9-.1-1.8-.3-2.7-.5-.9-.2-1.7-.6-2.4-1.1-.7-.5-1.3-1.2-1.7-2-.4-.8-.6-1.9-.6-3.2v-.5c0-1 .3-2 .8-2.9.5-.9 1.2-1.6 2.2-2.3 1-.7 2.1-1.1 3.4-1.5 1.3-.3 2.8-.5 4.3-.5s2.9.2 4.2.5c1.3.3 2.4.9 3.3 1.6.9.7 1.6 1.7 2 2.8.4 1.1.6 2.4.4 3.9h-6.2v-.2ZM95.2 38.6v24.8H89V38.6h6.2ZM111.2 38.6c1.4 0 2.6.2 3.7.5 1.1.4 2 .9 2.7 1.6.7.7 1.3 1.5 1.6 2.4.4.9.6 2 .6 3.2v1.5c0 .8-.1 1.5-.3 2.2-.2.7-.5 1.3-.9 1.9-.4.6-.8 1.1-1.4 1.5-.6.4-1.2.8-1.9 1.1l4.3 8.8h-7l-3.4-7.7h-3.5v7.7h-6.1V38.5h11.6v.1Zm-5.5 12.2h4.5c.4 0 .8-.1 1.2-.2.4-.1.7-.3 1-.5.3-.2.6-.5.8-1 .2-.4.3-1 .3-1.6v-1c0-.5-.1-1-.3-1.4-.2-.4-.4-.7-.7-1-.3-.2-.7-.4-1.1-.6-.4-.1-.8-.2-1.2-.2h-4.5v7.5ZM141.2 38.6v4.9h-11.8v5.1h10.4V53h-10.4v5.6h11.8v4.9h-17.9V38.7h17.9v-.1ZM151.7 38.6l9.2 15.3h.1V38.6h5.5v24.8h-6.4l-9.2-15.3h-.1v15.3h-5.7V38.6h6.6ZM176.999 38.6v24.8h-6.1V38.6h6.1ZM187.499 38.6h7.8l7.8 24.8h-6.4l-1.3-4.9h-7.8l-1.3 4.9h-6.4l7.6-24.8Zm6.6 14.8-2.7-9.7-2.7 9.7h5.4ZM69.2 82.8c.6 0 1.1.1 1.5.2.4.1.8.3 1.1.6.3.2.5.5.7.9.2.3.2.7.2 1.1v1.2c0 .3 0 .6-.1.8-.1.3-.2.5-.3.7-.1.2-.3.4-.6.5-.2.2-.5.3-.8.4.4.1.7.2.9.4l.6.6c.2.2.3.5.4.7.1.3.1.6.1.9v1.4c0 .4-.1.8-.2 1.2-.2.4-.4.7-.7.9-.3.3-.7.5-1.2.6-.5.1-1 .2-1.6.2h-4.8V82.8h4.8Zm-2.8 5.6h2.7c.3 0 .5 0 .7-.1.2-.1.4-.2.5-.3.1-.1.3-.3.3-.5.1-.2.1-.4.1-.6v-1.1c0-.2 0-.4-.1-.6-.1-.2-.2-.3-.3-.4-.1-.1-.3-.2-.5-.3-.2-.1-.4-.1-.7-.1h-2.8v4h.1Zm0 6.1h2.8c.3 0 .6 0 .8-.1l.6-.3c.2-.1.3-.3.4-.5.1-.2.1-.4.1-.7v-1.1c0-.3-.1-.5-.2-.8-.1-.3-.2-.4-.4-.5l-.6-.3c-.2-.1-.5-.1-.7-.1h-2.8v4.4ZM80.5 82.8c.6 0 1.1.1 1.6.2.5.2.8.4 1.2.7.3.3.6.6.7 1 .2.4.2.9.2 1.4V88c0 .4-.1.8-.2 1.1-.1.3-.3.6-.5.9-.2.3-.5.5-.8.7-.3.2-.6.3-1 .4l2.2 5.1h-2.2l-2-4.9h-2.2v4.9h-1.9V82.9h4.9v-.1Zm-3 6.8h2.7c.2 0 .5 0 .7-.1l.6-.3c.2-.1.3-.3.4-.6.1-.2.2-.5.2-.9v-1.4c0-.3-.1-.6-.2-.8-.1-.2-.3-.4-.4-.6-.2-.2-.4-.3-.6-.4-.2-.1-.5-.1-.7-.1h-2.7v5.2ZM88.5 82.8v13.3h-1.9V82.8h1.9ZM93.5 82.8l5 9.8v-9.8h1.8v13.3h-2.2l-5-9.8v9.8h-1.8V82.8h2.2ZM112.9 90c0 1.1 0 2-.1 2.8-.1.8-.4 1.5-.8 2s-.9.9-1.5 1.2c-.6.3-1.5.4-2.4.4-.8 0-1.5-.1-2.1-.4-.6-.3-1.2-.6-1.6-1.1-.5-.5-.8-1-1-1.6-.2-.6-.4-1.4-.4-2.2v-3.4c0-.8.1-1.5.4-2.2.2-.6.6-1.2 1-1.7s1-.8 1.6-1.1c.6-.3 1.3-.4 2.1-.4.6 0 1.2.1 1.8.2.6.2 1.1.4 1.6.8s.9.9 1.1 1.6c.3.7.4 1.5.3 2.6h-2c.1-.8 0-1.5-.1-1.9-.2-.5-.4-.8-.7-1.1-.3-.2-.6-.4-1-.5-.4-.1-.7-.1-1-.1-.5 0-.9.1-1.3.2s-.7.4-1 .7c-.3.3-.5.7-.6 1.1-.1.4-.2 1-.2 1.6v3.4c0 .6.1 1.1.2 1.6.1.4.3.8.6 1.1.3.3.6.5 1 .7.4.1.8.2 1.3.2.3 0 .6 0 1-.1s.6-.2.9-.4c.3-.2.5-.5.7-.9.2-.4.3-.9.3-1.6h-3.5V90h5.4ZM117.4 82.8v13.3h-1.9V82.8h1.9ZM122.4 82.8l5 9.8v-9.8h1.8v13.3H127l-5-9.8v9.8h-1.8V82.8h2.2ZM141.8 90c0 1.1 0 2-.1 2.8-.1.8-.4 1.5-.8 2s-.9.9-1.5 1.2c-.6.3-1.5.4-2.4.4-.8 0-1.5-.1-2.1-.4-.6-.3-1.2-.6-1.6-1.1-.5-.5-.8-1-1-1.6-.2-.6-.4-1.4-.4-2.2v-3.4c0-.8.1-1.5.4-2.2.2-.6.6-1.2 1-1.7s1-.8 1.6-1.1c.6-.3 1.3-.4 2.1-.4.6 0 1.2.1 1.8.2.6.2 1.1.4 1.6.8s.9.9 1.1 1.6c.3.7.4 1.5.3 2.6h-2c.1-.8 0-1.5-.1-1.9-.2-.5-.4-.8-.7-1.1-.3-.2-.6-.4-1-.5-.4-.1-.7-.1-1-.1-.5 0-.9.1-1.3.2s-.7.4-1 .7c-.3.3-.5.7-.6 1.1-.1.4-.2 1-.2 1.6v3.4c0 .6.1 1.1.2 1.6.1.4.3.8.6 1.1.3.3.6.5 1 .7.4.1.8.2 1.3.2.3 0 .6 0 1-.1s.6-.2.9-.4c.3-.2.5-.5.7-.9.2-.4.3-.9.3-1.6h-3.5V90h5.4ZM157.8 82.8v1.6H154v11.7h-1.9V84.4h-3.8v-1.6h9.5ZM161.6 82.8v5.7h5.1v-5.7h1.9v13.3h-1.9v-6h-5.1v6h-1.9V82.8h1.9ZM178.9 82.8v1.6h-5.6v4h5v1.7h-5v4.4h5.6v1.6h-7.5V82.8h7.5ZM193.2 87.1c.1-.6.1-1.2 0-1.6-.1-.4-.3-.7-.5-.9-.2-.2-.5-.3-.8-.4-.3-.1-.7-.1-1-.1-.4 0-.7 0-1 .1-.3.1-.6.2-.8.3-.2.1-.4.3-.6.5-.1.2-.2.5-.2.8v.7c0 .4.1.7.3.9.2.2.5.4.8.5.3.1.7.3 1.1.3.4 0 .9.2 1.3.3.5.1.9.2 1.3.4.4.1.8.4 1.1.6.3.3.6.6.8 1 .2.4.3.9.3 1.5v.6c0 .5-.1 1-.3 1.5-.2.4-.5.8-.9 1.1-.4.3-.9.5-1.5.7-.6.2-1.3.2-2 .2s-1.4-.1-2-.2c-.6-.2-1.1-.4-1.5-.8-.4-.4-.7-.9-.9-1.6-.2-.7-.2-1.5-.2-2.6h2c-.1.8-.1 1.5.1 1.9.1.5.3.8.6 1.1.2.2.5.4.9.5.4.1.7.1 1.1.1.4 0 .7 0 1.1-.1l.9-.3c.3-.2.5-.3.6-.6.1-.2.2-.5.2-.8v-.6c0-.4-.1-.7-.3-.9-.2-.2-.5-.4-.8-.5-.3-.1-.7-.3-1.1-.4-.4-.1-.9-.2-1.3-.3-.4-.1-.9-.2-1.3-.4s-.8-.4-1.1-.6c-.3-.3-.6-.6-.8-1-.2-.4-.3-.9-.3-1.5v-.7c0-.5.1-1 .3-1.4.2-.4.5-.8.9-1.1.4-.3.9-.5 1.5-.7.6-.2 1.2-.2 1.9-.2s1.3.1 1.8.2c.6.2 1 .4 1.4.8.4.4.7.8.9 1.4.2.6.2 1.3.2 2.2h-2.2v.1ZM206.5 82.8v1.6h-3.8v11.7h-1.9V84.4H197v-1.6h9.5ZM215.9 82.8v1.6h-5.6v4h5v1.7h-5v4.4h5.6v1.6h-7.5V82.8h7.5ZM220.3 82.8v11.7h5.9v1.6h-7.8V82.8h1.9ZM230.1 82.8v11.7h5.9v1.6h-7.8V82.8h1.9ZM245.601 82.8v1.6h-5.6v4h5v1.7h-5v4.4h5.6v1.6h-7.5V82.8h7.5ZM253.001 82.8c.6 0 1.1.1 1.6.2.5.2.8.4 1.2.7.3.3.6.6.7 1 .2.4.2.9.2 1.4V88c0 .4-.1.8-.2 1.1-.1.3-.3.6-.5.9-.2.3-.5.5-.8.7-.3.2-.6.3-1 .4l2.2 5.1h-2.2l-2-4.9h-2.2v4.9h-1.9V82.9h4.9v-.1Zm-3 6.8h2.7c.2 0 .5 0 .7-.1l.6-.3c.2-.1.3-.3.4-.6.1-.2.2-.5.2-.9v-1.4c0-.3-.1-.6-.2-.8-.1-.2-.3-.4-.4-.6-.2-.2-.4-.3-.6-.4-.2-.1-.5-.1-.7-.1h-2.7v5.2ZM261.1 82.8l-.8 3.2h-1.6l.8-3.2h1.6ZM270.5 87.1c.1-.6.1-1.2 0-1.6-.1-.4-.3-.7-.5-.9-.2-.2-.5-.3-.8-.4-.3-.1-.7-.1-1-.1-.4 0-.7 0-1 .1-.3.1-.6.2-.8.3-.2.1-.4.3-.6.5-.1.2-.2.5-.2.8v.7c0 .4.1.7.3.9.2.2.5.4.8.5.3.1.7.3 1.1.3.4 0 .9.2 1.3.3.5.1.9.2 1.3.4.4.1.8.4 1.1.6.3.3.6.6.8 1 .2.4.3.9.3 1.5v.6c0 .5-.1 1-.3 1.5-.2.4-.5.8-.9 1.1-.4.3-.9.5-1.5.7-.6.2-1.3.2-2 .2s-1.4-.1-2-.2c-.6-.2-1.1-.4-1.5-.8-.4-.4-.7-.9-.9-1.6-.2-.7-.2-1.5-.2-2.6h2c-.1.8-.1 1.5.1 1.9.1.5.3.8.6 1.1.2.2.5.4.9.5.4.1.7.1 1.1.1.4 0 .7 0 1.1-.1l.9-.3c.3-.2.5-.3.6-.6.1-.2.2-.5.2-.8v-.6c0-.4-.1-.7-.3-.9-.2-.2-.5-.4-.8-.5-.3-.1-.7-.3-1.1-.4-.4-.1-.9-.2-1.3-.3-.4-.1-.9-.2-1.3-.4s-.8-.4-1.1-.6c-.3-.3-.6-.6-.8-1-.2-.4-.3-.9-.3-1.5v-.7c0-.5.1-1 .3-1.4.2-.4.5-.8.9-1.1.4-.3.9-.5 1.5-.7.6-.2 1.2-.2 1.9-.2s1.3.1 1.8.2c.6.2 1 .4 1.4.8.4.4.7.8.9 1.4.2.6.2 1.3.2 2.2h-2.2v.1ZM71.4 109c.1-.6.1-1.2 0-1.6-.1-.4-.3-.7-.5-.9-.2-.2-.5-.3-.8-.4-.3-.1-.7-.1-1-.1-.4 0-.7 0-1 .1-.3.1-.6.2-.8.3-.2.1-.4.3-.6.5-.1.2-.2.5-.2.8v.7c0 .4.1.7.3.9.2.2.5.4.8.5.3.1.7.3 1.1.3.4 0 .9.2 1.3.3.5.1.9.2 1.3.4.4.1.8.4 1.1.6.3.3.6.6.8 1 .2.4.3.9.3 1.5v.6c0 .5-.1 1-.3 1.5-.2.4-.5.8-.9 1.1-.4.3-.9.5-1.5.7-.6.2-1.3.2-2 .2s-1.4-.1-2-.2c-.6-.1-1.1-.4-1.5-.8-.4-.4-.7-.9-.9-1.6-.2-.7-.2-1.5-.2-2.6h2c-.1.8-.1 1.5.1 1.9.1.5.3.8.6 1.1.2.2.5.4.9.5.4.1.7.1 1.1.1.4 0 .7 0 1.1-.1l.9-.3c.3-.2.5-.3.6-.6.1-.2.2-.5.2-.8v-.6c0-.4-.1-.7-.3-.9-.2-.2-.5-.4-.8-.5-.3-.1-.7-.3-1.1-.4-.4-.1-.9-.2-1.3-.3-.4-.1-.9-.2-1.3-.4s-.8-.4-1.1-.6c-.3-.3-.6-.6-.8-1-.2-.4-.3-.9-.3-1.5v-.7c0-.5.1-1 .3-1.4.2-.4.5-.8.9-1.1.4-.3.9-.5 1.5-.7.6-.2 1.2-.2 1.9-.2s1.3.1 1.8.2c.6.2 1 .4 1.4.8.4.4.7.8.9 1.4.2.6.2 1.3.2 2.2h-2.2v.1ZM83.7 104.7v1.6H78v4h5v1.7h-5v4.4h5.6v1.6h-7.5v-13.3h7.6ZM89.1 104.7h2.3l3.8 13.3h-2l-.8-3.1h-4.2l-.8 3.1h-2l3.7-13.3Zm2.8 8.6-1.7-6.3-1.7 6.3h3.4ZM109.6 109.6c.1-.8 0-1.4-.1-1.9-.2-.5-.4-.8-.7-1-.3-.2-.6-.4-1-.4-.4-.1-.7-.1-1-.1-.5 0-.9.1-1.3.2-.4.2-.7.4-1 .7-.3.3-.5.7-.6 1.1-.1.4-.2 1-.2 1.5v3.4c0 .6.1 1.1.2 1.5.1.4.3.8.6 1.1.3.3.6.5 1 .7.4.2.8.2 1.3.2.3 0 .7 0 1-.1.4-.1.7-.2 1-.4.3-.2.5-.6.7-1 .2-.5.2-1.1.1-1.9h2c.1 1 0 1.9-.3 2.5-.2.7-.6 1.2-1 1.6-.4.4-1 .7-1.6.8-.6.1-1.3.2-2 .2-.9 0-1.6-.1-2.2-.4-.6-.3-1.1-.6-1.6-1.1-.4-.5-.7-1-.9-1.6-.2-.6-.3-1.4-.3-2.2v-3.4c0-.8.1-1.5.3-2.2.2-.6.5-1.2.9-1.7s.9-.8 1.6-1.1c.6-.3 1.4-.4 2.2-.4.7 0 1.3.1 2 .2.6.2 1.1.4 1.6.8s.8.9 1 1.6c.2.7.3 1.5.3 2.5h-2v.3ZM124.1 113.1c0 .8-.1 1.5-.4 2.1-.2.6-.6 1.2-1 1.6-.5.5-1 .8-1.6 1-.6.2-1.3.4-2.1.4s-1.5-.1-2.1-.4c-.6-.2-1.1-.6-1.6-1-.4-.5-.8-1-1-1.6-.2-.6-.4-1.3-.4-2.1v-3.5c0-.8.1-1.5.4-2.1.2-.6.6-1.2 1-1.6.4-.5 1-.8 1.6-1 .6-.2 1.3-.4 2.1-.4.7 0 1.4.1 2.1.4.6.2 1.2.6 1.6 1 .4.5.8 1 1 1.6.2.6.4 1.3.4 2.1v3.5Zm-2.2-5c-.1-.4-.3-.8-.6-1.1-.3-.3-.6-.5-1-.7-.4-.1-.8-.2-1.3-.2s-.9.1-1.3.2-.7.4-1 .7c-.3.3-.5.7-.6 1.1-.1.4-.2.9-.2 1.5v3.5c0 .6.1 1.1.2 1.5.1.4.3.8.6 1.1.3.3.6.5 1 .6.4.1.8.2 1.3.2s.9-.1 1.3-.2.7-.4 1-.6c.3-.3.5-.6.6-1.1.1-.4.2-.9.2-1.5v-3.5c0-.6-.1-1.1-.2-1.5ZM127.5 104.7l2 10.6 2.2-10.6h2l2.2 10.6 2-10.6h1.9L137 118h-2.2l-2.2-10.5-2.2 10.5h-2.2l-2.8-13.3h2.1ZM151.5 104.7c.6 0 1.1.1 1.5.2.4.1.8.3 1.1.6.3.2.5.5.7.9.2.3.2.7.2 1.1v1.2c0 .3 0 .6-.1.8-.1.3-.2.5-.3.7-.1.2-.3.4-.6.5-.2.2-.5.3-.8.4.4.1.7.2.9.4l.6.6c.2.2.3.5.4.7.1.3.1.6.1.9v1.4c0 .4-.1.8-.2 1.2-.2.4-.4.7-.7.9-.3.3-.7.5-1.2.6-.5.1-1 .2-1.6.2h-4.8v-13.3h4.8Zm-2.9 5.7h2.7c.3 0 .5 0 .7-.1.2-.1.4-.2.5-.3.1-.1.3-.3.3-.5.1-.2.1-.4.1-.6v-1.1c0-.2 0-.4-.1-.6-.1-.2-.2-.3-.3-.4-.1-.1-.3-.2-.5-.3-.2-.1-.4-.1-.7-.1h-2.8v4h.1Zm0 6h2.8c.3 0 .6 0 .8-.1l.6-.3c.2-.1.3-.3.4-.5.1-.2.1-.4.1-.7v-1.1c0-.3-.1-.5-.2-.8-.1-.3-.2-.4-.4-.5l-.6-.3c-.2-.1-.5-.1-.7-.1h-2.8v4.4ZM160.7 104.7h2.3l3.8 13.3h-2l-.8-3.1h-4.2l-.8 3.1h-2l3.7-13.3Zm2.8 8.6-1.7-6.3-1.7 6.3h3.4ZM175.9 109.6c.1-.8 0-1.4-.1-1.9-.2-.5-.4-.8-.7-1-.3-.2-.6-.4-1-.4-.4-.1-.7-.1-1-.1-.5 0-.9.1-1.3.2-.4.2-.7.4-1 .7-.3.3-.5.7-.6 1.1-.1.4-.2 1-.2 1.5v3.4c0 .6.1 1.1.2 1.5.1.4.3.8.6 1.1.3.3.6.5 1 .7.4.2.8.2 1.3.2.3 0 .7 0 1-.1.4-.1.7-.2 1-.4.3-.2.5-.6.7-1 .2-.5.2-1.1.1-1.9h2c.1 1 0 1.9-.3 2.5-.2.7-.6 1.2-1 1.6-.4.4-1 .7-1.6.8-.6.1-1.3.2-2 .2-.9 0-1.6-.1-2.2-.4-.6-.3-1.1-.6-1.6-1.1-.4-.5-.7-1-.9-1.6-.2-.6-.3-1.4-.3-2.2v-3.4c0-.8.1-1.5.3-2.2.2-.6.5-1.2.9-1.7s.9-.8 1.6-1.1c.6-.3 1.4-.4 2.2-.4.7 0 1.3.1 2 .2.6.2 1.1.4 1.6.8s.8.9 1 1.6c.2.7.3 1.5.3 2.5h-2v.3ZM182.4 104.7v5.7h1.1l3.2-5.7h2.3l-3.9 6.5 4.2 6.9h-2.4l-3.4-6h-1.1v6h-1.9v-13.3h1.9v-.1ZM204.1 104.7v1.6h-5.9v4h5.4v1.7h-5.4v6h-1.9v-13.3h7.8ZM210.9 104.7c.6 0 1.1.1 1.6.2.5.2.8.4 1.2.7.3.3.6.6.7 1 .2.4.2.9.2 1.4v1.9c0 .4-.1.8-.2 1.1-.1.3-.3.6-.5.9-.2.3-.5.5-.8.7-.3.2-.6.3-1 .4l2.2 5.1h-2.2l-2-4.9h-2.2v4.9H206v-13.3h4.9v-.1Zm-2.9 6.8h2.7c.2 0 .5 0 .7-.1l.6-.3c.2-.1.3-.3.4-.6.1-.2.2-.5.2-.9v-1.4c0-.3-.1-.6-.2-.8-.1-.2-.3-.4-.4-.6-.2-.2-.4-.3-.6-.4-.2-.1-.5-.1-.7-.1H208v5.2ZM227 113.1c0 .8-.1 1.5-.4 2.1-.2.6-.6 1.2-1 1.6-.5.5-1 .8-1.6 1-.6.2-1.3.4-2.1.4s-1.5-.1-2.1-.4c-.6-.2-1.1-.6-1.6-1-.4-.5-.8-1-1-1.6-.2-.6-.4-1.3-.4-2.1v-3.5c0-.8.1-1.5.4-2.1.2-.6.6-1.2 1-1.6.4-.5 1-.8 1.6-1 .6-.2 1.3-.4 2.1-.4s1.4.1 2.1.4c.6.2 1.2.6 1.6 1 .4.5.8 1 1 1.6.2.6.4 1.3.4 2.1v3.5Zm-2.1-5c-.1-.4-.3-.8-.6-1.1-.3-.3-.6-.5-1-.7-.4-.1-.8-.2-1.3-.2s-.9.1-1.3.2-.7.4-1 .7c-.3.3-.5.7-.6 1.1-.1.4-.2.9-.2 1.5v3.5c0 .6.1 1.1.2 1.5.1.4.3.8.6 1.1.3.3.6.5 1 .6.4.1.8.2 1.3.2s.9-.1 1.3-.2.7-.4 1-.6c.3-.2.5-.6.6-1.1.1-.4.2-.9.2-1.5v-3.5c0-.6-.1-1.1-.2-1.5ZM232.5 104.7l2.9 10.7 2.9-10.7h2.8V118h-1.9v-10.7l-2.9 10.7h-2l-2.9-10.7V118h-1.9v-13.3h3ZM72 126.6v1.6h-5.6v4h5v1.7h-5v4.4H72v1.6h-7.5v-13.3H72ZM76.1 126.6l2.5 4.5 2.5-4.5h2l-3.5 6.6 3.6 6.8h-2l-2.6-4.8L76 140h-2l3.6-6.8-3.5-6.6h2ZM94 126.6v1.6h-3.8V140h-1.9v-11.7h-3.8v-1.6H94v-.1ZM97.7 126.6V140h-1.9v-13.3h1.9v-.1ZM102.7 126.6l5 9.8v-9.8h1.8V140h-2.2l-5-9.8v9.8h-1.8v-13.3h2.2v-.1ZM120.1 131.5c.1-.8 0-1.4-.1-1.9-.2-.5-.4-.8-.7-1-.3-.2-.6-.4-1-.4-.4-.1-.7-.1-1-.1-.5 0-.9.1-1.3.2-.4.2-.7.4-1 .7-.3.3-.5.7-.6 1.1-.1.4-.2 1-.2 1.5v3.4c0 .6.1 1.1.2 1.5.1.4.3.8.6 1.1.3.3.6.5 1 .7.4.2.8.2 1.3.2.3 0 .7 0 1-.1.4-.1.7-.2 1-.4.3-.2.5-.6.7-1 .2-.5.2-1.1.1-1.9h2c.1 1 0 1.9-.3 2.5-.2.7-.6 1.2-1 1.6-.4.4-1 .7-1.6.8-.6.1-1.3.2-2 .2-.9 0-1.6-.1-2.2-.4-.6-.3-1.1-.6-1.6-1.1-.4-.5-.7-1-.9-1.6-.2-.6-.3-1.4-.3-2.2v-3.4c0-.8.1-1.5.3-2.2.2-.6.5-1.2.9-1.7s.9-.8 1.6-1.1c.6-.3 1.4-.4 2.2-.4.7 0 1.3.1 2 .2.6.2 1.1.4 1.6.8s.8.9 1 1.6c.2.7.3 1.5.3 2.5h-2v.3ZM133 126.6v1.6h-3.8V140h-1.9v-11.7h-3.8v-1.6h9.5v-.1ZM136.8 126.6V140h-1.9v-13.3h1.9v-.1ZM149.5 135c0 .8-.1 1.5-.4 2.1-.2.6-.6 1.2-1 1.6-.5.5-1 .8-1.6 1-.6.2-1.3.4-2.1.4s-1.5-.1-2.1-.4c-.6-.2-1.1-.6-1.6-1-.4-.5-.8-1-1-1.6-.2-.6-.4-1.3-.4-2.1v-3.5c0-.8.1-1.5.4-2.1.2-.6.6-1.2 1-1.6.4-.5 1-.8 1.6-1 .6-.2 1.3-.4 2.1-.4.7 0 1.4.1 2.1.4.6.2 1.2.6 1.6 1 .4.5.8 1 1 1.6.2.6.4 1.3.4 2.1v3.5Zm-2.2-5c-.1-.4-.3-.8-.6-1.1-.3-.3-.6-.5-1-.7-.4-.1-.8-.2-1.3-.2s-.9.1-1.3.2-.7.4-1 .7c-.3.3-.5.7-.6 1.1-.1.4-.2.9-.2 1.5v3.5c0 .6.1 1.1.2 1.5.1.4.3.8.6 1.1.3.3.6.5 1 .6.4.1.8.2 1.3.2s.9-.1 1.3-.2.7-.4 1-.6c.3-.3.5-.6.6-1.1.1-.4.2-.9.2-1.5v-3.5c0-.5-.1-1-.2-1.5ZM154.3 126.6l5 9.8v-9.8h1.8V140H159l-5-9.8v9.8h-1.8v-13.3h2.1v-.1ZM163.601 130.4h1.7v2.1h-1.7v-2.1Zm0 7.4h1.7v2.1h-1.7v-2.1ZM179.5 131c.1-.6.1-1.2 0-1.6-.1-.4-.3-.7-.5-.9-.2-.2-.5-.3-.8-.4-.3-.1-.7-.1-1-.1-.4 0-.7 0-1 .1-.3.1-.6.2-.8.3-.2.1-.4.3-.6.5-.1.2-.2.5-.2.8v.7c0 .4.1.7.3.9.2.2.5.4.8.5.3.1.7.3 1.1.3.4 0 .9.2 1.3.3.5.1.9.2 1.3.4.4.1.8.4 1.1.6.3.2.6.6.8 1 .2.4.3.9.3 1.5v.6c0 .5-.1 1-.3 1.5-.2.4-.5.8-.9 1.1-.4.3-.9.5-1.5.7-.6.2-1.3.2-2 .2s-1.4-.1-2-.2c-.6-.2-1.1-.4-1.5-.8-.4-.4-.7-.9-.9-1.6-.2-.7-.2-1.5-.2-2.6h2c-.1.8-.1 1.5.1 1.9.1.5.3.8.6 1.1.2.2.5.4.9.5.4.1.7.1 1.1.1.4 0 .7 0 1.1-.1l.9-.3c.3-.1.5-.3.6-.6.1-.2.2-.5.2-.8v-.6c0-.4-.1-.7-.3-.9-.2-.2-.5-.4-.8-.5-.3-.1-.7-.3-1.1-.4-.4-.1-.9-.2-1.3-.3-.4-.1-.9-.2-1.3-.4s-.8-.4-1.1-.6c-.3-.3-.6-.6-.8-1-.2-.4-.3-.9-.3-1.5v-.7c0-.5.1-1 .3-1.4.2-.4.5-.8.9-1.1.4-.3.9-.5 1.5-.7.6-.2 1.2-.2 1.9-.2s1.3.1 1.8.2c.6.2 1 .4 1.4.8.4.4.7.8.9 1.4.2.6.2 1.3.2 2.2h-2.2v.1ZM191.8 126.6v1.6h-5.6v4h5v1.7h-5v4.4h5.6v1.6h-7.5v-13.3h7.5ZM199.2 126.6c.6 0 1.1.1 1.6.2.5.2.8.4 1.2.7.3.3.6.6.7 1 .2.4.2.9.2 1.4v1.9c0 .4-.1.8-.2 1.1-.1.3-.3.6-.5.9-.2.3-.5.5-.8.7-.3.2-.6.3-1 .4l2.2 5.1h-2.2l-2-4.9h-2.2v4.9h-1.9v-13.3h4.9v-.1Zm-3 6.8h2.7c.2 0 .5 0 .7-.1l.6-.3c.2-.1.3-.3.4-.6.1-.2.2-.5.2-.9v-1.4c0-.3-.1-.6-.2-.8-.1-.2-.3-.4-.4-.6-.2-.2-.4-.3-.6-.4-.2-.1-.5-.1-.7-.1h-2.7v5.2ZM215.1 133.8c0 1.1 0 2-.1 2.8-.1.8-.4 1.5-.8 2s-.9.9-1.5 1.2c-.6.3-1.5.4-2.4.4-.8 0-1.5-.1-2.1-.4-.6-.3-1.2-.6-1.6-1.1-.5-.5-.8-1-1-1.6-.2-.6-.4-1.4-.4-2.2v-3.4c0-.8.1-1.5.4-2.2.2-.6.6-1.2 1-1.7s1-.8 1.6-1.1c.6-.3 1.3-.4 2.1-.4.6 0 1.2.1 1.8.2.6.2 1.1.4 1.6.8s.9.9 1.1 1.6c.3.7.4 1.5.3 2.6h-2c.1-.8 0-1.5-.1-1.9-.1-.4-.4-.8-.7-1.1-.3-.3-.6-.4-1-.5-.4-.1-.7-.1-1-.1-.5 0-.9.1-1.3.2s-.7.4-1 .7c-.3.3-.5.7-.6 1.1-.1.4-.2 1-.2 1.6v3.4c0 .6.1 1.1.2 1.6.1.4.3.8.6 1.1.3.3.6.5 1 .7.4.2.8.2 1.3.2.3 0 .6 0 1-.1s.6-.2.9-.4c.3-.2.5-.5.7-.9.2-.4.3-.9.3-1.6h-3.5v-1.7h5.4v.2ZM225.2 126.6v1.6h-5.6v4h5v1.7h-5v4.4h5.6v1.6h-7.5v-13.3h7.5ZM228.9 126.6l2.5 7.4 2.6-7.4h2l-3.7 9.7v3.6h-1.9v-3.6l-3.6-9.7h2.1ZM247.5 126.6c.6 0 1.1.1 1.5.2.4.1.8.3 1.1.6.3.2.5.5.7.9.2.3.2.7.2 1.1v1.2c0 .3 0 .6-.1.8-.1.3-.2.5-.3.7-.1.2-.3.4-.6.5-.2.2-.5.3-.8.4.4.1.7.2.9.4l.6.6c.2.2.3.5.4.7.1.3.1.6.1.9v1.4c0 .4-.1.8-.2 1.2-.2.4-.4.7-.7.9-.3.3-.7.5-1.2.6-.5.1-1 .2-1.6.2h-4.8v-13.3h4.8Zm-2.8 5.7h2.7c.3 0 .5 0 .7-.1.2-.1.4-.2.5-.3.1-.1.3-.3.3-.5.1-.2.1-.4.1-.6v-1.1c0-.2 0-.4-.1-.6-.1-.2-.2-.3-.3-.4-.1-.1-.3-.2-.5-.3-.2-.1-.4-.1-.7-.1h-2.8v4h.1Zm0 6h2.8c.3 0 .6 0 .8-.1l.6-.3c.2-.1.3-.3.4-.5.1-.2.1-.4.1-.7v-1.1c0-.3-.1-.5-.2-.8-.1-.2-.2-.4-.4-.5l-.6-.3c-.2-.1-.5-.1-.7-.1h-2.8v4.4ZM256.7 126.6h2.3l3.8 13.3h-2l-.8-3.1h-4.2l-.8 3.1h-2l3.7-13.3Zm2.8 8.6-1.7-6.3-1.7 6.3h3.4ZM271.9 131.5c.1-.8 0-1.4-.1-1.9-.2-.5-.4-.8-.7-1-.3-.2-.6-.4-1-.4-.4-.1-.7-.1-1-.1-.5 0-.9.1-1.3.2s-.7.4-1 .7c-.3.3-.5.7-.6 1.1-.1.4-.2 1-.2 1.5v3.4c0 .6.1 1.1.2 1.5.1.4.3.8.6 1.1.3.3.6.5 1 .7.4.2.8.2 1.3.2.3 0 .7 0 1-.1.4-.1.7-.2 1-.4.3-.2.5-.6.7-1 .2-.5.2-1.1.1-1.9h2c.1 1 0 1.9-.3 2.5-.2.7-.6 1.2-1 1.6-.4.4-1 .7-1.6.8-.6.1-1.3.2-2 .2-.9 0-1.6-.1-2.2-.4-.6-.3-1.1-.6-1.6-1.1-.4-.5-.7-1-.9-1.6-.2-.6-.3-1.4-.3-2.2v-3.4c0-.8.1-1.5.3-2.2.2-.6.5-1.2.9-1.7s.9-.8 1.6-1.1c.6-.3 1.4-.4 2.2-.4.7 0 1.3.1 2 .2.6.2 1.1.4 1.6.8s.8.9 1 1.6c.2.7.3 1.5.3 2.5h-2v.3ZM278.4 126.6v5.7h5.1v-5.7h1.9V140h-1.9v-6h-5.1v6h-1.9v-13.3h1.9v-.1ZM290.1 126.6V140h-1.9v-13.3h1.9v-.1ZM295.1 126.6l5 9.8v-9.8h1.8V140h-2.2l-5-9.8v9.8h-1.8v-13.3h2.2v-.1ZM66.3 148.5v13.3h-1.9v-13.3h1.9ZM71.3 148.5l5 9.8v-9.8h1.8v13.3H76l-5-9.8v9.8h-1.8v-13.3h2.1ZM82.8 148.5v13.3H81v-13.3h1.8ZM94.3 148.5v1.6h-3.8v11.7h-1.9v-11.7h-3.8v-1.6h9.5ZM98 148.5v13.3h-1.9v-13.3H98ZM103.7 148.5h2.3l3.8 13.3h-2l-.8-3.1h-4.2l-.8 3.1h-2l3.7-13.3Zm2.9 8.7-1.7-6.3-1.7 6.3h3.4ZM119 148.5v1.6h-3.8v11.7h-1.9v-11.7h-3.8v-1.6h9.5ZM122.8 148.5v13.3h-1.9v-13.3h1.9ZM126.701 148.5l2.8 11.1 2.8-11.1h2l-3.7 13.3h-2.3l-3.7-13.3h2.1ZM143.8 148.5v1.6h-5.6v4h5v1.7h-5v4.4h5.6v1.6h-7.5v-13.3h7.5ZM155.7 148.5c.6 0 1.1.1 1.6.2.5.2.9.4 1.3.7.3.3.6.7.8 1.1.2.4.3.9.3 1.5v1.2c0 .6-.1 1.1-.3 1.5-.2.4-.5.8-.8 1.1-.3.3-.8.5-1.2.7-.5.2-1 .2-1.7.2h-2.6v5h-1.9v-13.3h4.5v.1Zm-2.6 6.7h2.6c.3 0 .5 0 .7-.1.2-.1.5-.2.6-.3.2-.2.3-.4.5-.6.2-.2.2-.5.2-.8v-1.2c0-.3-.1-.6-.2-.8-.1-.2-.3-.4-.5-.6-.2-.2-.4-.3-.6-.4-.2-.1-.5-.1-.7-.1h-2.6v4.9ZM166.8 148.5c.6 0 1.1.1 1.6.2.5.2.8.4 1.2.7.3.3.6.6.7 1 .2.4.2.9.2 1.4v1.9c0 .4-.1.8-.2 1.1-.1.3-.3.6-.5.9-.2.3-.5.5-.8.7-.3.2-.6.3-1 .4l2.2 5.1H168l-2-4.9h-2.2v4.9H162v-13.3h4.8v-.1Zm-2.9 6.8h2.7c.2 0 .5 0 .7-.1l.6-.3c.2-.1.3-.3.4-.6.1-.2.2-.5.2-.9V152c0-.3-.1-.6-.2-.8-.1-.2-.3-.4-.4-.6-.2-.2-.4-.3-.6-.4-.2-.1-.5-.1-.7-.1h-2.7v5.2ZM182.9 157c0 .8-.1 1.5-.4 2.1-.2.6-.6 1.2-1 1.6-.5.5-1 .8-1.6 1-.6.2-1.3.4-2.1.4s-1.5-.1-2.1-.4c-.6-.2-1.1-.6-1.6-1-.4-.5-.8-1-1-1.6-.2-.6-.4-1.3-.4-2.1v-3.5c0-.8.1-1.5.4-2.1.2-.6.6-1.2 1-1.6.4-.5 1-.8 1.6-1 .6-.2 1.3-.4 2.1-.4s1.4.1 2.1.4c.6.2 1.2.6 1.6 1 .4.5.8 1 1 1.6.2.6.4 1.3.4 2.1v3.5Zm-2.2-5c-.1-.4-.3-.8-.6-1.1-.3-.3-.6-.5-1-.7-.4-.1-.8-.2-1.3-.2s-.9.1-1.3.2-.7.4-1 .7c-.3.3-.5.7-.6 1.1-.1.4-.2.9-.2 1.5v3.5c0 .6.1 1.1.2 1.5.1.4.3.8.6 1.1.3.3.6.5 1 .6.4.1.8.2 1.3.2s.9-.1 1.3-.2.7-.4 1-.6c.3-.2.5-.6.6-1.1.1-.4.2-.9.2-1.5v-3.5c0-.6 0-1.1-.2-1.5ZM192.401 158.1c0 .5-.1.9-.2 1.4-.1.5-.3.9-.6 1.3s-.6.7-1.1 1c-.5.2-1.1.4-1.8.4h-.1c-.7 0-1.2-.1-1.8-.2-.6-.1-.9-.4-1.3-.8-.3-.4-.6-.9-.7-1.6-.1-.7-.2-1.5-.1-2.6h2c-.1.8 0 1.4 0 1.9.1.5.2.8.4 1.1.2.2.4.4.7.5.3.1.6.1.9.1h.1c.4 0 .7-.1.9-.2.2-.1.4-.3.5-.5.1-.2.2-.5.2-.7v-10.4h1.9v9.3h.1ZM202.7 148.5v1.6h-5.6v4h5v1.7h-5v4.4h5.6v1.6h-7.5v-13.3h7.5ZM212.9 153.4c.1-.8 0-1.4-.1-1.9-.2-.5-.4-.8-.7-1-.3-.2-.6-.4-1-.4-.4-.1-.7-.1-1-.1-.5 0-.9.1-1.3.2s-.7.4-1 .7c-.3.3-.5.7-.6 1.1-.1.4-.2 1-.2 1.5v3.4c0 .6.1 1.1.2 1.5.1.4.3.8.6 1.1.3.3.6.5 1 .7.4.2.8.2 1.3.2.3 0 .7 0 1-.1.4-.1.7-.2 1-.4.3-.2.5-.6.7-1 .2-.5.2-1.1.1-1.9h2c.1 1 0 1.9-.3 2.5-.2.7-.6 1.2-1 1.6-.4.4-1 .7-1.6.8-.6.1-1.3.2-2 .2-.9 0-1.6-.1-2.2-.4-.6-.3-1.1-.6-1.6-1.1-.4-.5-.7-1-.9-1.6-.2-.6-.3-1.4-.3-2.2v-3.4c0-.8.1-1.5.3-2.2.2-.6.5-1.2.9-1.7s.9-.8 1.6-1.1c.6-.3 1.4-.4 2.2-.4.7 0 1.3.1 2 .2.6.2 1.1.4 1.6.8s.8.9 1 1.6c.2.7.3 1.5.3 2.5h-2v.3ZM225.9 148.5v1.6h-3.8v11.7h-1.9v-11.7h-3.8v-1.6h9.5Z"/></svg>