<svg xmlns="http://www.w3.org/2000/svg" viewBox="0 0 229 114"><path d="M50.013.857h5.45l5.428 17.336h-4.51l-.94-3.4h-5.428l-.941 3.442h-4.509L50.014.857Zm4.606 10.452-1.882-6.766-1.881 6.766h3.763ZM70.729.857a7.791 7.791 0 0 1 2.537.383 5.652 5.652 0 0 1 1.945 1.101c.545.48.974 1.079 1.254 1.749.3.75.447 1.554.432 2.362v.746a6.068 6.068 0 0 1-.432 2.34 4.822 4.822 0 0 1-1.24 1.743 5.665 5.665 0 0 1-1.959 1.115 7.895 7.895 0 0 1-2.585.397h-3.568v5.372h-4.285V.857h7.902ZM67.114 9.4h2.969c.298 0 .594-.044.878-.133.281-.085.546-.22.78-.397.24-.184.431-.423.558-.697.157-.328.23-.689.216-1.052v-.648a2.223 2.223 0 0 0-.216-1.038c-.13-.272-.32-.51-.558-.697a2.237 2.237 0 0 0-.78-.397 3.381 3.381 0 0 0-.878-.119h-2.969V9.4ZM83.628.857v6.689h1.094l4.035-6.69h5.254l-5.749 8.418 6.119 8.919h-5.248l-4.41-7.01h-1.095v7.03h-4.257V.858h4.257Zm26.334 0V4.27h-5.275v13.936h-4.237V4.27h-5.324V.857h14.836Zm16.899 17.357h-4.265V7.637l-6.369 10.577h-4.363V.857h4.14v10.619h.048l6.349-10.62h4.46v17.358Zm7.17-17.357v6.41c-.01.348.04.694.146 1.025.09.27.251.51.467.696.217.181.472.31.746.377.293.065.592.098.892.097.251 0 .515-.014.794-.042l.878-.083c.307-.035.606-.077.906-.14.3-.062.578-.097.843-.132V.857h4.237v17.357h-4.237v-5.797c-.334 0-.697.055-1.045.111s-.732.112-1.101.153c-.369.042-.739.07-1.101.098-.362.028-.697 0-1.038 0a9.712 9.712 0 0 1-2.356-.272 4.267 4.267 0 0 1-1.832-.927 4.45 4.45 0 0 1-1.164-1.665 6.92 6.92 0 0 1-.425-2.592V.857h4.39Zm25.707 0V4.27h-8.265v3.554h7.261v3.093h-7.261v3.875h8.265v3.393h-12.544V.856h12.544Zm13.755 6.633a3.825 3.825 0 0 0-.174-1.797 2.095 2.095 0 0 0-.787-1.018 3.496 3.496 0 0 0-1.157-.467 5.817 5.817 0 0 0-1.227-.139 4.072 4.072 0 0 0-1.519.272 3.007 3.007 0 0 0-1.164.829 3.803 3.803 0 0 0-.745 1.394 6.74 6.74 0 0 0-.258 1.971v1.98c-.012.666.075 1.33.258 1.971.149.512.403.986.745 1.394a2.79 2.79 0 0 0 1.164.913 4.183 4.183 0 0 0 1.519.264c.413-.002.824-.05 1.227-.139.41-.085.802-.243 1.157-.467.368-.257.644-.626.787-1.052.201-.577.26-1.193.174-1.798h4.362a6.44 6.44 0 0 1-.425 3.22c-.36.853-.934 1.599-1.665 2.167a7.16 7.16 0 0 1-2.558 1.205c-1 .25-2.028.373-3.059.37a9.424 9.424 0 0 1-3.4-.572 6.612 6.612 0 0 1-2.516-1.63 7.684 7.684 0 0 1-1.589-2.558 9.333 9.333 0 0 1-.571-3.337v-1.84a9.573 9.573 0 0 1 .557-3.345 7.544 7.544 0 0 1 1.575-2.55 6.62 6.62 0 0 1 2.502-1.63 9.533 9.533 0 0 1 3.414-.572 12.387 12.387 0 0 1 3.039.37c.94.224 1.826.634 2.606 1.205a5.33 5.33 0 0 1 1.707 2.167 6.44 6.44 0 0 1 .425 3.22h-4.404ZM185.047.857v6.689h1.087l4.035-6.69h5.254l-5.721 8.439 6.125 8.919h-5.254l-4.411-7.01h-1.087v7.01h-4.293V.857h4.265Zm17.149 0h5.449l5.429 17.336h-4.509l-.947-3.4h-5.422l-.941 3.442h-4.508L202.196.857Zm4.606 10.452-1.881-6.766-1.882 6.766h3.763ZM228.53.857v17.357h-4.286v-5.372h-2.453l-2.376 5.372h-4.878l3.038-6.139a6.557 6.557 0 0 1-1.324-.766 4.785 4.785 0 0 1-.975-1.052 4.71 4.71 0 0 1-.606-1.317 5.565 5.565 0 0 1-.21-1.561V6.327a6.045 6.045 0 0 1 .398-2.258 4.821 4.821 0 0 1 1.136-1.707 4.93 4.93 0 0 1 1.874-1.101 7.844 7.844 0 0 1 2.564-.404h8.098Zm-4.286 3.393h-3.122c-.281 0-.561.044-.829.133a2.488 2.488 0 0 0-.746.397 1.691 1.691 0 0 0-.515.697 2.4 2.4 0 0 0-.188.989v.697c-.014.391.057.781.209 1.143.114.277.302.518.543.696.216.144.45.256.697.335.263.072.535.11.808.111h3.122l.021-5.198ZM56.974 33.71c.08-.604.02-1.22-.174-1.797a2.09 2.09 0 0 0-.794-1.018 3.357 3.357 0 0 0-1.15-.466 5.81 5.81 0 0 0-1.227-.14 4.13 4.13 0 0 0-1.526.272c-.448.18-.847.465-1.163.829-.34.41-.59.883-.74 1.394a6.753 6.753 0 0 0-.264 1.971v1.98c-.01.666.08 1.33.265 1.971.15.51.402.983.739 1.394.31.37.711.656 1.163.829a4.277 4.277 0 0 0 1.526.258c.413 0 .824-.045 1.227-.133.41-.085.799-.245 1.15-.473a2.09 2.09 0 0 0 .794-1.01 4.04 4.04 0 0 0 .174-1.798h4.383a6.369 6.369 0 0 1-.418 3.219 5.366 5.366 0 0 1-1.7 2.167 7.081 7.081 0 0 1-2.55 1.205c-1 .25-2.029.374-3.06.37a9.5 9.5 0 0 1-3.407-.572 6.738 6.738 0 0 1-2.516-1.637 7.485 7.485 0 0 1-1.582-2.55 9.202 9.202 0 0 1-.571-3.345v-1.833a9.51 9.51 0 0 1 .558-3.344 7.428 7.428 0 0 1 1.574-2.55 6.71 6.71 0 0 1 2.53-1.638 9.692 9.692 0 0 1 3.414-.564 12.053 12.053 0 0 1 3.039.369 7.43 7.43 0 0 1 2.564 1.198 5.45 5.45 0 0 1 1.707 2.174 6.361 6.361 0 0 1 .418 3.22l-4.383.048Zm22.3 10.724h-4.258V33.857l-6.37 10.577H64.27V27.09h4.132v10.605h.05l6.361-10.605h4.46v17.343ZM90.324 27.09a7.826 7.826 0 0 1 2.544.39 5.574 5.574 0 0 1 1.944 1.101c.543.478.97 1.074 1.247 1.742.305.752.454 1.558.44 2.369v.746a5.943 5.943 0 0 1-.44 2.34 4.78 4.78 0 0 1-1.233 1.743 5.73 5.73 0 0 1-1.958 1.115 7.94 7.94 0 0 1-2.593.397H86.71v5.372h-4.286V27.091h7.902Zm-3.617 8.55h2.976c.298-.002.594-.049.878-.14.28-.087.543-.22.78-.39.238-.186.429-.424.558-.697.15-.332.222-.695.209-1.059v-.641a2.313 2.313 0 0 0-.21-1.038 1.98 1.98 0 0 0-.556-.697 2.3 2.3 0 0 0-.781-.397 3.136 3.136 0 0 0-.878-.119h-2.975v5.177Zm24.362-8.55v3.4h-8.23v3.56h7.261v3.102h-7.261v3.888h8.23v3.393H98.527V27.09h12.543Zm7.185 0v6.689h6.146v-6.69h4.264v17.344h-4.264v-7.01h-6.146v7.01h-4.286V27.09h4.286Zm17.644 0h5.449l5.421 17.343h-4.508l-.941-3.442h-5.421l-.941 3.442h-4.488l5.429-17.343Zm4.606 10.41-1.882-6.766-1.881 6.766h3.763ZM51.936 57.993v9.323h-1.338V59.13h-3.526v8.166h-1.324v-9.302h6.188Zm5.073 0c.387-.003.772.05 1.143.16.327.094.629.258.885.481.241.213.431.478.557.774.141.337.21.7.202 1.066v.85c.005.365-.063.728-.202 1.066a2.16 2.16 0 0 1-.557.773 2.64 2.64 0 0 1-.878.467c-.378.111-.77.165-1.164.16h-1.798v3.485H53.88v-9.282h3.13Zm-1.812 4.648h1.798c.177.001.353-.022.523-.07.166-.049.32-.132.453-.244.134-.114.241-.257.313-.418.087-.182.13-.383.126-.585v-.864a1.248 1.248 0 0 0-.892-1.24 1.675 1.675 0 0 0-.523-.084h-1.784l-.014 3.505Zm13.045 1.233a4.182 4.182 0 0 1-.25 1.498 3.268 3.268 0 0 1-.698 1.136c-.32.317-.702.566-1.121.732a4.182 4.182 0 0 1-2.892 0 3.204 3.204 0 0 1-1.108-.732 3.253 3.253 0 0 1-.697-1.136 4.357 4.357 0 0 1-.244-1.498v-2.453a4.376 4.376 0 0 1 .244-1.49c.15-.424.388-.81.697-1.136a3.095 3.095 0 0 1 1.115-.739 4.083 4.083 0 0 1 1.463-.258c.49-.004.977.084 1.435.258a3.18 3.18 0 0 1 1.122.739c.31.326.546.712.697 1.135.174.478.259.983.251 1.492l-.014 2.452Zm-1.519-3.484a2.092 2.092 0 0 0-.425-.766c-.19-.21-.43-.368-.697-.46a2.899 2.899 0 0 0-1.819 0c-.268.089-.509.248-.696.46-.19.225-.332.485-.419.766-.103.341-.152.696-.146 1.052v2.453c-.007.365.042.73.146 1.08.086.277.228.534.419.753.192.203.431.356.696.446a2.879 2.879 0 0 0 1.812 0c.263-.095.501-.247.697-.446.2-.215.348-.472.432-.753.104-.35.153-.715.146-1.08v-2.453a3.429 3.429 0 0 0-.146-1.073v.021Zm8.495-2.397v1.143h-3.945v2.829h3.533v1.157h-3.533v3.052h3.945v1.142h-5.262v-9.323h5.262Zm3.108 0v3.972h.78l2.23-3.972h1.624l-2.746 4.53 2.962 4.793h-1.68l-2.39-4.18h-.78v4.18H77v-9.323h1.325Zm12.424 0v1.143h-2.669v8.18h-1.33V59.13h-2.677v-1.136h6.676Zm8.411 0c.358-.006.716.044 1.059.147.28.084.542.218.774.397a1.8 1.8 0 0 1 .481.599c.112.237.169.497.167.76v.884c.003.2-.028.397-.091.586a1.52 1.52 0 0 1-.627.85c-.171.115-.35.218-.537.306.225.051.437.144.628.272.163.118.309.259.432.418.121.155.215.33.278.516.069.204.102.419.098.634v.975c.003.279-.055.554-.167.809a1.76 1.76 0 0 1-.516.64c-.248.188-.53.328-.829.412a4.08 4.08 0 0 1-1.15.146h-3.345v-9.35h3.345Zm-2 3.972h1.91c.167.001.335-.025.494-.077.14-.043.268-.117.377-.216a.79.79 0 0 0 .229-.334c.058-.144.087-.298.084-.453v-.801a.97.97 0 0 0-.084-.418.693.693 0 0 0-.23-.293 1.178 1.178 0 0 0-.362-.181 1.393 1.393 0 0 0-.474-.07h-1.944v2.843Zm0 4.18h1.951c.191.003.381-.023.565-.076.152-.046.295-.122.418-.223.115-.1.208-.223.272-.362.067-.159.101-.33.097-.502v-.718a1.207 1.207 0 0 0-.111-.522.92.92 0 0 0-.293-.356 1.242 1.242 0 0 0-.425-.188 2.093 2.093 0 0 0-.523-.062h-1.95v3.01Zm13.456-2.27a4.158 4.158 0 0 1-.251 1.497 3.268 3.268 0 0 1-.697 1.136c-.32.317-.702.566-1.121.732a4.182 4.182 0 0 1-2.892 0 3.197 3.197 0 0 1-1.108-.732 3.234 3.234 0 0 1-.697-1.136 4.34 4.34 0 0 1-.244-1.498v-2.453a4.374 4.374 0 0 1 .244-1.49 3.092 3.092 0 0 1 1.812-1.874 4.076 4.076 0 0 1 1.463-.259c.49-.004.977.084 1.435.258.423.163.805.415 1.122.739.309.326.546.712.697 1.135.174.478.259.983.251 1.492l-.014 2.452Zm-1.519-3.485a2.095 2.095 0 0 0-.425-.766 1.67 1.67 0 0 0-.697-.46 2.9 2.9 0 0 0-1.819 0 1.604 1.604 0 0 0-.697.46 2.204 2.204 0 0 0-.418.766c-.103.341-.152.696-.146 1.052v2.453c-.007.365.042.73.146 1.08.086.277.228.534.418.753.193.203.432.356.697.446a2.88 2.88 0 0 0 1.812 0 1.85 1.85 0 0 0 .697-.446c.2-.215.348-.472.432-.753.104-.35.153-.715.146-1.08v-2.453a3.42 3.42 0 0 0-.146-1.073v.021Zm6.843 5.805c.189-.065.363-.164.516-.293a1.203 1.203 0 0 0 .432-.92v-.509a1.791 1.791 0 0 0-.112-.648 1.211 1.211 0 0 0-.286-.425 1.018 1.018 0 0 0-.39-.216 1.315 1.315 0 0 0-.439-.07h-1.219v-1.156h1.184c.147-.002.291-.033.425-.09.136-.05.26-.129.363-.23.102-.103.185-.224.244-.356.07-.143.106-.3.104-.46v-.627a1.068 1.068 0 0 0-.111-.48 1.132 1.132 0 0 0-.293-.384 1.306 1.306 0 0 0-.467-.25 1.957 1.957 0 0 0-.634-.098 3.232 3.232 0 0 0-.697.07 1.24 1.24 0 0 0-.599.292c-.19.175-.327.4-.397.648-.104.37-.13.756-.077 1.136h-1.394a4.45 4.45 0 0 1 .161-1.603 2.39 2.39 0 0 1 .641-1.038 2.346 2.346 0 0 1 1.031-.55 5.173 5.173 0 0 1 1.303-.154 3.94 3.94 0 0 1 1.303.21c.33.099.636.265.899.487.234.188.422.426.551.697.126.278.191.58.188.885v.627c0 .208-.031.414-.091.613a1.539 1.539 0 0 1-.258.502 2.217 2.217 0 0 1-.989.683 1.932 1.932 0 0 1 1.087.745c.119.17.211.359.272.558.064.207.097.423.097.64v.697a2.138 2.138 0 0 1-.78 1.686 2.665 2.665 0 0 1-.934.502 4.181 4.181 0 0 1-1.282.181c-.451.003-.9-.05-1.338-.16a2.322 2.322 0 0 1-1.038-.564 2.54 2.54 0 0 1-.641-1.08 4.52 4.52 0 0 1-.154-1.7h1.394c-.055.411-.034.83.063 1.233.066.266.206.508.404.697.173.154.385.26.613.306.229.05.463.075.697.077.22-.003.439-.04.648-.111Zm7.247-8.202c.389-.003.777.051 1.15.16.324.096.623.26.878.481.241.213.432.478.557.774.141.337.21.7.203 1.066v.85c.005.365-.064.728-.203 1.066a2.15 2.15 0 0 1-.557.773c-.258.21-.554.369-.871.467-.38.111-.775.165-1.171.16h-1.798v3.485h-1.317v-9.282h3.129Zm-1.812 4.648h1.798c.177.002.353-.022.523-.07a1.241 1.241 0 0 0 .773-.662c.082-.184.122-.384.119-.585v-.864a1.388 1.388 0 0 0-.119-.592 1.38 1.38 0 0 0-.32-.404 1.243 1.243 0 0 0-.453-.244 1.648 1.648 0 0 0-.523-.084h-1.763l-.035 3.505Zm13.206 1.233a4.202 4.202 0 0 1-.251 1.498 3.235 3.235 0 0 1-1.847 1.867 4.182 4.182 0 0 1-2.892 0 3.294 3.294 0 0 1-1.115-.731 3.35 3.35 0 0 1-.697-1.136 4.199 4.199 0 0 1-.244-1.498v-2.453a4.206 4.206 0 0 1 .244-1.49c.15-.424.388-.81.697-1.136a3.124 3.124 0 0 1 1.122-.739 4.07 4.07 0 0 1 1.456-.258c.493-.003.982.084 1.443.258.42.164.8.415 1.115.739.308.326.546.713.697 1.135.173.478.258.983.251 1.492l.021 2.452Zm-1.52-3.484a2.198 2.198 0 0 0-.425-.766c-.19-.21-.43-.367-.697-.46a2.593 2.593 0 0 0-.905-.146 2.693 2.693 0 0 0-.913.146c-.27.088-.51.247-.697.46a2.188 2.188 0 0 0-.418.766c-.107.34-.156.696-.147 1.052v2.453c.014.365.087.725.216 1.066.086.277.228.534.419.753.191.204.431.357.696.446.289.1.593.15.899.146.311.006.62-.043.913-.146a1.87 1.87 0 0 0 .697-.446c.198-.216.345-.473.432-.753.104-.35.153-.715.146-1.08v-2.453a3.4 3.4 0 0 0-.216-1.059v.021Zm4.265-2.397 1.61 3.972h.906v-3.972h1.331v3.972h.906l1.588-3.972h1.582l-2.021 4.53 2.223 4.793h-1.596l-1.776-4.18h-.906v4.18h-1.331v-4.18h-.906l-1.77 4.18h-1.603l2.23-4.794-2.042-4.529h1.575Zm15.707 0v8.18h.85v2.969h-1.24v-1.854h-5.115v1.854h-1.241v-2.996h.858c.104-.544.195-1.122.264-1.75.07-.626.126-1.267.175-1.943.048-.676.076-1.394.09-2.14.014-.745 0-1.532 0-2.348l5.359.028Zm-4.042 3.178c0 .655-.056 1.268-.104 1.86a28.073 28.073 0 0 1-.181 1.672c-.077.53-.154 1.018-.23 1.47h3.24v-7.037h-2.683c0 .697-.014 1.373-.042 2.028v.007Zm11.54-3.178v1.143h-3.944v2.829h3.533v1.157h-3.533v3.052h3.944v1.142h-5.261v-9.323h5.261Zm3.129 0v3.972h3.547v-3.972h1.331v9.323h-1.331v-4.18h-3.547v4.18h-1.317v-9.323h1.317Zm13.205 9.316h-1.331v-6.793l-3.449 6.793h-1.547v-9.316h1.317v6.808l3.484-6.808h1.519l.007 9.316Zm7.7-9.316v9.323h-1.317v-3.4h-1.561l-1.394 3.407h-1.554l1.554-3.567a3.108 3.108 0 0 1-.697-.307 1.998 1.998 0 0 1-.529-.467 1.941 1.941 0 0 1-.342-.62 2.315 2.315 0 0 1-.111-.752v-1.317a2.458 2.458 0 0 1 .174-.948c.109-.269.281-.508.502-.697.238-.203.512-.359.808-.46a3.24 3.24 0 0 1 1.087-.167l3.38-.028Zm-1.317 1.143h-1.909a1.569 1.569 0 0 0-.516.084 1.107 1.107 0 0 0-.432.244 1.227 1.227 0 0 0-.411.982v.996c-.009.218.032.435.118.635.067.16.175.3.314.404.128.098.275.17.432.209.157.039.319.058.481.055h1.916l.007-3.609ZM51.163 76.744a2.787 2.787 0 0 0-.098-1.303 1.749 1.749 0 0 0-.488-.697 1.624 1.624 0 0 0-.697-.314 4.573 4.573 0 0 0-.697-.062 2.44 2.44 0 0 0-.885.16 1.7 1.7 0 0 0-.696.474c-.192.23-.337.495-.425.78-.11.345-.161.705-.154 1.066v2.341c-.006.362.046.722.154 1.067.087.284.231.547.425.773.192.21.43.372.697.474.285.114.59.17.898.167.234-.006.467-.03.697-.07.257-.037.499-.146.697-.313a1.68 1.68 0 0 0 .488-.697c.135-.42.169-.867.097-1.303h1.394c.063.597-.001 1.2-.188 1.77a2.681 2.681 0 0 1-.697 1.1c-.32.275-.7.47-1.108.572a5.439 5.439 0 0 1-1.393.167 3.953 3.953 0 0 1-1.54-.271 2.941 2.941 0 0 1-1.088-.746 3.122 3.122 0 0 1-.655-1.15c-.153-.489-.228-.999-.223-1.512v-2.41a4.92 4.92 0 0 1 .223-1.513c.133-.426.353-.82.648-1.156a2.99 2.99 0 0 1 1.095-.746 4.117 4.117 0 0 1 1.526-.264c.469-.004.937.05 1.393.16a2.537 2.537 0 0 1 1.854 1.679 4.25 4.25 0 0 1 .188 1.77l-1.442.007Zm8.564-3.421v1.142h-2.662v8.18h-1.338v-8.18H53.05v-1.142h6.676Zm6.585 0v1.142h-3.944v2.822h3.526v1.164h-3.526v3.045h3.944v1.15h-5.268v-9.323h5.268Zm8.07 0v9.323H73.05v-8.18h-2.627c0 .745-.035 1.442-.055 2.09a58.22 58.22 0 0 1-.084 1.797c-.035.55-.07 1.053-.119 1.492-.048.439-.09.836-.125 1.177a2.676 2.676 0 0 1-.23.794 2.09 2.09 0 0 1-.37.558 1.581 1.581 0 0 1-.466.327 1.33 1.33 0 0 1-.509.105h-.313a1.604 1.604 0 0 1-.265 0 1.112 1.112 0 0 1-.23-.07.621.621 0 0 1-.188-.118V81.46c.082.06.17.108.265.146a.81.81 0 0 0 .292.056.919.919 0 0 0 .216 0 .605.605 0 0 0 .21-.111.697.697 0 0 0 .166-.244c.057-.132.1-.27.126-.411.056-.412.104-.871.14-1.394.034-.522.076-1.094.097-1.714.02-.62.049-1.31.07-2.042.02-.731.041-1.519.041-2.348l5.29-.076Zm8.208 0v9.323h-1.33v-8.18h-2.628c0 .747-.02 1.444-.063 2.09 0 .648-.048 1.247-.076 1.797-.028.55-.07 1.053-.119 1.492-.048.439-.09.836-.132 1.177a2.677 2.677 0 0 1-.223.794 1.96 1.96 0 0 1-.376.558c-.131.138-.287.249-.46.327a1.392 1.392 0 0 1-.509.105h-.314a1.604 1.604 0 0 1-.264 0 1.18 1.18 0 0 1-.237-.07.87.87 0 0 1-.188-.118V81.46c.084.06.175.109.271.146a.78.78 0 0 0 .293.056c.07.01.14.01.209 0a.577.577 0 0 0 .216-.111.697.697 0 0 0 .167-.244c.057-.132.1-.27.126-.411.055-.412.097-.871.14-1.394.04-.522.069-1.094.09-1.714.02-.62.048-1.31.076-2.042.028-.731.042-1.519.042-2.348l5.29-.076Zm7.178 0v1.142h-3.945v2.822h3.534v1.164h-3.534v3.045h3.945v1.15h-5.29v-9.323h5.29Zm4.92 0c.386-.007.772.047 1.142.16.324.092.623.254.878.474.242.213.435.477.565.773.137.338.203.701.195 1.066v.857c.007.365-.06.728-.195 1.066a2.02 2.02 0 0 1-.565.767 2.33 2.33 0 0 1-.87.467c-.378.114-.77.168-1.165.16h-1.797v3.484H91.55v-9.274h3.136Zm-1.813 4.647h1.798c.175 0 .349-.027.516-.076.167-.045.321-.126.453-.237.139-.112.248-.256.32-.418a1.31 1.31 0 0 0 .119-.586v-.87a1.254 1.254 0 0 0-.118-.586 1.13 1.13 0 0 0-.321-.404 1.31 1.31 0 0 0-.453-.251 1.85 1.85 0 0 0-.516-.077h-1.797v3.505Zm12.969 1.24a4.202 4.202 0 0 1-.251 1.499c-.161.423-.41.808-.732 1.128a3.106 3.106 0 0 1-1.115.732 4.083 4.083 0 0 1-2.892 0c-.42-.16-.8-.41-1.115-.732a3.246 3.246 0 0 1-.696-1.129 4.179 4.179 0 0 1-.244-1.498v-2.452a4.179 4.179 0 0 1 .244-1.491 3.29 3.29 0 0 1 .696-1.143c.319-.32.701-.57 1.122-.732a3.925 3.925 0 0 1 1.457-.257 3.85 3.85 0 0 1 1.442.257 3.23 3.23 0 0 1 1.115.732c.307.33.544.719.697 1.143.174.477.259.983.251 1.49l.021 2.453Zm-1.519-3.483a2.095 2.095 0 0 0-.425-.767 1.65 1.65 0 0 0-.697-.46 2.6 2.6 0 0 0-.906-.146 2.697 2.697 0 0 0-.913.146c-.269.088-.51.247-.697.46a2.205 2.205 0 0 0-.418.767 3.408 3.408 0 0 0-.146 1.052v2.452c-.007.366.042.73.146 1.08.086.277.228.534.418.753.192.204.431.357.697.446.289.1.593.15.899.146.311.007.62-.043.913-.146.262-.095.5-.247.697-.446a2 2 0 0 0 .432-.753c.104-.35.153-.714.146-1.08V76.78a3.449 3.449 0 0 0-.146-1.073v.02Zm6.578-2.404c.358-.006.716.043 1.059.146.279.082.539.217.767.397a1.695 1.695 0 0 1 .648 1.359v.885c.002.2-.026.4-.084.592a1.77 1.77 0 0 1-.244.474 1.39 1.39 0 0 1-.383.376 3.92 3.92 0 0 1-.544.307 1.85 1.85 0 0 1 1.059.683c.124.157.22.333.286.522.066.205.099.419.098.634v.969c.003.281-.056.56-.174.815a1.695 1.695 0 0 1-.516.641c-.248.188-.53.327-.829.411a4.03 4.03 0 0 1-1.143.146h-3.345v-9.357h3.345Zm-2 3.964h1.902c.17.004.34-.02.502-.07a.924.924 0 0 0 .369-.215.857.857 0 0 0 .237-.342c.056-.144.082-.298.077-.453v-.794a1.015 1.015 0 0 0-.077-.425.74.74 0 0 0-.258-.272 1.44 1.44 0 0 0-.829-.244h-1.944l.021 2.815Zm0 4.181h1.944c.188.004.376-.019.558-.07.154-.045.297-.124.418-.23a.919.919 0 0 0 .278-.355c.066-.159.096-.33.091-.502v-.717a1.191 1.191 0 0 0-.105-.523.983.983 0 0 0-.292-.355 1.284 1.284 0 0 0-.432-.195 2.351 2.351 0 0 0-.516-.056h-1.944v3.003Zm13.456-2.258a4.202 4.202 0 0 1-.251 1.499 3.254 3.254 0 0 1-1.847 1.86 4.08 4.08 0 0 1-2.891 0 3.098 3.098 0 0 1-1.115-.732 3.138 3.138 0 0 1-.697-1.129 4.177 4.177 0 0 1-.244-1.498v-2.452a4.184 4.184 0 0 1 .244-1.491 3.06 3.06 0 0 1 1.825-1.875 3.925 3.925 0 0 1 1.457-.257c.493-.007.982.08 1.442.257a3.22 3.22 0 0 1 1.115.732c.307.33.544.719.697 1.143.174.477.259.983.251 1.49l.014 2.453Zm-1.519-3.483a2.216 2.216 0 0 0-.425-.767 1.699 1.699 0 0 0-.697-.46 2.6 2.6 0 0 0-.906-.146 2.7 2.7 0 0 0-.913.146c-.269.088-.51.247-.697.46a2.216 2.216 0 0 0-.425.767 3.438 3.438 0 0 0-.146 1.052v2.452c-.007.366.042.73.146 1.08.088.278.233.534.425.753.192.204.431.357.697.446.289.1.593.15.899.146.311.007.62-.043.913-.146a1.87 1.87 0 0 0 .697-.446 2 2 0 0 0 .432-.753c.104-.35.153-.714.146-1.08V76.78a3.42 3.42 0 0 0-.146-1.073v.02Zm9.574 6.919h-1.338v-6.794l-3.484 6.794h-1.519v-9.323h1.324v6.807l3.484-6.807h1.519l.014 9.323Zm-1.184-11.149c-.119.25-.29.47-.502.648a1.88 1.88 0 0 1-.697.383 2.888 2.888 0 0 1-1.589 0 1.946 1.946 0 0 1-.696-.376c-.208-.18-.376-.4-.495-.648a2.037 2.037 0 0 1-.188-.906h1.052c-.002.17.029.337.09.495a.98.98 0 0 0 .265.355c.109.09.231.16.363.21.267.102.562.102.829 0 .13-.048.251-.119.355-.21.113-.098.203-.22.265-.355.067-.156.1-.325.098-.495h1.066c.007.322-.067.641-.216.927v-.028Zm8.209 1.826v3.964h.78l2.23-3.964h1.624l-2.746 4.529 2.955 4.794h-1.673l-2.39-4.181h-.78v4.18h-1.324v-9.322h1.324Zm12.689 5.887a4.052 4.052 0 0 1-.258 1.499 3.213 3.213 0 0 1-1.839 1.86 4.083 4.083 0 0 1-2.892 0 3.098 3.098 0 0 1-1.115-.732 3.046 3.046 0 0 1-.697-1.129 4.158 4.158 0 0 1-.251-1.498v-2.452a4.165 4.165 0 0 1 .251-1.491 3.06 3.06 0 0 1 1.826-1.875 3.92 3.92 0 0 1 1.456-.257c.493-.007.982.08 1.442.257a3.142 3.142 0 0 1 1.833 1.875c.179.476.267.982.258 1.49l-.014 2.453Zm-1.519-3.483a2.216 2.216 0 0 0-.425-.767 1.692 1.692 0 0 0-.697-.46 2.628 2.628 0 0 0-.906-.146 2.7 2.7 0 0 0-.913.146c-.269.088-.51.247-.697.46a2.216 2.216 0 0 0-.425.767 3.438 3.438 0 0 0-.146 1.052v2.452c-.007.366.042.73.146 1.08.088.278.233.534.425.753.192.204.432.357.697.446.289.1.593.15.899.146.311.007.62-.043.913-.146a1.87 1.87 0 0 0 .697-.446 1.99 1.99 0 0 0 .411-.774c.104-.35.153-.714.146-1.08v-2.452a3.408 3.408 0 0 0-.146-1.052l.021.02Zm6.439-2.404c.387-.007.772.047 1.143.16.325.094.626.255.885.474.241.21.436.469.571.76.137.337.204.7.195 1.065v.857a2.72 2.72 0 0 1-.195 1.066 2.093 2.093 0 0 1-.557.767 2.421 2.421 0 0 1-.879.467 3.756 3.756 0 0 1-1.163.16h-1.798v3.484h-1.317v-9.26h3.115Zm-1.812 4.647h1.798c.177-.001.353-.027.522-.076.166-.048.32-.129.453-.237a1.314 1.314 0 0 0 .439-1.003v-.872a1.26 1.26 0 0 0-.125-.585 1.187 1.187 0 0 0-.314-.404 1.44 1.44 0 0 0-.453-.251 1.928 1.928 0 0 0-.522-.077h-1.798v3.505Zm13.045 1.24a4.202 4.202 0 0 1-.251 1.499 3.204 3.204 0 0 1-1.847 1.86 4.083 4.083 0 0 1-2.892 0 3.023 3.023 0 0 1-1.108-.732 3.17 3.17 0 0 1-.696-1.129 4.34 4.34 0 0 1-.244-1.498v-2.452a4.326 4.326 0 0 1 .244-1.491c.152-.425.389-.814.696-1.143.316-.32.696-.57 1.115-.732a3.937 3.937 0 0 1 1.464-.257c.49-.008.978.08 1.435.257a3.14 3.14 0 0 1 1.84 1.875c.174.477.259.983.251 1.49l-.007 2.453Zm-1.519-3.483a2.095 2.095 0 0 0-.425-.767c-.19-.21-.43-.368-.697-.46a2.9 2.9 0 0 0-1.819 0 1.605 1.605 0 0 0-.697.46 2.205 2.205 0 0 0-.418.767 3.438 3.438 0 0 0-.146 1.052v2.452c-.007.366.042.73.146 1.08.086.277.228.534.418.753.193.203.432.356.697.446a2.878 2.878 0 0 0 1.812 0 1.85 1.85 0 0 0 .697-.446c.2-.214.347-.472.432-.753.104-.35.153-.714.146-1.08V76.78a3.449 3.449 0 0 0-.146-1.073v.02Zm6.822-2.404c.358-.006.716.043 1.059.146.28.084.542.218.774.397a1.695 1.695 0 0 1 .648 1.359v.885c.003.2-.028.401-.091.592a1.59 1.59 0 0 1-.237.474 1.51 1.51 0 0 1-.383.376 4.893 4.893 0 0 1-.544.307c.224.05.437.143.627.271.164.115.309.254.432.412.122.157.216.334.279.522.072.204.107.418.105.634v.969c0 .28-.059.559-.174.815a1.76 1.76 0 0 1-.516.641c-.249.188-.53.327-.829.411a4.083 4.083 0 0 1-1.15.146h-3.345v-9.357h3.345Zm-2 3.964h1.909c.17.004.34-.02.502-.07a.966.966 0 0 0 .369-.215.857.857 0 0 0 .237-.342c.053-.145.079-.298.077-.453v-.794a1.165 1.165 0 0 0-.077-.425.737.737 0 0 0-.237-.293 1.332 1.332 0 0 0-.362-.174 1.398 1.398 0 0 0-.467-.07h-1.951v2.836Zm0 4.181h1.951c.188.004.376-.02.558-.07.154-.045.296-.124.418-.23a.96.96 0 0 0 .271-.355c.068-.158.101-.33.098-.502v-.717c.006-.181-.033-.36-.112-.523a.909.909 0 0 0-.292-.355 1.254 1.254 0 0 0-.425-.195 2.453 2.453 0 0 0-.516-.056h-1.951v3.003Zm6.481-8.145h1.317v3.484h1.77a3.98 3.98 0 0 1 1.163.16c.321.094.618.255.871.474.235.214.423.475.551.766.141.337.21.7.202 1.066v.85c.006.366-.063.728-.202 1.066a2.298 2.298 0 0 1-.551.788 2.196 2.196 0 0 1-.885.474 3.988 3.988 0 0 1-1.149.153h-3.087v-9.281Zm3.073 8.173c.179.002.358-.023.529-.077.166-.05.32-.133.453-.244.13-.118.236-.26.314-.418a1.34 1.34 0 0 0 .118-.578v-.864a1.403 1.403 0 0 0-.118-.585 1.407 1.407 0 0 0-.314-.418 1.188 1.188 0 0 0-.453-.244 1.936 1.936 0 0 0-.529-.07h-1.756v3.484l1.756.014Zm4.877-8.173v9.323h-1.282v-9.323h1.282ZM49.079 88.652c.358-.006.716.043 1.06.146.28.086.542.223.773.404a1.7 1.7 0 0 1 .648 1.394v.843a1.733 1.733 0 0 1-.328 1.066 1.79 1.79 0 0 1-.383.376 4.314 4.314 0 0 1-.543.307c.224.05.436.143.627.272.163.115.309.253.432.41.122.157.216.334.278.523.072.201.108.414.105.627v.976c0 .281-.06.559-.174.815-.119.25-.296.467-.516.634a2.383 2.383 0 0 1-.83.418 4.044 4.044 0 0 1-1.149.147h-3.338v-9.358h3.338Zm-1.993 3.972h1.902c.17.003.34-.02.502-.07.136-.048.261-.121.37-.216a.912.912 0 0 0 .236-.342 1.31 1.31 0 0 0 .077-.453v-.8a1.116 1.116 0 0 0-.077-.419.745.745 0 0 0-.236-.293 1.31 1.31 0 0 0-.356-.18 1.66 1.66 0 0 0-.474-.063h-1.944v2.836Zm0 4.18h1.944c.188.004.376-.02.558-.07a1.116 1.116 0 0 0 .69-.585c.067-.158.1-.33.097-.501v-.725a1.24 1.24 0 0 0-.104-.53 1.03 1.03 0 0 0-.293-.348 1.282 1.282 0 0 0-.432-.195 2.01 2.01 0 0 0-.516-.063h-1.944v3.017Zm13.003-8.152c.387-.003.772.05 1.143.16.323.098.622.261.878.48.24.216.432.48.564.774.139.338.205.701.196 1.066v.85c.008.365-.058.728-.196 1.067a2.091 2.091 0 0 1-.564.773c-.254.216-.55.375-.871.467-.378.11-.77.165-1.164.16h-1.798v3.484h-1.324v-9.281h3.136Zm-1.812 4.654h1.812a1.85 1.85 0 0 0 .516-.076 1.176 1.176 0 0 0 .773-.662c.085-.183.125-.384.119-.585v-.865a1.253 1.253 0 0 0-.119-.585 1.212 1.212 0 0 0-.32-.404 1.31 1.31 0 0 0-.453-.25 1.85 1.85 0 0 0-.516-.078h-1.798l-.014 3.505Zm7.617-4.654h1.602l2.648 9.33h-1.393l-.572-2.16h-2.954l-.565 2.16h-1.393l2.627-9.33Zm1.972 6.027-1.17-4.425-1.186 4.425h2.356Zm5.582-6.027 2.027 7.518 2.035-7.518h1.972v9.33h-1.33v-7.505l-2 7.505h-1.394l-2.035-7.505v7.505h-1.324v-9.33h2.049Zm9.337 0v3.972h.788l2.223-3.972h1.63l-2.745 4.529 2.954 4.8h-1.68l-2.382-4.18h-.788v4.18h-1.317v-9.33h1.317Zm8.02 0h1.597l2.655 9.33h-1.394l-.572-2.16h-2.954l-.564 2.16h-1.394l2.627-9.33Zm1.973 6.027-1.17-4.425-1.185 4.425h2.355Zm4.718-6.027 1.728 3.17 1.735-3.17h1.394l-2.418 4.585 2.501 4.745h-1.428l-1.812-3.387-1.812 3.387H95.99l2.502-4.745-2.439-4.585h1.443Zm16.898 9.33h-1.345v-6.794l-3.484 6.794h-1.519v-9.33h1.317v6.808l3.484-6.808h1.519l.028 9.33Zm3.289-9.33v3.972h3.547v-3.972h1.331v9.33h-1.331v-4.18h-3.547v4.18h-1.317v-9.33h1.317Zm13.205 9.33h-1.331v-6.794l-3.449 6.794h-1.519v-9.33h1.317v6.808l3.484-6.808h1.519l-.021 9.33Zm3.275-9.33v8.18h3.533v-8.18h1.331v8.18h.92V99.8h-1.24v-1.846h-5.861v-9.302h1.317Zm13.512 9.33h-1.331v-6.794l-3.449 6.794h-1.519v-9.33h1.317v6.808l3.484-6.808h1.519l-.021 9.33Zm3.972-9.33h1.596l2.648 9.33h-1.394l-.571-2.16h-2.962l-.557 2.16h-1.394l2.634-9.33Zm1.965 6.027-1.17-4.425-1.185 4.425h2.355Zm8.732-6.027v1.15h-2.669v8.18h-1.331v-8.18h-2.676v-1.15h6.676Zm7.658 9.33h-1.331v-6.794l-3.449 6.794h-1.519v-9.33h1.317v6.808l3.484-6.808h1.519l-.021 9.33Zm5.289-9.33c.359-.006.716.043 1.059.146.281.086.543.223.774.404a1.695 1.695 0 0 1 .648 1.394v.843c.004.199-.027.397-.091.585-.05.173-.13.336-.237.481-.109.146-.24.273-.39.376-.171.116-.35.218-.537.307.225.05.437.143.628.272.163.115.309.253.432.41.122.157.217.334.278.523.07.202.103.414.098.627v.976c.002.28-.055.558-.167.815-.119.25-.296.467-.516.634a2.382 2.382 0 0 1-.829.418 4.087 4.087 0 0 1-1.15.147h-3.345v-9.358h3.345Zm-2 3.972h1.909c.168.003.335-.02.495-.07.137-.05.265-.123.376-.216a.811.811 0 0 0 .23-.342c.058-.143.087-.297.084-.453v-.8a.987.987 0 0 0-.084-.419.69.69 0 0 0-.23-.293 1.386 1.386 0 0 0-.362-.18 1.6 1.6 0 0 0-.474-.063h-1.944v2.836Zm0 4.18h1.944c.191.005.381-.019.565-.07a1.117 1.117 0 0 0 .69-.585c.067-.158.101-.33.097-.501v-.725a1.224 1.224 0 0 0-.111-.53.895.895 0 0 0-.293-.348 1.242 1.242 0 0 0-.425-.195 2.092 2.092 0 0 0-.523-.063h-1.944v3.017ZM51.163 107.41a2.788 2.788 0 0 0-.098-1.303c-.1-.27-.268-.51-.488-.696a1.46 1.46 0 0 0-.697-.314 4.654 4.654 0 0 0-.697-.07 2.435 2.435 0 0 0-.885.161 1.77 1.77 0 0 0-.696.473 2.27 2.27 0 0 0-.425.781c-.108.345-.16.705-.154 1.066v2.341c-.007.361.045.722.154 1.066.087.284.231.548.425.774.19.211.43.374.697.473.285.114.59.171.898.168.234-.004.467-.025.697-.063.256-.042.496-.15.697-.314.222-.198.39-.45.488-.731.135-.421.169-.867.097-1.303h1.394a4.25 4.25 0 0 1-.188 1.77 2.552 2.552 0 0 1-1.84 1.672 5.413 5.413 0 0 1-1.393.167 4.07 4.07 0 0 1-1.54-.265 3.02 3.02 0 0 1-1.087-.745 3.118 3.118 0 0 1-.655-1.15 4.875 4.875 0 0 1-.223-1.519v-2.383c-.005-.51.07-1.018.223-1.505a3.18 3.18 0 0 1 .648-1.157 2.91 2.91 0 0 1 1.094-.745 3.98 3.98 0 0 1 1.526-.272c.47-.003.937.05 1.393.16a2.532 2.532 0 0 1 1.854 1.68c.187.57.251 1.173.188 1.769l-1.407.014Zm8.473-3.428v1.15h-3.944v2.822h3.526v1.156h-3.526v3.052h3.944v1.143h-5.268v-9.323h5.268Zm4.913 0c.387-.003.772.051 1.143.16.326.094.629.258.885.481.24.213.431.477.557.774.141.337.21.7.202 1.066v.85c.005.365-.064.728-.202 1.066a2.044 2.044 0 0 1-.557.773 2.453 2.453 0 0 1-.878.467 3.95 3.95 0 0 1-1.164.16h-1.798v3.484H61.42v-9.281h3.129Zm-1.812 4.648h1.798c.177.001.353-.022.523-.07a1.244 1.244 0 0 0 .773-.662c.081-.184.122-.384.119-.585v-.864a1.241 1.241 0 0 0-.892-1.241 1.654 1.654 0 0 0-.523-.076h-1.798v3.498Zm11.623-4.648v1.15h-4.146v8.173h-1.317v-9.323h5.463Zm6.244 0v1.15H76.66v2.822h3.533v1.156H76.66v3.052h3.944v1.143h-5.261v-9.323h5.261Zm7.226 0v9.323h-1.317v-3.393h-1.56l-1.394 3.407h-1.561l1.56-3.567a2.869 2.869 0 0 1-.696-.307 2.093 2.093 0 0 1-.53-.467 1.932 1.932 0 0 1-.341-.62 2.307 2.307 0 0 1-.112-.753v-1.323a2.442 2.442 0 0 1 .175-.948c.11-.268.283-.506.501-.697.238-.203.512-.359.809-.46.357-.13.734-.196 1.115-.195h3.351Zm-1.317 1.15h-1.902a1.61 1.61 0 0 0-.516.076 1.265 1.265 0 0 0-.432.244 1.289 1.289 0 0 0-.3.411c-.079.18-.117.375-.11.572v1.031c-.006.217.034.433.118.634.066.16.175.3.313.404.128.099.275.17.432.209.157.042.319.063.481.063h1.916v-3.644Zm7.317-1.15h5.463v1.15h-4.146v2.369h2.014a3.38 3.38 0 0 1 1.052.153c.303.09.585.239.83.439.227.189.408.427.53.697.13.303.194.631.187.962v1.275c.007.332-.057.662-.188.968a2.007 2.007 0 0 1-.53.697c-.239.204-.52.354-.822.439a3.578 3.578 0 0 1-1.059.139h-3.33v-9.288Zm3.129 8.18c.177.002.353-.021.523-.069.168-.043.325-.121.46-.23.135-.109.246-.244.327-.397.082-.179.123-.375.118-.572v-.968a1.307 1.307 0 0 0-.132-.641 1.199 1.199 0 0 0-.334-.384 1.076 1.076 0 0 0-.453-.195 2.481 2.481 0 0 0-.509-.048h-1.812v3.483l1.812.021Zm6.334-8.18h1.603l2.648 9.323h-1.394l-.578-2.153h-2.976l-.557 2.153h-1.429l2.683-9.323Zm1.972 6.02-1.17-4.424-1.185 4.424h2.355Zm3.931-6.02v3.568c-.008.205.03.41.111.599a.934.934 0 0 0 .3.376c.136.103.293.174.46.209.183.037.37.056.557.056.142.01.284.01.425 0l.46-.049.46-.063.467-.069v-4.627h1.31v9.323h-1.317v-3.609c-.167 0-.342.069-.516.09l-.501.063-.502.063h-.495a4.297 4.297 0 0 1-1.017-.119 2.099 2.099 0 0 1-.823-.383 1.918 1.918 0 0 1-.55-.732 2.823 2.823 0 0 1-.209-1.163v-3.533h1.38Zm12.856 9.33h-1.338v-6.794l-3.484 6.794h-1.519v-9.33h1.324v6.808l3.484-6.808h1.519l.014 9.33Zm3.296-9.33v3.972h3.54v-3.972h1.331v9.323h-1.331v-4.181h-3.54v4.181h-1.324v-9.323h1.324Zm8.885 0h1.596l2.655 9.323h-1.394l-.571-2.153h-2.983l-.557 2.153h-1.394l2.648-9.323Zm1.972 6.02-1.171-4.424-1.191 4.424h2.362Z"/><path fill="#1F17FF" d="M27.727.857c-10.146 0-15.023 5.902-15.023 16.974v19.015c0 11.211-4.105 18.047-12.174 19.963v.571c8.07 1.916 12.174 8.752 12.174 19.963v19.015c0 11.072 4.926 16.953 15.044 16.953h2.467V.857h-2.488Z"/></svg>