<svg xmlns="http://www.w3.org/2000/svg" viewBox="0 0 271 163"><path fill="#1F17FF" d="M39.1.6C24.5.6 17.5 9.1 17.5 25v27.3C17.5 68.4 11.6 78.2 0 81v.8c11.6 2.7 17.5 12.6 17.5 28.7v27.3c0 15.9 7.1 24.3 21.6 24.3h3.5V.6h-3.5Z"/><path d="M69.5.7h7.8l7.8 24.8h-6.4l-1.3-4.9h-7.9l-1.3 4.9h-6.4L69.5.7Zm6.6 14.9-2.7-9.7-2.7 9.7h5.4ZM99.3.7c1.4 0 2.6.2 3.7.5 1.1.4 2 .9 2.7 1.6.7.7 1.3 1.5 1.6 2.4.4.9.6 2 .6 3.2v1.5c0 .8-.1 1.5-.3 2.2-.2.7-.5 1.3-.9 1.9-.4.6-.8 1.1-1.4 1.5-.6.4-1.2.8-1.9 1.1l4.3 8.8h-7l-3.4-7.7h-3.5v7.7h-6.1V.7h11.6Zm-5.4 12.2h4.5c.4 0 .8-.1 1.2-.2.4-.1.7-.3 1-.5.3-.2.6-.5.8-1 .2-.4.3-1 .3-1.6v-1c0-.5-.1-1-.3-1.4-.2-.4-.4-.7-.7-1-.3-.2-.7-.4-1.1-.6-.4-.1-.8-.2-1.2-.2h-4.5v7.5Zm33.5-2.8c.1-1.1 0-1.9-.2-2.6-.3-.6-.6-1.1-1.1-1.5-.5-.4-1-.5-1.6-.7-.6-.1-1.2-.2-1.8-.2-.8 0-1.5.1-2.2.4-.6.3-1.2.7-1.7 1.2s-.8 1.2-1.1 2c-.3.8-.4 1.8-.4 2.8v2.8c0 1.1.1 2 .4 2.8.3.8.6 1.5 1.1 2 .5.5 1 .9 1.7 1.2.6.2 1.4.4 2.2.4.6 0 1.2-.1 1.8-.2.6-.1 1.2-.4 1.6-.7.4-.3.9-.8 1.1-1.5.3-.6.3-1.5.2-2.6h6.3c.2 1.8 0 3.3-.6 4.6-.6 1.3-1.4 2.3-2.4 3.1-1.1.8-2.3 1.4-3.6 1.7-1.4.4-2.8.5-4.4.5-1.8 0-3.4-.3-4.9-.8-1.5-.5-2.6-1.3-3.6-2.3-1-1-1.7-2.2-2.3-3.6-.5-1.4-.8-3-.8-4.8v-2.6c0-1.8.3-3.4.8-4.8s1.3-2.6 2.2-3.6c1-1 2.2-1.8 3.6-2.3 1.4-.5 3.1-.8 4.9-.8 1.5 0 3 .2 4.3.5 1.4.4 2.6.9 3.7 1.7 1.1.8 1.9 1.8 2.4 3.1.6 1.3.8 2.8.6 4.6h-6.2v.2ZM156.8.7v4.9h-7.6v19.9h-6.1v-20h-7.6V.6h21.3v.1Zm8.8 0v24.8h-6.1V.7h6.1Zm20.4 9.4c.1-1.1 0-1.9-.2-2.6-.3-.6-.6-1.1-1.1-1.5-.5-.3-1-.5-1.6-.7-.6-.1-1.2-.2-1.8-.2-.8 0-1.5.1-2.2.4-.6.3-1.2.7-1.7 1.2s-.8 1.2-1.1 2c-.3.8-.4 1.8-.4 2.8v2.8c0 1.1.1 2 .4 2.8.3.8.6 1.5 1.1 2 .5.5 1 .9 1.7 1.2.7.2 1.4.4 2.2.4.6 0 1.2-.1 1.8-.2.6-.1 1.2-.4 1.6-.7.5-.3.9-.8 1.1-1.5.3-.6.3-1.5.2-2.6h6.3c.2 1.8 0 3.3-.6 4.6-.6 1.3-1.4 2.3-2.4 3.1-1.1.8-2.3 1.4-3.7 1.7-1.4.4-2.8.5-4.4.5-1.8 0-3.4-.3-4.9-.8-1.4-.5-2.6-1.3-3.6-2.3-1-1-1.7-2.2-2.3-3.6-.5-1.4-.8-3-.8-4.8v-2.6c0-1.8.3-3.4.8-4.8s1.3-2.6 2.2-3.6c1-1 2.2-1.8 3.6-2.3 1.4-.5 3.1-.8 4.9-.8 1.5 0 3 .2 4.3.5 1.4.4 2.6.9 3.7 1.7 1.1.8 1.9 1.8 2.4 3.1.6 1.3.8 2.8.6 4.6H186v.2ZM77.9 46.4c.1-.8.1-1.4-.1-1.9-.1-.5-.4-.9-.7-1.2-.3-.3-.7-.5-1.2-.6-.5-.1-1.1-.1-1.7-.1-.7 0-1.3 0-1.8.1-.6.1-1.1.2-1.5.5-.4.2-.7.5-1 .8-.3.3-.4.7-.4 1.1v.6c0 .6.2 1.1.6 1.4.4.3 1 .6 1.7.7.7.2 1.5.3 2.4.4.9.1 1.8.2 2.7.4.9.1 1.8.3 2.7.6.9.3 1.7.6 2.4 1.2.7.5 1.3 1.2 1.7 2 .4.8.7 1.8.7 3.1v.5c0 1.1-.3 2.1-.8 3-.5.9-1.2 1.7-2.2 2.4-.9.7-2.1 1.2-3.4 1.5-1.4.4-2.9.5-4.6.5-1.7 0-3.3-.2-4.6-.5-1.4-.4-2.5-.9-3.4-1.7-.9-.8-1.6-1.8-2-3.1-.4-1.2-.5-2.7-.3-4.5h6.1c-.1 1.1-.1 1.9.1 2.6.2.6.5 1.1.9 1.5.4.3.9.6 1.5.7.6.1 1.2.2 1.8.2.7 0 1.3-.1 1.9-.2.6-.1 1.1-.3 1.5-.5.4-.2.8-.5 1-.9.2-.3.4-.7.4-1.2v-.5c0-.7-.2-1.2-.6-1.5-.4-.3-1-.6-1.7-.8-.7-.2-1.5-.3-2.4-.4l-2.7-.3c-.9-.1-1.8-.3-2.7-.5-.9-.2-1.7-.6-2.4-1.1-.7-.5-1.3-1.2-1.7-2-.4-.8-.6-1.9-.6-3.2V45c0-1 .3-2 .8-2.9.5-.9 1.2-1.6 2.2-2.3 1-.7 2.1-1.1 3.4-1.5 1.3-.3 2.8-.5 4.3-.5s2.9.2 4.2.5c1.3.3 2.4.9 3.3 1.6.9.7 1.6 1.7 2 2.8.4 1.1.6 2.4.4 3.9h-6.2v-.2Zm16.8-8.2V63h-6.2V38.2h6.2Zm16 0c1.4 0 2.6.2 3.7.5 1.1.4 2 .9 2.7 1.6.7.7 1.3 1.5 1.6 2.4.4.9.6 2 .6 3.2v1.5c0 .8-.1 1.5-.3 2.2-.2.7-.5 1.3-.9 1.9-.4.6-.8 1.1-1.4 1.5-.6.4-1.2.8-1.9 1.1l4.3 8.8h-7l-3.4-7.7h-3.5v7.7h-6.1V38.1h11.6v.1Zm-5.5 12.2h4.5c.4 0 .8-.1 1.2-.2.4-.1.7-.3 1-.5.3-.2.6-.5.8-1 .2-.4.3-1 .3-1.6v-1c0-.5-.1-1-.3-1.4-.2-.4-.4-.7-.7-1-.3-.2-.7-.4-1.1-.6-.4-.1-.8-.2-1.2-.2h-4.5v7.5Zm35.5-12.2v4.9h-11.8v5.1h10.4v4.4h-10.4v5.6h11.8v4.9h-17.9V38.3h17.9v-.1Zm10.5 0 9.2 15.3h.1V38.2h5.5V63h-6.4l-9.2-15.3h-.1V63h-5.7V38.2h6.6Zm25.3 0V63h-6.1V38.2h6.1Zm10.5 0h7.8l7.8 24.8h-6.4l-1.3-4.9h-7.8l-1.3 4.9h-6.4l7.6-24.8Zm6.6 14.8-2.7-9.7-2.7 9.7h5.4Zm-123 33.8c.1-.6.1-1.2 0-1.6-.1-.4-.3-.7-.5-.9-.2-.2-.5-.3-.8-.4-.3-.1-.7-.1-1-.1-.4 0-.7 0-1 .1-.3.1-.6.2-.8.3-.2.1-.4.3-.6.5-.1.2-.2.5-.2.8v.7c0 .4.1.7.3.9.2.2.5.4.8.5.3.1.7.3 1.1.3.4.1.9.2 1.3.3.5.1.9.2 1.3.4.4.1.8.4 1.1.6.3.3.6.6.8 1 .2.4.3.9.3 1.5v.6c0 .5-.1 1-.3 1.5-.2.4-.5.8-.9 1.1-.4.3-.9.5-1.5.7-.6.2-1.3.2-2 .2s-1.4-.1-2-.2c-.6-.2-1.1-.4-1.5-.8-.4-.4-.7-.9-.9-1.6-.2-.7-.2-1.5-.2-2.6h2c-.1.8-.1 1.5.1 1.9.1.5.3.8.6 1.1.2.2.5.4.9.5.3.1.7.1 1.1.1.4 0 .7 0 1.1-.1l.9-.3c.3-.1.5-.3.6-.6.1-.2.2-.5.2-.8v-.6c0-.4-.1-.7-.3-.9-.2-.2-.5-.4-.8-.5-.3-.1-.7-.3-1.1-.4-.4-.1-.9-.2-1.3-.3-.4-.1-.9-.2-1.3-.4s-.8-.4-1.1-.6c-.3-.3-.6-.6-.8-1-.2-.4-.3-.9-.3-1.5v-.6c0-.5.1-1 .3-1.4.2-.4.5-.8.9-1.1.4-.3.9-.5 1.5-.7.6-.2 1.2-.2 1.9-.2s1.3.1 1.8.2c.6.2 1 .4 1.4.8.4.4.7.8.9 1.4.2.6.2 1.3.2 2.2h-2.2Zm13.3-4.4V84h-3.8v11.7h-1.9V84h-3.8v-1.6h9.5Zm9.4 0V84h-5.6v4h5v1.7h-5v4.4h5.6v1.6h-7.5V82.4h7.5Zm4.4 0v11.7h5.9v1.6h-7.8V82.4h1.9Zm9.8 0v11.7h5.9v1.6h-7.8V82.4h1.9Zm15.5 0V84h-5.6v4h5v1.7h-5v4.4h5.6v1.6h-7.5V82.4h7.5Zm7.3 0c.6 0 1.1.1 1.6.2.4.2.8.4 1.2.7.3.3.6.6.7 1 .2.4.2.9.2 1.4v1.9c0 .4-.1.8-.2 1.1-.1.3-.3.6-.5.9-.2.3-.5.5-.8.7-.3.2-.6.3-1 .4l2.2 5.1h-2.2l-2-4.9h-2.2v4.9h-1.8V82.5h4.8v-.1Zm-2.9 6.8h2.7c.2 0 .5 0 .7-.1l.6-.3c.2-.1.3-.3.4-.6.1-.2.2-.5.2-.9v-1.4c0-.3-.1-.6-.2-.8-.1-.2-.3-.4-.4-.6-.2-.2-.4-.3-.6-.4-.2-.1-.5-.1-.7-.1h-2.7v5.2Zm11.1-6.8-.8 3.2h-1.6l.8-3.2h1.6Zm9.4 4.4c.1-.6.1-1.2 0-1.6-.1-.4-.3-.7-.5-.9-.2-.2-.5-.3-.8-.4-.3-.1-.7-.1-1-.1-.4 0-.7 0-1 .1-.3.1-.6.2-.8.3-.2.1-.4.3-.6.5-.1.2-.2.5-.2.8v.7c0 .4.1.7.3.9.2.2.5.4.8.5.3.1.7.3 1.1.3.4.1.9.2 1.3.3.5.1.9.2 1.3.4.4.1.8.4 1.1.6.3.3.6.6.8 1 .2.4.3.9.3 1.5v.6c0 .5-.1 1-.3 1.5-.2.4-.5.8-.9 1.1-.4.3-.9.5-1.5.7-.6.2-1.3.2-2 .2s-1.4-.1-2-.2c-.6-.2-1.1-.4-1.5-.8-.4-.4-.7-.9-.9-1.6-.2-.7-.2-1.5-.2-2.6h2c-.1.8-.1 1.5.1 1.9.1.5.3.8.6 1.1.2.2.5.4.9.5.3.1.7.1 1.1.1.4 0 .7 0 1.1-.1l.9-.3c.3-.1.5-.3.6-.6.1-.2.2-.5.2-.8v-.6c0-.4-.1-.7-.3-.9-.2-.2-.5-.4-.8-.5-.3-.1-.7-.3-1.1-.4-.4-.1-.9-.2-1.3-.3-.4-.1-.9-.2-1.3-.4s-.8-.4-1.1-.6c-.3-.2-.6-.6-.8-1-.2-.4-.3-.9-.3-1.5v-.6c0-.5.1-1 .3-1.4.2-.4.5-.8.9-1.1.4-.3.9-.5 1.5-.7.6-.2 1.2-.2 1.9-.2s1.3.1 1.8.2 1 .4 1.4.8c.4.4.7.8.9 1.4.2.6.2 1.3.2 2.2h-2.2Zm16.5 0c.1-.6.1-1.2 0-1.6-.1-.4-.3-.7-.5-.9-.2-.2-.5-.3-.8-.4-.3-.1-.7-.1-1-.1-.4 0-.7 0-1 .1-.3.1-.6.2-.8.3-.2.1-.4.3-.6.5-.1.2-.2.5-.2.8v.7c0 .4.1.7.3.9.2.2.5.4.8.5.3.1.7.3 1.1.3.4.1.9.2 1.3.3.5.1.9.2 1.3.4.4.1.8.4 1.1.6.3.3.6.6.8 1 .2.4.3.9.3 1.5v.6c0 .5-.1 1-.3 1.5-.2.4-.5.8-.9 1.1-.4.3-.9.5-1.5.7-.6.2-1.2.2-2 .2s-1.4-.1-2-.2c-.6-.2-1.1-.4-1.5-.8-.4-.4-.7-.9-.9-1.6-.2-.7-.2-1.5-.2-2.6h2c-.1.8-.1 1.5.1 1.9.1.5.3.8.6 1.1.2.2.5.4.9.5.3.1.7.1 1.1.1.4 0 .7 0 1.1-.1l.9-.3c.3-.2.5-.3.6-.6.1-.2.2-.5.2-.8v-.6c0-.4-.1-.7-.3-.9-.2-.2-.5-.4-.8-.5-.3-.1-.7-.3-1.1-.4-.4-.1-.9-.2-1.3-.3-.4-.1-.9-.2-1.3-.4s-.8-.4-1.1-.6c-.3-.3-.6-.6-.8-1-.2-.4-.3-.9-.3-1.5v-.6c0-.5.1-1 .3-1.4.2-.4.5-.8.9-1.1.4-.3.9-.5 1.5-.7.6-.2 1.2-.2 1.9-.2s1.3.1 1.8.2c.6.2 1 .4 1.4.8.4.4.7.8.9 1.4.2.6.2 1.3.2 2.2h-2.2Zm12.3-4.4V84h-5.6v4h5v1.7h-5v4.4h5.6v1.6h-7.5V82.4h7.5Zm5.4 0h2.3l3.8 13.3h-2l-.8-3.1h-4.2l-.8 3.1h-2l3.7-13.3Zm2.8 8.6-1.7-6.3-1.7 6.3h3.4Zm17.7-3.7c.1-.8 0-1.4-.1-1.9-.2-.5-.4-.8-.7-1-.3-.2-.6-.4-1-.4-.4-.1-.7-.1-1-.1-.5 0-.9.1-1.3.2s-.7.4-1 .7c-.3.3-.5.7-.6 1.1-.1.4-.2 1-.2 1.5v3.4c0 .6.1 1.1.2 1.5.1.4.3.8.6 1.1.3.3.6.5 1 .7.4.2.8.2 1.3.2.3 0 .7 0 1-.1.4-.1.7-.2 1-.4.3-.2.5-.6.7-1 .2-.5.2-1.1.1-1.9h2c.1 1 0 1.9-.3 2.5-.2.7-.6 1.2-1 1.6-.4.4-1 .7-1.6.8-.6.2-1.3.2-2 .2-.9 0-1.6-.1-2.2-.4-.6-.3-1.1-.6-1.6-1.1-.5-.5-.7-1-.9-1.6-.2-.6-.3-1.4-.3-2.2v-3.4c0-.8.1-1.5.3-2.2.2-.6.5-1.2.9-1.7s.9-.8 1.6-1.1c.7-.3 1.4-.4 2.2-.4.7 0 1.3.1 2 .2.6.2 1.1.4 1.6.8s.8.9 1 1.6c.2.7.3 1.5.3 2.5h-2v.3Zm14.4 3.6c0 .8-.1 1.5-.4 2.1-.2.6-.6 1.2-1 1.6-.5.5-1 .8-1.6 1-.6.2-1.3.4-2.1.4s-1.5-.1-2.1-.4c-.6-.2-1.1-.6-1.6-1-.4-.5-.8-1-1-1.6-.2-.6-.4-1.3-.4-2.1v-3.5c0-.8.1-1.5.4-2.1.2-.6.6-1.2 1-1.6.4-.5 1-.8 1.6-1 .6-.2 1.3-.4 2.1-.4.7 0 1.4.1 2.1.4.6.2 1.2.6 1.6 1 .4.5.8 1 1 1.6.2.6.4 1.3.4 2.1v3.5Zm-2.2-5.1c-.1-.4-.3-.8-.6-1.1-.3-.3-.6-.5-1-.7-.4-.1-.8-.2-1.3-.2s-.9.1-1.3.2-.7.4-1 .7c-.3.3-.5.7-.6 1.1-.1.4-.2.9-.2 1.5v3.5c0 .6.1 1.1.2 1.5.1.4.3.8.6 1.1.3.3.6.5 1 .6.4.1.8.2 1.3.2s.9-.1 1.3-.2.7-.4 1-.6c.3-.3.5-.6.6-1.1.1-.4.2-.9.2-1.5v-3.5c0-.5 0-1-.2-1.5Zm5.6-3.4 2 10.6 2.2-10.6h2l2.2 10.6 2-10.6h1.9l-2.8 13.3h-2.2l-2.2-10.5-2.2 10.5h-2.2l-2.8-13.3h2.1ZM68 104.4c.7 0 1.3.1 1.9.3.6.2 1.1.6 1.5 1 .4.4.8 1 1 1.6.2.6.4 1.3.4 2.1v3.3c0 .8-.1 1.5-.4 2.1-.2.6-.6 1.1-1 1.6-.4.4-.9.8-1.5 1-.6.2-1.2.4-1.9.4h-4.3v-13.3l4.3-.1ZM65.6 116H68c.4 0 .8-.1 1.1-.2.3-.1.6-.3.9-.6.2-.3.4-.6.6-1.1.1-.4.2-.9.2-1.5v-3.3c0-.6-.1-1.1-.2-1.5-.1-.4-.3-.8-.6-1-.2-.3-.5-.5-.9-.6-.3-.1-.7-.2-1.1-.2h-2.4v10Zm17.2-11.6v1.6h-5.6v4h5v1.7h-5v4.4h5.6v1.6h-7.5v-13.3h7.5Zm1.9 6.3h5.2v1.3h-5.2v-1.3Zm14.7-6.3v1.6h-5.6v4h5v1.7h-5v4.4h5.6v1.6h-7.5v-13.3h7.5Zm4.2 0 2.5 4.5 2.5-4.5h2l-3.5 6.5 3.6 6.8h-2l-2.6-4.8-2.6 4.8h-2l3.6-6.8-3.5-6.5h2Zm17.8 0v1.6h-3.8v11.7h-1.9V106h-3.8v-1.6h9.5Zm3.8 0v13.3h-1.9v-13.3h1.9Zm5 0 5 9.8v-9.8h1.8v13.3h-2.2l-5-9.7v9.7H128v-13.3h2.2Zm17.3 4.8c.1-.8 0-1.4-.1-1.9-.2-.5-.4-.8-.7-1-.3-.2-.6-.4-1-.4-.4-.1-.7-.1-1-.1-.5 0-.9.1-1.3.2-.4.2-.7.4-1 .7-.3.3-.5.7-.6 1.1-.1.4-.2 1-.2 1.5v3.4c0 .6.1 1.1.2 1.5.1.4.3.8.6 1.1.3.3.6.5 1 .7.4.2.8.2 1.3.2.3 0 .7 0 1-.1.4-.1.7-.2 1-.4.3-.2.5-.6.7-1 .2-.5.2-1.1.1-1.9h2c.1 1 0 1.9-.3 2.5-.2.7-.6 1.2-1 1.6-.4.4-1 .7-1.6.8-.6.2-1.3.2-2 .2-.9 0-1.6-.1-2.2-.4-.6-.3-1.1-.6-1.6-1.1-.4-.5-.7-1-.9-1.6-.2-.6-.3-1.4-.3-2.2v-3.4c0-.8.1-1.5.3-2.2.2-.6.5-1.2.9-1.7s.9-.8 1.6-1.1c.6-.3 1.4-.4 2.2-.4.7 0 1.3.1 2 .2.6.2 1.1.4 1.6.8s.8.9 1 1.6c.2.7.3 1.5.3 2.5h-2v.3Zm12.9-4.8v1.6h-3.8v11.7h-1.9V106h-3.8v-1.6h9.5Zm3.8 0v13.3h-1.9v-13.3h1.9Zm12.7 8.4c0 .8-.1 1.5-.4 2.1-.2.6-.6 1.2-1 1.6-.5.5-1 .8-1.6 1-.6.2-1.3.4-2.1.4s-1.5-.1-2.1-.4c-.6-.2-1.1-.6-1.6-1-.4-.5-.8-1-1-1.6-.2-.6-.4-1.3-.4-2.1v-3.5c0-.8.1-1.5.4-2.1.2-.6.6-1.2 1-1.6.4-.5 1-.8 1.6-1 .6-.2 1.3-.4 2.1-.4.7 0 1.4.1 2.1.4.6.2 1.2.6 1.6 1 .4.5.8 1 1 1.6.2.6.4 1.3.4 2.1v3.5Zm-2.2-5c-.1-.4-.3-.8-.6-1.1-.3-.3-.6-.5-1-.7-.4-.1-.8-.2-1.3-.2s-.9.1-1.3.2-.7.4-1 .7c-.3.3-.5.7-.6 1.1-.1.4-.2.9-.2 1.5v3.5c0 .6.1 1.1.2 1.5.1.4.3.8.6 1.1.3.3.6.5 1 .6.4.1.8.2 1.3.2s.9-.1 1.3-.2.7-.4 1-.6c.3-.3.5-.6.6-1.1.1-.4.2-.9.2-1.5v-3.5c0-.6 0-1.1-.2-1.5Zm7-3.4 5 9.8v-9.8h1.8v13.3h-2.2l-5-9.7v9.7h-1.8v-13.3h2.2Zm18.9 0c.6 0 1.1.1 1.6.2.5.2.9.4 1.3.7.3.3.6.7.8 1.1.2.4.3.9.3 1.5v1.2c0 .6-.1 1.1-.3 1.5-.2.4-.5.8-.8 1.1-.3.3-.8.5-1.2.7-.5.2-1 .2-1.7.2H198v5h-1.9v-13.3h4.5v.1Zm-2.5 6.6h2.6c.3 0 .5 0 .7-.1.2-.1.5-.2.6-.3.2-.2.3-.4.5-.6.1-.2.2-.5.2-.8V108c0-.3-.1-.6-.2-.8-.1-.2-.3-.4-.5-.6-.2-.2-.4-.3-.6-.4-.2-.1-.5-.1-.7-.1h-2.6v4.9Zm13.7-6.6c.6 0 1.1.1 1.6.2s.8.4 1.2.7c.3.3.6.6.7 1 .2.4.2.9.2 1.4v1.9c0 .4-.1.8-.2 1.1-.1.3-.3.6-.5.9-.2.3-.5.5-.8.7-.3.2-.6.3-1 .4l2.2 5.1H213l-2-4.9h-2.2v4.9h-1.9v-13.3h4.9v-.1Zm-3 6.7h2.7c.2 0 .5 0 .7-.1l.6-.3c.2-.1.3-.3.4-.6.1-.2.2-.5.2-.9v-1.4c0-.3-.1-.6-.2-.8-.1-.2-.3-.4-.4-.6-.2-.2-.4-.3-.6-.4-.2-.1-.5-.1-.7-.1h-2.7v5.2Zm19.1 1.7c0 .8-.1 1.5-.4 2.1-.2.6-.6 1.2-1 1.6-.4.4-1 .8-1.6 1-.6.2-1.3.4-2.1.4s-1.5-.1-2.1-.4c-.6-.2-1.1-.6-1.6-1-.4-.5-.8-1-1-1.6-.2-.6-.4-1.3-.4-2.1v-3.5c0-.8.1-1.5.4-2.1.2-.6.6-1.2 1-1.6.4-.5 1-.8 1.6-1 .6-.2 1.3-.4 2.1-.4.7 0 1.4.1 2.1.4.6.2 1.2.6 1.6 1 .4.5.8 1 1 1.6.2.6.4 1.3.4 2.1v3.5Zm-2.2-5c-.1-.4-.3-.8-.6-1.1-.3-.3-.6-.5-1-.7-.4-.1-.8-.2-1.3-.2s-.9.1-1.3.2-.7.4-1 .7c-.3.3-.5.7-.6 1.1-.1.4-.2.9-.2 1.5v3.5c0 .6.1 1.1.2 1.5.1.4.3.8.6 1.1.3.3.6.5 1 .6.4.1.8.2 1.3.2s.9-.1 1.3-.2.7-.4 1-.6c.3-.3.5-.6.6-1.1.1-.4.2-.9.2-1.5v-3.5c0-.6-.1-1.1-.2-1.5Zm11.7 6.1c0 .5-.1.9-.2 1.4-.1.5-.3.9-.6 1.3s-.6.7-1.1 1c-.5.2-1.1.4-1.8.4h-.1c-.7 0-1.2-.1-1.8-.2-.5-.2-.9-.4-1.3-.8-.3-.4-.6-.9-.7-1.6-.1-.7-.2-1.5-.1-2.6h2c-.1.8 0 1.4 0 1.9.1.5.2.8.4 1.1.2.2.4.4.7.5.3.1.6.1.9.1h.1c.4 0 .7-.1.9-.2.2-.1.4-.3.5-.5.1-.2.2-.5.2-.7v-10.4h1.9v9.3h.1Zm10.3-9.5v1.6h-5.6v4h5v1.7h-5v4.4h5.6v1.6h-7.5v-13.3h7.5Zm10.2 4.8c.1-.8 0-1.4-.1-1.9s-.4-.8-.7-1c-.3-.2-.6-.4-1-.4-.4-.1-.7-.1-1-.1-.5 0-.9.1-1.3.2-.4.2-.7.4-1 .7-.3.3-.5.7-.6 1.1-.1.4-.2 1-.2 1.5v3.4c0 .6.1 1.1.2 1.5.1.4.3.8.6 1.1.3.3.6.5 1 .7.4.2.8.2 1.3.2.3 0 .7 0 1-.1.4-.1.7-.2 1-.4.3-.2.5-.6.7-1 .2-.4.2-1.1.1-1.9h2c.1 1 0 1.9-.3 2.5-.2.7-.6 1.2-1 1.6-.4.4-1 .7-1.6.8-.6.2-1.3.2-2 .2-.9 0-1.6-.1-2.2-.4-.6-.3-1.1-.6-1.6-1.1-.4-.5-.7-1-.9-1.6-.2-.6-.3-1.4-.3-2.2v-3.4c0-.8.1-1.5.3-2.2.2-.6.5-1.2.9-1.7s.9-.8 1.6-1.1c.6-.3 1.4-.4 2.2-.4.7 0 1.3.1 2 .2.6.2 1.1.4 1.6.8s.8.9 1 1.6c.2.7.3 1.5.3 2.5h-2v.3Zm12.9-4.8v1.6H267v11.7h-1.9V106h-3.8v-1.6h9.5ZM73.6 134.7c0 .8-.1 1.5-.4 2.1-.3.6-.6 1.2-1 1.6-.4.4-1 .8-1.6 1-.6.2-1.3.4-2.1.4s-1.5-.1-2.1-.4c-.6-.2-1.1-.6-1.6-1-.4-.5-.8-1-1-1.6-.2-.6-.4-1.3-.4-2.1v-3.5c0-.8.1-1.5.4-2.1.2-.6.6-1.2 1-1.6.4-.4 1-.8 1.6-1 .6-.2 1.3-.4 2.1-.4.7 0 1.4.1 2.1.4.6.2 1.2.6 1.6 1 .4.5.8 1 1 1.6.2.6.4 1.3.4 2.1v3.5Zm-2.2-5c-.1-.4-.3-.8-.6-1.1-.3-.3-.6-.5-1-.7-.4-.1-.8-.2-1.3-.2s-.9.1-1.3.2-.7.4-1 .7c-.3.3-.5.7-.6 1.1-.1.4-.2.9-.2 1.5v3.5c0 .6.1 1.1.2 1.5.1.4.3.8.6 1.1.3.3.6.5 1 .6.4.1.8.2 1.3.2s.9-.1 1.3-.2.7-.4 1-.6c.3-.3.5-.6.6-1.1.1-.4.2-.9.2-1.5v-3.5c0-.6-.1-1.1-.2-1.5Zm7-3.4 5 9.8v-9.8h1.8v13.3H83l-5-9.7v9.7h-1.8v-13.3h2.2Zm23.1 0v1.6h-3.8v11.7h-1.9v-11.7H92v-1.6h9.5Zm3.7 0v5.7h5.1v-5.7h1.9v13.3h-1.9v-6h-5.1v6h-1.9v-13.3h1.9Zm17.3 0v1.6h-5.6v4h5v1.7h-5v4.4h5.6v1.6H115v-13.3h7.5Zm9.3 0v13.3h-1.9v-13.3h1.9Zm5 0 5 9.8v-9.8h1.8v13.3h-2.2l-5-9.7v9.7h-1.8v-13.3h2.2Zm11.5 0v13.3h-1.9v-13.3h1.9Zm11.4 0v1.6h-3.8v11.7H154v-11.7h-3.8v-1.6h9.5Zm3.7 0v13.3h-1.9v-13.3h1.9Zm5.7 0h2.3l3.8 13.3h-2l-.8-3.1h-4.2l-.8 3.1h-2l3.7-13.3Zm2.9 8.6-1.7-6.3-1.7 6.3h3.4Zm12.4-8.6v1.6h-3.8v11.7h-1.9v-11.7h-3.8v-1.6h9.5Zm3.8 0v13.3h-1.9v-13.3h1.9Zm3.9 0 2.8 11 2.8-11h2l-3.7 13.3h-2.3l-3.7-13.3h2.1Zm17.1 0v1.6h-5.6v4h5v1.7h-5v4.4h5.6v1.6h-7.5v-13.3h7.5ZM73.6 156.6c0 .8-.1 1.5-.4 2.1-.2.6-.6 1.2-1 1.6-.4.4-1 .8-1.6 1-.6.2-1.3.4-2.1.4s-1.5-.1-2.1-.4c-.6-.2-1.1-.6-1.6-1-.4-.5-.8-1-1-1.6-.2-.6-.4-1.3-.4-2.1v-3.5c0-.8.1-1.5.4-2.1.2-.6.6-1.2 1-1.6.4-.4 1-.8 1.6-1 .6-.2 1.3-.4 2.1-.4.7 0 1.4.1 2.1.4.6.2 1.2.6 1.6 1 .4.5.8 1 1 1.6.2.6.4 1.3.4 2.1v3.5Zm-2.2-5c-.1-.4-.3-.8-.6-1.1-.3-.3-.6-.5-1-.7-.4-.1-.8-.2-1.3-.2s-.9.1-1.3.2-.7.4-1 .7c-.3.3-.5.7-.6 1.1-.1.4-.2.9-.2 1.5v3.5c0 .6.1 1.1.2 1.5.1.4.3.8.6 1.1.3.3.6.5 1 .6.4.1.8.2 1.3.2s.9-.1 1.3-.2.7-.4 1-.6c.3-.3.5-.6.6-1.1.1-.4.2-.9.2-1.5v-3.5c0-.6-.1-1.1-.2-1.5Zm12.6-3.4v1.6h-5.9v4h5.3v1.7h-5.3v6h-1.9v-13.3H84Zm13.8 4.3c.1-.6.1-1.2 0-1.6-.1-.4-.3-.7-.5-.9-.2-.2-.5-.3-.8-.4-.3-.1-.7-.1-1-.1-.4 0-.7 0-1 .1-.3.1-.6.2-.8.3-.2.1-.4.3-.6.5-.1.2-.2.5-.2.8v.7c0 .4.1.7.3.9.2.2.5.4.8.5.3.1.7.3 1.1.3.4.1.9.2 1.3.3.5.1.9.2 1.3.4.4.1.8.4 1.1.6.3.3.6.6.8 1 .2.4.3.9.3 1.5v.6c0 .5-.1 1-.3 1.5-.2.4-.5.8-.9 1.1-.4.3-.9.5-1.5.7-.6.2-1.3.2-2 .2s-1.4-.1-2-.2c-.6-.2-1.1-.4-1.5-.8-.4-.4-.7-.9-.9-1.6-.2-.7-.2-1.5-.2-2.6h2c-.1.8-.1 1.5.1 1.9.1.5.3.8.6 1.1.2.2.5.4.9.5.3.1.7.1 1.1.1.4 0 .7 0 1.1-.1l.9-.3c.3-.2.5-.3.6-.6.1-.2.2-.5.2-.8v-.6c0-.4-.1-.7-.3-.9-.2-.2-.5-.4-.8-.5-.3-.1-.7-.3-1.1-.4-.4-.1-.9-.2-1.3-.3-.4-.1-.9-.2-1.3-.4s-.8-.4-1.1-.6c-.3-.3-.6-.6-.8-1-.2-.4-.3-.9-.3-1.5v-.7c0-.5.1-1 .3-1.4.2-.4.5-.8.9-1.1.4-.3.9-.5 1.5-.7.6-.2 1.2-.2 1.9-.2s1.3.1 1.8.2c.6.2 1 .4 1.4.8.4.4.7.8.9 1.4.2.6.2 1.3.2 2.2h-2.2v.1Zm12.3-4.3v1.6h-5.6v4h5v1.7h-5v4.4h5.6v1.6h-7.5v-13.3h7.5Zm7.4 0c.6 0 1.1.1 1.6.2s.8.4 1.2.7c.3.3.6.6.7 1 .2.4.2.9.2 1.4v1.9c0 .4-.1.8-.2 1.1-.1.3-.3.6-.5.9-.2.3-.5.5-.8.7-.3.2-.6.3-1 .4l2.2 5.1h-2.2l-2-4.9h-2.2v4.9h-1.9v-13.3h4.9v-.1Zm-3 6.8h2.7c.2 0 .5 0 .7-.1l.6-.3c.2-.1.3-.3.4-.6.1-.2.2-.5.2-.9v-1.4c0-.3-.1-.6-.2-.8-.1-.2-.3-.4-.4-.6-.2-.2-.4-.3-.6-.4-.2-.1-.5-.1-.7-.1h-2.7v5.2Zm18.9.4c0 1.1 0 2-.1 2.8-.1.8-.4 1.5-.8 2s-.9.9-1.5 1.2c-.6.3-1.5.4-2.4.4-.8 0-1.5-.1-2.1-.4-.6-.3-1.2-.6-1.6-1.1-.4-.5-.8-1-1-1.6-.2-.6-.4-1.4-.4-2.2v-3.4c0-.8.1-1.5.4-2.2.2-.6.6-1.2 1-1.7s1-.8 1.6-1.1c.6-.3 1.3-.4 2.1-.4.6 0 1.2.1 1.8.2.6.2 1.1.4 1.6.8s.9.9 1.1 1.6c.3.7.4 1.5.3 2.6h-2c.1-.8 0-1.5-.1-1.9-.2-.5-.4-.8-.7-1.1-.3-.2-.6-.4-1-.5-.4-.1-.7-.1-1-.1-.5 0-.9.1-1.3.2s-.7.4-1 .7c-.3.3-.5.7-.6 1.1-.1.5-.2 1-.2 1.6v3.4c0 .6.1 1.1.2 1.6.1.4.3.8.6 1.1.3.3.6.5 1 .7.4.2.8.2 1.3.2.3 0 .6 0 1-.1s.6-.2.9-.4c.3-.2.5-.5.7-.9.2-.4.3-.9.3-1.6H128v-1.7h5.4v.2Zm10.1-7.2v1.6h-5.6v4h5v1.7h-5v4.4h5.6v1.6H136v-13.3h7.5Zm4.4 0v13.3H146v-13.3h1.9Zm12.4 0c.6 0 1.1.1 1.5.2.4.1.8.3 1.1.6.3.2.5.5.7.9.2.3.2.7.2 1.1v1.2c0 .3 0 .6-.1.8-.1.3-.2.5-.3.7-.1.2-.3.4-.6.5-.2.2-.5.3-.8.4.4.1.7.2.9.4l.6.6c.2.2.3.5.4.7.1.3.1.6.1.9v1.4c0 .4-.1.8-.2 1.2-.2.4-.4.7-.7.9-.3.3-.7.5-1.2.6-.5.1-1 .2-1.6.2h-4.8v-13.3h4.8Zm-2.8 5.7h2.7c.3 0 .5 0 .7-.1.2-.1.4-.2.5-.3.1-.1.3-.3.3-.5.1-.2.1-.4.1-.6v-1.1c0-.2 0-.4-.1-.6-.1-.2-.2-.3-.3-.4-.1-.1-.3-.2-.5-.3-.2-.1-.4-.1-.7-.1h-2.7v4Zm0 6h2.8c.3 0 .6 0 .8-.1l.6-.3c.2-.1.3-.3.4-.5.1-.2.1-.4.1-.7v-1.1c0-.3-.1-.5-.2-.8-.1-.2-.2-.4-.4-.5l-.6-.3c-.2-.1-.5-.1-.7-.1h-2.8v4.4Zm12-11.7h2.3l3.8 13.3h-2l-.8-3.1h-4.3l-.8 3.1h-2l3.8-13.3Zm2.8 8.6-1.7-6.3-1.7 6.3h3.4Zm12.4-3.7c.1-.8 0-1.4-.1-1.9-.2-.5-.4-.8-.7-1-.3-.2-.6-.4-1-.4-.4-.1-.7-.1-1-.1-.5 0-.9.1-1.3.2s-.7.4-1 .7c-.3.3-.5.7-.6 1.1-.1.4-.2 1-.2 1.5v3.4c0 .6.1 1.1.2 1.5.1.4.3.8.6 1.1.3.3.6.5 1 .7.4.2.8.2 1.3.2.3 0 .7 0 1-.1.4-.1.7-.2 1-.4.3-.2.5-.6.7-1 .2-.5.2-1.1.1-1.9h2c.1 1 0 1.9-.3 2.5-.2.7-.6 1.2-1 1.6-.4.4-1 .7-1.6.8-.6.2-1.3.2-2 .2-.9 0-1.6-.1-2.2-.4-.6-.3-1.1-.6-1.6-1.1-.5-.5-.7-1-.9-1.6-.2-.6-.3-1.4-.3-2.2v-3.4c0-.8.1-1.5.3-2.2.2-.6.5-1.2.9-1.7s.9-.8 1.6-1.1c.7-.3 1.4-.4 2.2-.4.7 0 1.3.1 2 .2.6.2 1.1.4 1.6.8s.8.9 1 1.6c.2.7.3 1.5.3 2.5h-2v.3Zm6.5-4.9v5.7h5.1v-5.7h1.9v13.3h-1.9v-6h-5.1v6h-1.9v-13.3h1.9Zm11.6 0v13.3h-1.9v-13.3h1.9Zm5 0 5 9.8v-9.8h1.8v13.3h-2.1l-5-9.7v9.7h-1.8v-13.3h2.1Z"/></svg>