<svg xmlns="http://www.w3.org/2000/svg" width="454" height="38" fill="none"><path fill="#20C9CB" d="M4.771 25.65v8.578H3.688v-7.225l-2.186.797v-.979l3.1-1.171h.17Z"/><path stroke="#20C9CB" d="M3.5 20.403V.903"/><path fill="#20C9CB" d="M62.5 33.337v.89h-5.584v-.778l2.795-3.112c.344-.383.61-.707.797-.973.191-.269.324-.51.398-.72.078-.215.117-.434.117-.656 0-.282-.058-.536-.175-.762a1.319 1.319 0 0 0-.504-.551 1.517 1.517 0 0 0-.809-.205c-.379 0-.695.074-.95.223a1.37 1.37 0 0 0-.562.609 2.07 2.07 0 0 0-.187.902h-1.084c0-.48.105-.92.316-1.318a2.33 2.33 0 0 1 .938-.95c.414-.238.924-.357 1.53-.357.538 0 1 .096 1.382.287.383.188.676.454.879.797.207.34.31.739.31 1.196 0 .25-.042.503-.129.761a3.866 3.866 0 0 1-.345.762 5.905 5.905 0 0 1-.51.75c-.191.246-.396.488-.615.727l-2.285 2.478H62.5Z"/><path stroke="#20C9CB" d="M59.201 20.403V.903"/><path fill="#20C9CB" d="M114.193 29.429h.774c.379 0 .691-.063.937-.188a1.29 1.29 0 0 0 .557-.521c.125-.223.187-.473.187-.75 0-.328-.054-.604-.164-.826a1.095 1.095 0 0 0-.492-.504c-.219-.113-.496-.17-.832-.17-.305 0-.574.06-.808.182a1.322 1.322 0 0 0-.545.503 1.495 1.495 0 0 0-.194.774h-1.084c0-.434.11-.828.328-1.184.219-.355.526-.638.92-.85.399-.21.86-.316 1.383-.316.516 0 .967.092 1.354.276.386.18.687.449.902.808.215.356.322.8.322 1.33 0 .215-.05.446-.152.692a2.05 2.05 0 0 1-.463.68c-.207.21-.477.384-.809.521-.332.133-.73.2-1.195.2h-.926v-.657Zm0 .89v-.65h.926c.543 0 .992.065 1.348.194.355.128.635.3.838.515.207.215.351.451.433.71.086.253.129.507.129.76 0 .4-.068.753-.205 1.061-.133.309-.322.57-.568.786a2.433 2.433 0 0 1-.856.486c-.328.11-.685.164-1.072.164a3.41 3.41 0 0 1-1.049-.158 2.716 2.716 0 0 1-.861-.457 2.143 2.143 0 0 1-.586-.744 2.335 2.335 0 0 1-.211-1.014h1.084c0 .297.064.557.193.78.133.222.321.396.563.52.246.122.535.182.867.182.332 0 .617-.056.855-.17a1.23 1.23 0 0 0 .557-.527c.133-.234.199-.53.199-.885s-.074-.646-.222-.873c-.149-.23-.36-.4-.633-.51a2.456 2.456 0 0 0-.955-.17h-.774Z"/><path stroke="#20C9CB" d="M114.902 20.403V.903"/><path fill="#20C9CB" d="M174.077 31.357v.89h-6.164v-.638l3.82-5.913h.885l-.949 1.711-2.525 3.95h4.933Zm-1.189-5.66v8.53h-1.084v-8.53h1.084Z"/><path stroke="#20C9CB" d="M170.603 20.403V.903"/><path fill="#20C9CB" d="m225.384 30.167-.867-.222.427-4.248h4.377v1.002h-3.457l-.258 2.32c.157-.09.354-.174.592-.252a2.71 2.71 0 0 1 .832-.117c.395 0 .748.068 1.061.205.312.133.578.324.797.574.222.25.392.55.509.902.118.352.176.744.176 1.178 0 .41-.056.787-.17 1.13a2.531 2.531 0 0 1-.498.903 2.24 2.24 0 0 1-.843.592c-.336.14-.733.211-1.19.211a3.34 3.34 0 0 1-.978-.14 2.516 2.516 0 0 1-.821-.44 2.394 2.394 0 0 1-.586-.738 2.972 2.972 0 0 1-.281-1.043h1.031c.047.32.141.59.282.808.14.219.324.385.55.498.231.11.498.164.803.164.258 0 .486-.045.686-.134.199-.09.367-.22.504-.387.136-.168.24-.371.31-.61.074-.238.111-.505.111-.802 0-.27-.037-.52-.111-.75a1.705 1.705 0 0 0-.334-.604 1.457 1.457 0 0 0-.533-.398 1.711 1.711 0 0 0-.727-.147c-.363 0-.638.05-.826.147-.183.098-.373.23-.568.398Z"/><path stroke="#20C9CB" d="M226.304 20.403V.903"/><path fill="#20C9CB" d="M283.874 25.685h.094v.92h-.094c-.574 0-1.055.093-1.441.281a2.352 2.352 0 0 0-.92.744 3.037 3.037 0 0 0-.492 1.043c-.098.387-.147.78-.147 1.178v1.254c0 .379.045.715.135 1.007.09.29.213.534.369.733.156.2.332.35.527.451.199.102.407.153.621.153.25 0 .473-.047.668-.141.196-.098.36-.233.493-.404.136-.176.24-.383.31-.622.07-.238.106-.5.106-.785 0-.254-.032-.498-.094-.732a1.96 1.96 0 0 0-.287-.633 1.376 1.376 0 0 0-1.172-.603c-.301 0-.582.074-.844.222a1.92 1.92 0 0 0-.639.574 1.55 1.55 0 0 0-.281.768l-.574-.006c.055-.437.156-.81.305-1.119.152-.313.339-.566.562-.762.227-.199.479-.343.756-.433.281-.094.578-.14.891-.14.425 0 .793.08 1.101.24.309.16.563.374.762.644.199.265.346.566.439.902.098.332.147.674.147 1.026 0 .402-.057.779-.17 1.13a2.66 2.66 0 0 1-.51.926 2.3 2.3 0 0 1-.826.621 2.747 2.747 0 0 1-1.143.223c-.461 0-.863-.094-1.207-.281a2.586 2.586 0 0 1-.855-.762 3.458 3.458 0 0 1-.51-1.055 4.179 4.179 0 0 1-.17-1.177v-.51c0-.602.061-1.192.182-1.77.121-.578.33-1.101.627-1.57a3.218 3.218 0 0 1 1.248-1.12c.531-.277 1.209-.415 2.033-.415Z"/><path stroke="#20C9CB" d="M282.005 20.403V.903"/><path fill="#20C9CB" d="M340.928 25.697v.609l-3.533 7.922h-1.143l3.527-7.64h-4.617v-.892h5.766Z"/><path stroke="#20C9CB" d="M337.705 20.403V.903"/><path fill="#20C9CB" d="M396.494 31.92c0 .519-.121.96-.363 1.323-.238.36-.563.633-.973.82a3.248 3.248 0 0 1-1.377.282c-.511 0-.972-.094-1.383-.281a2.27 2.27 0 0 1-.972-.82c-.238-.364-.358-.805-.358-1.325 0-.34.065-.65.194-.931.133-.286.318-.534.556-.745a2.57 2.57 0 0 1 .856-.486 3.271 3.271 0 0 1 1.096-.176c.523 0 .99.102 1.4.305.41.2.732.475.967.826.238.352.357.754.357 1.207Zm-1.09-.024c0-.317-.068-.596-.205-.838a1.453 1.453 0 0 0-.574-.574 1.731 1.731 0 0 0-.855-.205c-.332 0-.62.068-.862.205a1.428 1.428 0 0 0-.556.574c-.133.242-.2.521-.2.838 0 .328.065.61.194.843.133.231.32.409.562.534.246.12.537.181.873.181.336 0 .625-.06.867-.181.243-.125.428-.303.557-.534.133-.234.199-.515.199-.843Zm.891-3.979c0 .414-.109.787-.328 1.12a2.282 2.282 0 0 1-.897.785 2.818 2.818 0 0 1-1.289.287c-.488 0-.924-.096-1.306-.288a2.237 2.237 0 0 1-.891-.785 2.014 2.014 0 0 1-.322-1.119c0-.496.107-.918.322-1.265.219-.348.518-.614.896-.797a2.935 2.935 0 0 1 1.295-.276c.489 0 .922.092 1.301.276a2.1 2.1 0 0 1 .891.797c.219.347.328.77.328 1.265Zm-1.084.018c0-.285-.061-.537-.182-.756a1.33 1.33 0 0 0-.504-.516 1.425 1.425 0 0 0-.75-.193c-.285 0-.535.06-.75.182a1.261 1.261 0 0 0-.498.503 1.63 1.63 0 0 0-.175.78c0 .293.058.549.175.767.121.22.289.39.504.51.215.121.465.182.75.182s.533-.06.744-.182a1.29 1.29 0 0 0 .504-.51 1.56 1.56 0 0 0 .182-.767Z"/><path stroke="#20C9CB" d="M393.406 20.403V.903"/><path fill="#20C9CB" d="M447.895 33.32h.111c.625 0 1.133-.088 1.523-.264.391-.176.692-.412.903-.71.211-.296.355-.63.433-1.001.078-.375.117-.76.117-1.154v-1.307c0-.387-.044-.73-.134-1.031a2.22 2.22 0 0 0-.364-.756 1.612 1.612 0 0 0-.521-.463 1.287 1.287 0 0 0-.621-.158 1.42 1.42 0 0 0-1.172.568c-.133.18-.234.39-.305.633a2.84 2.84 0 0 0-.105.791c0 .254.031.5.094.738.062.239.158.453.287.645.129.191.289.344.48.457.195.11.424.164.686.164.242 0 .468-.047.679-.14a1.972 1.972 0 0 0 .967-.96c.102-.213.16-.433.176-.664h.516c0 .325-.065.645-.194.961a2.957 2.957 0 0 1-.527.856 2.683 2.683 0 0 1-.797.62 2.198 2.198 0 0 1-.996.23c-.422 0-.787-.083-1.096-.247a2.227 2.227 0 0 1-.762-.656 3.014 3.014 0 0 1-.439-.914 3.852 3.852 0 0 1-.141-1.031c0-.407.057-.788.17-1.143.114-.355.282-.668.504-.938a2.3 2.3 0 0 1 .826-.638 2.727 2.727 0 0 1 1.149-.229c.488 0 .904.098 1.248.293.344.196.623.457.838.785.218.329.379.698.48 1.108.102.41.153.832.153 1.265v.393c0 .442-.03.89-.088 1.348a5.352 5.352 0 0 1-.323 1.3 3.41 3.41 0 0 1-.685 1.114c-.301.324-.694.582-1.178.773-.48.188-1.074.282-1.781.282h-.111v-.92Z"/><path stroke="#20C9CB" d="M449.107 20.403V.903"/></svg>