<svg xmlns="http://www.w3.org/2000/svg" width="443" height="138" fill="none"><path stroke="#FF5252" stroke-linecap="round" stroke-linejoin="round" stroke-width="2" d="M8.372 89.066C6.706 87.9 3.1 84.524 2 80.33c-1.374-5.24 2-6.862 4.623-11.48 2.624-4.616 7.997-13.725 11.245-18.342 3.249-4.616 8.122-7.985 11.745-10.231 2.899-1.797 4.873-2.745 5.498-2.995.166-1.123 1.999-4.342 7.996-8.235 7.497-4.867 31.736-11.605 39.233-13.726 7.497-2.121 36.609-7.861 44.231-9.857 7.621-1.997 29.237-3.619 41.606-3.619 12.37 0 29.737 2.745 44.106 6.239 14.369 3.494 36.734 9.233 48.854 13.975 12.119 4.742 30.486 12.852 38.233 16.47 7.747 3.62 26.114 12.478 36.484 18.093 10.37 5.616 25.864 10.357 29.362 10.108 3.499-.25 19.866-2.496 31.736-2.62 11.87-.126 18.992 2.12 27.238 4.366 6.597 1.797 9.496 3.161 10.121 3.619-1.166.166-3.599 1.148-3.998 3.743-.5 3.245-.625 9.11-2.124 10.232-1.5 1.123 5.747 6.239 9.245 11.105 2.799 3.893 3.999 7.113 4.249 8.236-5.331 1.455-18.867 3.668-30.362.873-14.369-3.494-26.488-13.975-34.36-15.347-7.872-1.373-25.239-5.241-39.108-2.62-13.869 2.62-70.469 4.366-96.832 8.858-26.364 4.492-64.472 6.239-84.713 5.366-16.193-.699-32.32-2.371-38.359-3.12 1.292 1.498 4.823 6.389 8.622 13.976 4.748 9.483 4.748 13.975 3.123 17.593-1.624 3.619-5.372 6.988-13.244 5.49-7.871-1.497-13.744-6.114-17.117-12.103-2.7-4.792-2.624-5.74-2.25-5.615-.458 2.163-1.998 6.788-4.498 7.986-3.123 1.497-10.495 4.492-13.493-2.371-3-6.863-5.623-15.597-5.748-19.84-.125-4.242 2-6.738 0-8.734-2-1.997-15.368-3.37-19.741-5.865-3.499-1.996-5.706-3.16-6.373-3.494-1.124 1.456-4.598 4.193-9.495 3.494-6.123-.873-4.748-.873-8.122-.873-3.373 0-5.997 4.492-11.745 2.995-4.598-1.198-8.246-2.496-9.496-2.995Z"/><path stroke="#FF5252" stroke-linecap="round" stroke-linejoin="round" stroke-width="2" d="M112.952 94.431c-2.874-3.618-9.721-11.854-14.119-15.846M94.335 113.273c-3.04-4.991-10.296-16.471-14.994-22.46-5.872-7.487-10.495-11.355-7.871-16.097 2.099-3.793 8.204-3.743 10.995-3.244M47.356 81.704c.334-3.494.525-11.68-1.375-16.47"/></svg>