<svg xmlns="http://www.w3.org/2000/svg" width="126" height="80" fill="none"><path fill="#20C9CB" d="m.976 19.3-.115.408 2.33.165.402-.627c2.495 2.495 4.922 4.072 7.225 4.687 1.964.524 3.81.357 5.5-.492.284-.143.563-.305.838-.487a9.152 9.152 0 0 0 1.262-1.01c.175.924.553 2.354 1.362 4.029 1.277 2.646 3.926 6.429 9.29 9.436l.047.023c2.297 1.002 4.41 1.682 6.334 2.044l.449 9.553c-2.497.526-.573 6.677-.573 6.677s2.447 1.136 4.658-1.323c-.805.024-1.334-.123-1.588-.44-.352-.44-.467-1.282.66-2.307 1.126-1.025-.658-3.13-.66-3.132.405-1.56 1.334-5.303 1.89-8.844a9.408 9.408 0 0 0 2.897-.89 8.476 8.476 0 0 0 2.169-1.558c1.654.238 3.045.525 3.707.9 2.091 1.186 24.853 10.293 24.853 10.293l1.703-.934c8.091 4.02 20.05 10.05 23.89 12.443.001.003 2.487 7.156 3.976 9.613 1.489 2.459 9.809 9.912 11.732 11.598s2.574.328 2.574.328l-9.634-13.296c-2.908-4.013-4.916-10.198-6.177-13.937-1.261-3.738-3.603-3.281-3.603-3.281l.21 1.67c-1.074-.233-1.752.101-2.373-.023-5.33.246-10.132-6.125-12.361-9.631l18.618-10.214s3.281-1.569 7.369-1.835c0 0 5.714-1.912 15.838-8.568-9.875 2.49-8.757-6.76-8.757-6.76s-5.375 11.94-9.157 11.615c0 0-11.727-1.564-12.452.172 0 0 .044 1.585.293 2.864.25 1.28-4.065 5.287-10.243 4.023l-6.173 5.264s-9.087-6.57-12.757-9.041c-3.67-2.472-3.245-4.085-6.21-5.961-5.454-3.452-7.473-.668-9.844-1.001-.319-.046-.71-.13-1.159-.248a43.917 43.917 0 0 0-.275-3.718l16.025 4.329c5.813-4.544 3.08-11.396 3.08-11.396L32.718.934a5.896 5.896 0 0 0-5.43 1.258 3.061 3.061 0 0 0-.568-.163c-.98-.177-2.06.11-3.223.85a2.168 2.168 0 0 0-3.709 1.593c-.328.028-.646.046-.95.062-.762.039-1.505.078-2.116.314-.827-.638-1.9-1.066-3.292-1.12-3.169-.094-5.585 2.29-5.585 2.29L5.936 7.295l-.719.07-.676 3.479 1.03 1.623s-.16 1.324-.263 2.777L2.2 14.955l-.259.918-1.206-.139-.4 3.493.64.073h.001Zm26.289-8.25c-1.665-.237-3.008-.145-4.07-.118.067-.677.1-1.345.098-1.995l.5.006-.142-2.061c.51-.1 1.094.024 1.643.234a5.927 5.927 0 0 0 1.97 3.935Zm-5.442-.173-2.352.46c-.014-.273-.04-.598-.085-.961l2.824-2.499c.07.961.045 1.989-.067 3.04a3.722 3.722 0 0 1-.32-.04Zm-2.867-2.544 2.083-1.96c.315.146.66.216 1.011.201l.008.045-2.88 2.549a11.043 11.043 0 0 0-.222-.835Zm5.124-3.488 1.526-.157a5.762 5.762 0 0 0-.299 1.333c-.552-.173-1.145-.266-1.72-.184.25-.285.417-.628.493-.992Zm-4 .65c.044.075.092.146.143.214L18.56 7.274a6.878 6.878 0 0 0-.973-1.588c.353-.062.785-.084 1.305-.11.366-.02.765-.041 1.189-.082Zm6.407-2.446c-.13.17-.252.35-.365.537l-2.084.214c-.002-.008-.006-.016-.007-.024.919-.589 1.752-.838 2.456-.728Zm21.667 17.898c-3.036-.987-7.847-3.179-12.9-6.581a26.68 26.68 0 0 0-1.447-.91L47.85 17.25c.12.965.246 2.248.303 3.697Zm-7.708 15.63c.09-.659.161-1.3.21-1.91 1.089.113 2.234.231 3.326.364-1 .787-2.181 1.302-3.536 1.546Zm-19.198-10.07c2.175 1.967 11.491 6.34 14.032 7.32l.121 2.578c-1.771-.356-3.72-.995-5.842-1.92-4.36-2.449-6.869-5.426-8.31-7.979v.001ZM4.17 18.347l.462-.72.596-.058c.004.223.014.43.032.612.17 1.726 6.461 2.853 7.546 1.004.145-.249.373-.557.657-.904 2.209-.158 3.643.978 4.677 2.463-.481.52-1 .973-1.556 1.34-3.473 2.289-7.755.994-12.414-3.738Z"/></svg>