<svg xmlns="http://www.w3.org/2000/svg" width="26" height="26"><circle cx="13.273" cy="13.252" r="12.5"/><path fill="#fff" fill-rule="evenodd" d="M5.149 12.895c4.104-2.01 6.837-3.347 8.209-3.995 3.905-1.838 4.726-2.156 5.254-2.169.117 0 .375.026.551.185.14.132.176.304.2.437.023.132.046.41.023.621-.211 2.513-1.126 8.611-1.595 11.415-.2 1.19-.586 1.587-.962 1.627-.82.08-1.442-.608-2.228-1.19-1.243-.913-1.935-1.482-3.143-2.381-1.396-1.032-.492-1.6.305-2.527.211-.238 3.812-3.941 3.882-4.272.012-.04.012-.198-.07-.278-.083-.079-.2-.053-.294-.026-.129.026-2.099 1.508-5.934 4.43-.563.437-1.067.649-1.524.636-.505-.013-1.466-.318-2.193-.582-.88-.318-1.584-.49-1.525-1.045.035-.291.387-.582 1.044-.886Z" clip-rule="evenodd"/></svg>